<?xml version="1.0" encoding="UTF-8" standalone="no"?>
<!-- Created with Inkscape (http://www.inkscape.org/) -->
<svg
   xmlns:svg="http://www.w3.org/2000/svg"
   xmlns="http://www.w3.org/2000/svg"
   xmlns:xlink="http://www.w3.org/1999/xlink"
   version="1.0"
   width="600"
   height="660"
   id="svg2">
  <desc
     id="desc4">Flag of Canton of Valais (Wallis)</desc>
  <defs
     id="defs6">
    <linearGradient
       id="linearGradient2893">
      <stop
         id="stop2895"
         style="stop-color:#ffffff;stop-opacity:0.3137255"
         offset="0" />
      <stop
         id="stop2897"
         style="stop-color:#ffffff;stop-opacity:0.25098041"
         offset="0.19" />
      <stop
         id="stop2901"
         style="stop-color:#6b6b6b;stop-opacity:0.1254902"
         offset="0.60000002" />
      <stop
         id="stop2899"
         style="stop-color:#000000;stop-opacity:0.1254902"
         offset="1" />
    </linearGradient>
    <linearGradient
       id="linearGradient2885">
      <stop
         id="stop2887"
         style="stop-color:#ffffff;stop-opacity:1"
         offset="0" />
      <stop
         id="stop2891"
         style="stop-color:#ffffff;stop-opacity:1"
         offset="0.22857143" />
      <stop
         id="stop2889"
         style="stop-color:#000000;stop-opacity:1"
         offset="1" />
    </linearGradient>
    <linearGradient
       id="linearGradient2955">
      <stop
         id="stop2867"
         style="stop-color:#fd0000;stop-opacity:1"
         offset="0" />
      <stop
         id="stop2873"
         style="stop-color:#e77275;stop-opacity:0.65882355"
         offset="0.5" />
      <stop
         id="stop2959"
         style="stop-color:#000000;stop-opacity:0.32291666"
         offset="1" />
    </linearGradient>
    <radialGradient
       cx="225.52438"
       cy="218.90099"
       r="300"
       fx="225.52438"
       fy="218.90099"
       id="radialGradient2961"
       xlink:href="#linearGradient2955"
       gradientUnits="userSpaceOnUse"
       gradientTransform="matrix(-4.167939e-4,2.182867,-1.884232,-3.599562e-4,615.5972,-289.1214)" />
    <polygon
       points="0,-1 0.58778525,0.80901699 -0.95105652,-0.30901699 0.95105652,-0.30901699 -0.58778525,0.80901699 0,-1 "
       transform="scale(53,53)"
       id="star" />
    <clipPath
       id="clip">
      <path
         d="M 0,-200 L 0,600 L 300,600 L 300,-200 L 0,-200 z"
         id="path10" />
    </clipPath>
    <radialGradient
       cx="225.52438"
       cy="218.90099"
       r="300"
       fx="225.52438"
       fy="218.90099"
       id="radialGradient1911"
       xlink:href="#linearGradient2955"
       gradientUnits="userSpaceOnUse"
       gradientTransform="matrix(-4.167939e-4,2.182867,-1.884232,-3.599562e-4,615.5972,-289.1214)" />
    <radialGradient
       cx="225.52438"
       cy="218.90099"
       r="300"
       fx="225.52438"
       fy="218.90099"
       id="radialGradient2865"
       xlink:href="#linearGradient2955"
       gradientUnits="userSpaceOnUse"
       gradientTransform="matrix(0,1.748721,-1.593162,-1.049767e-7,551.7876,-191.2898)" />
    <radialGradient
       cx="225.52438"
       cy="218.90099"
       r="300"
       fx="225.52438"
       fy="218.90099"
       id="radialGradient2871"
       xlink:href="#linearGradient2955"
       gradientUnits="userSpaceOnUse"
       gradientTransform="matrix(0,1.386237,-1.323286,-5.741131e-8,-158.0823,-109.5408)" />
    <radialGradient
       cx="221.44487"
       cy="226.33101"
       r="300"
       fx="221.44487"
       fy="226.33101"
       id="radialGradient3163"
       xlink:href="#linearGradient2893"
       gradientUnits="userSpaceOnUse"
       gradientTransform="matrix(1.353218,0,0,1.348928,-77.62935,-85.74693)" />
  </defs>
  <g
     id="layer3"
     style="display:inline">
    <path
       d="M 299.38462,658.54498 C 299.38462,658.54498 597.88463,546.22467 597.88463,260.77315 C 597.88463,-24.678377 597.88463,2.2214629 597.88463,2.2214629 L 0.88462171,2.2214629 L 0.88462171,260.77315 C 0.88462171,546.22467 299.38462,658.54498 299.38462,658.54498 z"
       id="path2855"
       style="fill:#ffffff;fill-opacity:1;fill-rule:evenodd;stroke:none;stroke-width:1px;stroke-linecap:butt;stroke-linejoin:miter;stroke-opacity:1" />
    <path
       d="M 1.5757851,2.0398779 C 299.87889,2.0398779 299.58338,1.4200074 299.58338,1.4200074 L 300.48994,300.2439 C 300.48994,300.2439 3.4470846,301.37728 3.4470846,301.37728 C -0.7845603,250.50576 1.2637563,104.33088 1.5757851,2.0398779 z"
       id="path3953"
       style="fill:#bababa;fill-rule:evenodd;stroke:#000000;stroke-width:2.5;stroke-linecap:butt;stroke-linejoin:miter;stroke-miterlimit:4;stroke-dasharray:none;stroke-opacity:1" />
    <path
       d="M 598.07421,2.1032359 C 446.21471,2.2699893 300.04416,1.3106234 300.04416,1.3106234 L 300.33672,299.77257 C 300.33672,299.77257 597.15293,300.90595 597.15293,300.90595 C 601.38458,250.03443 598.38624,104.39424 598.07421,2.1032359 z"
       id="path3979"
       style="fill:#2b5df2;fill-rule:evenodd;stroke:#000000;stroke-width:2.5;stroke-linecap:butt;stroke-linejoin:miter;stroke-miterlimit:4;stroke-dasharray:none;stroke-opacity:1;display:inline" />
    <path
       d="M 3.0901914,301.5378 C 299.74856,299.99271 300.52111,299.99271 300.52111,299.99271 L 300.52111,657.68236 C 217.06467,620.50388 23.863565,518.9357 3.0901914,301.5378 z"
       id="path3985"
       style="opacity:1;fill:#2b5df2;fill-rule:evenodd;stroke:#000000;stroke-width:2.5;stroke-linecap:butt;stroke-linejoin:miter;stroke-miterlimit:4;stroke-dasharray:none;stroke-opacity:1" />
    <path
       d="M 597.14537,301.97129 C 300.487,300.4262 299.71445,300.4262 299.71445,300.4262 L 299.71445,658.11585 C 383.17089,620.93737 576.372,519.36919 597.14537,301.97129 z"
       id="path3987"
       style="opacity:1;fill:#bababa;fill-rule:evenodd;stroke:#000000;stroke-width:2.5;stroke-linecap:butt;stroke-linejoin:miter;stroke-miterlimit:4;stroke-dasharray:none;stroke-opacity:1;display:inline" />
    <path
       d="M 100.46122,167.01028 C 67.207218,167.01028 35.656568,181.72228 14.281218,207.19678 L 14.281218,88.823776 C 35.656568,114.29828 67.207218,129.01028 100.46122,129.01028 L 130.31122,129.01028 L 130.31122,99.160276 C 130.31122,65.906266 115.59922,34.355626 90.124718,12.980276 L 208.49772,12.980276 C 183.02322,34.355626 168.31122,65.906266 168.31122,99.160276 L 168.31122,129.01028 L 198.11122,129.01028 C 231.36522,129.01028 262.91572,114.29828 284.29122,88.823776 L 284.29122,207.19678 C 262.91572,181.72228 231.36522,167.01028 198.11122,167.01028 L 168.31122,167.01028 L 168.31122,196.81028 C 168.31122,230.06428 183.02322,261.61478 208.49772,282.99028 L 90.124718,282.99028 C 115.59922,261.61478 130.31122,230.06428 130.31122,196.81028 L 130.31122,167.01028 L 100.46122,167.01028 z"
       id="path2809"
       style="fill:#e20909;stroke:none" />
    <path
       d="M 388.6875,317.71875 C 414.162,339.0941 428.875,370.65223 428.875,403.90625 L 428.875,433.75 L 399.03125,433.75 C 365.77725,433.75 334.2191,419.03701 312.84375,393.5625 L 312.84375,511.9375 C 334.2191,486.463 365.77726,471.75 399.03125,471.75 L 428.875,471.75 L 428.875,501.5625 C 428.875,534.8165 414.162,566.34324 388.6875,587.71875 L 422.65625,587.71875 C 443.5139,570.61869 458.81901,557.43261 474.625,542.5 C 469.57805,529.59295 466.875,515.74687 466.875,501.5625 L 466.875,471.75 L 496.6875,471.75 C 508.09523,471.75 519.30396,473.47801 529.96875,476.78125 C 544.77392,454.68059 556.8224,432.82228 568.125,408.125 C 548.15654,424.54415 522.96063,433.75 496.6875,433.75 L 466.875,433.75 L 466.875,403.90625 C 466.875,370.65224 481.58801,339.09411 507.0625,317.71875 L 388.6875,317.71875 z"
       id="path2819"
       style="fill:#e20909;stroke:none;display:inline" />
    <g
       id="g3526">
      <path
         d="M 397.21992,286.67107 C 392.14191,285.37792 378.58965,274.1725 376.57089,269.59784 C 374.74695,265.46462 374.23667,265.2509 368.30944,266.13763 C 359.64804,267.43339 348.37687,262.19602 348.37687,256.87555 C 348.37687,253.95206 349.14817,253.25936 352.4033,253.25936 C 360.20376,253.25936 368.32314,247.78381 373.3638,239.12399 C 379.00508,229.43236 380.65197,224.39893 382.65517,210.72673 C 384.38331,198.93191 383.72166,195.78905 379.7742,197.04194 C 377.53653,197.75216 369.25013,194.78935 366.46737,192.28409 C 366.10464,191.95753 367.28589,190.65509 369.09237,189.38981 C 370.89885,188.12449 373.40539,186.33854 373.40539,184.73533 C 379.24912,169.31831 383.69133,150.57806 378.95666,133.57927 C 378.01629,133.26582 375.37687,130.47811 375.37687,127.38436 C 375.37687,120.0773 374.10914,119.01822 369.99216,122.88592 L 366.72837,124.07639 L 362.0414,122.64381 L 360.34644,118.96719 L 362.6624,109.42761 C 368.31745,98.777814 368.87088,94.209543 366.23829,79.909845 C 363.96881,67.582459 360.95493,64.144249 358.10757,70.634356 C 357.29319,72.490606 355.10813,74.225053 353.25187,74.488683 C 351.08294,74.796721 349.87687,76.002784 349.87687,77.863683 C 349.87687,80.081098 348.82283,80.759356 345.37687,80.759356 L 340.87687,80.759356 L 340.87687,67.259356 C 340.87687,55.259356 340.57688,53.759356 338.17687,53.759356 C 332.44909,53.759356 330.05437,47.867572 334.12687,43.795071 C 337.52837,40.393576 336.88902,38.820262 331.12687,36.412686 C 323.21097,33.10521 324.15037,29.293987 334.03398,24.618288 C 344.61991,19.610346 361.9475,19.162488 370.56164,23.674176 C 377.90436,27.519957 406.84895,57.367989 410.64569,65.009356 C 412.28534,68.309356 415.72206,74.412123 418.28283,78.571062 C 428.8222,95.687974 430.68061,105.00465 423.75187,105.98868 C 421.18466,106.35328 420.37687,105.72501 420.37687,103.36368 C 420.37687,101.18939 419.41291,100.25936 417.15931,100.25936 C 414.07347,100.25936 413.98255,100.70449 414.93845,111.13436 C 415.48662,117.11561 416.59965,139.55936 417.41184,161.00936 C 418.22405,182.45936 419.53886,204.73436 420.33364,210.50936 C 422.70083,227.7094 422.39181,232.25936 418.85652,232.25936 C 417.19533,232.25936 414.66408,231.63364 413.23152,230.86886 C 411.79896,230.10409 409.38155,229.08817 407.85947,228.61129 C 406.33739,228.13441 404.7327,226.37003 404.29349,224.69045 C 403.24592,220.68458 400.26795,221.75645 399.60814,226.37686 C 399.32285,228.37474 398.41851,230.82653 397.5985,231.82529 C 393.31752,243.11147 390.53553,247.93153 390.37687,258.12739 C 390.37687,266.36773 390.97904,268.55048 394.50187,273.07984 C 396.77062,275.99681 400.82063,279.82421 403.50187,281.58518 C 406.18313,283.34615 408.37687,285.45574 408.37687,286.27315 C 408.37687,287.79082 402.44741,288.0023 397.21992,286.67107 z"
         id="path1933"
         style="fill:#bababa" />
      <path
         d="M 397.21994,286.67107 C 392.14193,285.37792 378.58967,274.1725 376.5709,269.59784 C 374.74696,265.46462 374.23668,265.2509 368.30946,266.13763 C 359.64805,267.43339 348.37687,262.19602 348.37687,256.87555 C 348.37687,253.95208 349.14817,253.25936 352.4033,253.25936 C 360.20378,253.25936 368.32314,247.78381 373.36381,239.12399 C 379.00509,229.43236 380.65199,224.39893 382.65517,210.72673 C 384.38333,198.93191 383.72168,195.78907 379.77422,197.04194 C 377.53654,197.75216 369.25014,194.78936 366.46738,192.28409 C 366.10465,191.95754 367.28591,190.65511 369.09238,189.38981 C 370.89887,188.1245 373.0314,185.96453 373.0314,184.36132 C 383.08262,160.91287 376.44322,183.60524 374.50494,188.00047 C 372.72375,191.43368 372.66498,192.52078 374.2067,193.51603 C 377.48338,195.63128 380.16174,194.21593 383.20808,188.75936 L 386.13909,183.50936 L 385.4514,205.19489 C 384.94515,213.69448 385.68261,225.41719 381.36402,233.02487 C 379.94454,234.73523 380.43831,235.88617 383.85082,238.82152 C 391.15208,245.73635 392.80565,233.58058 395.23149,227.75936 C 399.95456,217.4066 402.37689,211.53761 402.37689,210.44696 C 402.37689,209.49413 408.19813,196.71751 409.47888,194.85937 C 409.72528,194.50186 410.64606,194.92853 411.52504,195.80752 C 412.62134,196.90382 412.64481,198.2855 411.59981,200.20751 C 409.49918,204.07103 406.51242,221.45614 407.63679,223.27537 C 411.25535,224.83 414.52086,228.20092 418.24661,228.88963 C 418.71486,228.42139 418.03571,217.84438 416.73743,205.38514 C 415.43913,192.9259 414.32676,173.11939 414.26547,161.37067 C 414.14808,138.86686 411.16695,102.14225 408.63501,92.009353 C 407.81043,88.709353 405.39003,81.050946 403.25634,74.990668 C 401.86775,66.53431 399.08622,60.113538 394.61768,51.54183 C 388.10844,42.907237 379.66527,31.882471 369.79034,26.563918 C 359.64337,21.98434 357.50759,20.92918 340.31687,24.800727 C 337.22312,25.343209 334.00412,28.116525 332.02074,29.363739 C 328.58109,31.526709 328.54647,31.70152 331.27074,33.150231 C 340.27026,37.935981 344.5888,47.759353 337.69322,47.759353 C 335.09174,47.759353 334.83749,48.154507 336.30288,49.920192 C 338.5557,52.634683 341.25601,51.662773 343.15856,47.452653 C 343.96614,45.665581 345.47062,43.934764 346.50187,43.606392 C 349.51067,42.648331 348.67404,48.525454 345.37687,51.509353 C 342.82945,53.814736 342.37687,56.129304 342.37687,66.851821 C 342.37687,78.068418 342.67017,79.423482 345.00187,78.979522 C 347.17332,78.566079 347.77298,76.279288 348.47242,65.744536 L 349.31796,53.009353 L 349.59742,63.23868 C 349.86195,72.921442 350.05721,73.442395 353.25187,72.98868 C 355.70972,72.639612 356.76065,71.338716 357.11915,68.20162 C 357.3899,65.832366 356.88365,63.166116 355.99415,62.27662 C 353.65923,59.941702 353.88264,50.330302 356.25187,51.188622 C 357.28312,51.562219 359.31227,50.835108 360.76107,49.572817 C 365.11825,45.776583 365.50261,48.769987 361.20925,53.063331 C 355.67545,58.597141 357.16752,61.003993 363.05881,56.04681 C 366.92172,52.796389 367.87689,50.866042 367.87689,46.30968 C 367.87689,38.596858 364.64997,35.986273 360.3864,40.249851 C 356.31581,44.320429 349.6851,43.781158 347.68158,39.216577 C 346.88668,37.405552 344.69294,35.536441 342.80658,35.062999 C 340.92024,34.589559 339.37687,33.579894 339.37687,32.819301 C 339.37687,30.63886 342.19292,29.464225 344.25187,30.785829 C 347.76346,33.039855 359.61644,35.541111 360.12687,34.135834 C 360.94152,31.893175 367.3505,32.567703 369.46784,35.118943 C 372.83902,39.180972 371.29485,50.894368 366.76364,55.631718 C 362.98082,59.586648 361.05198,65.759353 363.599,65.759353 C 364.27038,65.759353 365.24327,67.446853 365.76093,69.509353 C 369.58947,75.932787 370.6179,82.436401 370.20463,90.134353 C 369.39627,99.574789 368.11062,104.43033 364.78296,110.61009 C 360.70484,118.18354 360.59034,118.83947 363.02389,120.68738 C 366.70556,123.48302 367.28485,123.3039 370.87689,118.25935 C 372.63923,115.78435 374.68696,113.75935 375.42737,113.75935 C 376.16778,113.75935 377.2685,117.3031 377.87342,121.63436 C 378.47834,125.96561 379.22607,128.32811 379.53507,126.88436 C 379.84406,125.44061 380.72237,124.25936 381.48687,124.25936 C 383.33277,124.25936 383.26999,129.26625 381.40067,131.13557 C 379.65126,132.88499 382.68576,158.99224 384.80656,160.4381 C 386.08941,161.31269 383.63087,182.5054 382.06488,184.07138 C 380.3587,185.77754 379.41658,182.34089 380.92731,179.92184 C 381.85509,178.43624 382.73868,174.58568 382.89087,171.36506 C 383.27483,163.23946 383.07161,161.75936 381.57195,161.75936 C 380.37426,161.75936 378.91218,174.38285 377.36691,180.41089 C 371.79819,190.41551 373.87957,182.21117 375.95646,177.13436 C 379.04715,163.41518 379.94798,153.78641 379.04361,144.13558 C 379.57653,137.90072 375.59573,133.36122 375.37689,127.50935 C 375.37689,120.07688 372.91025,120.31164 368.77666,124.19493 C 365.55883,126.39877 364.19195,124.23332 362.04141,122.6438 C 357.61199,121.28446 359.2418,113.21156 362.66241,109.42761 C 368.31747,98.777811 368.8709,94.20954 366.23831,79.909842 C 363.96882,67.582456 360.95495,64.144246 358.10757,70.634353 C 357.29319,72.490603 355.10813,74.22505 353.25187,74.48868 C 351.08294,74.796718 349.87687,76.002781 349.87687,77.86368 C 349.87687,80.081095 348.82283,80.759353 345.37687,80.759353 L 340.87687,80.759353 L 340.87687,67.259353 C 340.87687,55.259353 340.57688,53.759353 338.17687,53.759353 C 332.44909,53.759353 330.05437,47.867569 334.12687,43.795068 C 337.52837,40.393573 336.88902,38.820259 331.12687,36.412683 C 323.21097,33.105207 324.15037,29.293984 334.03398,24.618285 C 344.61991,19.610343 361.94751,19.162485 370.56165,23.674173 C 377.90438,27.519954 406.84896,57.367986 410.6457,65.009353 C 412.28535,68.309353 415.72208,74.41212 418.28285,78.571059 C 428.82222,95.687971 430.68063,105.00464 423.75189,105.98868 C 421.18467,106.35328 420.37689,105.725 420.37689,103.36368 C 420.37689,101.18939 419.41291,100.25935 417.15933,100.25935 C 414.07349,100.25935 413.98257,100.70448 414.93845,111.13435 C 415.48662,117.1156 416.59967,139.55936 417.41184,161.00936 C 418.22405,182.45936 419.53887,204.73436 420.33366,210.50936 C 422.70084,227.7094 422.39183,232.25936 418.85652,232.25936 C 417.19533,232.25936 414.66408,231.63364 413.23152,230.86886 C 411.79896,230.10409 409.38156,229.08818 407.85948,228.61129 C 406.33739,228.13441 404.73271,226.37003 404.2935,224.69045 C 403.24593,220.68458 400.26795,221.75645 399.60816,226.37686 C 396.84985,236.98081 392.55726,247.28647 390.37689,258.12739 C 390.37689,266.36773 390.97904,268.55048 394.50189,273.07984 C 396.77062,275.99681 400.82063,279.82421 403.50189,281.58518 C 406.18314,283.34615 408.37689,285.45574 408.37689,286.27315 C 408.37689,287.79082 402.44741,288.0023 397.21994,286.67107 z M 397.87143,281.36845 C 397.30095,279.5122 390.29863,270.85793 388.82461,269.45063 C 386.79599,267.5138 386.33938,265.43948 386.94609,260.91623 C 393.57864,238.82567 377.73406,238.42609 375.75189,242.97688 C 373.03593,248.18917 365.64679,253.91326 359.52297,255.42989 C 353.41734,256.57531 353.02671,258.30554 358.12027,261.64297 C 362.60213,264.57959 371.92687,263.39284 374.87976,259.51001 C 376.53381,257.33503 376.80015,257.69308 376.92482,262.25936 C 377.04243,266.56748 378.28035,268.51852 383.82498,273.13436 C 391.58708,279.59623 399.3596,286.21088 397.87143,281.36845 z M 424.87689,99.633711 C 424.87689,94.851595 419.96004,83.525635 416.71482,80.83233 C 415.30025,79.658335 412.41688,75.280396 410.30734,71.103574 C 406.35059,63.269355 400.8216,55.339678 400.94916,57.682065 C 400.98891,58.412074 404.2013,67.784353 408.0878,78.509353 C 414.48672,96.167569 415.47163,97.965028 418.51553,97.540066 C 421.06269,97.184449 421.87689,97.82028 421.87689,100.16507 C 421.87689,101.86692 422.55187,103.25935 423.37689,103.25935 C 424.20189,103.25935 424.87689,101.62781 424.87689,99.633711 z M 354.37687,38.759353 C 354.37687,37.934353 353.70188,37.259353 352.87687,37.259353 C 352.05187,37.259353 351.37687,37.934353 351.37687,38.759353 C 351.37687,39.584353 352.05187,40.259353 352.87687,40.259353 C 353.70188,40.259353 354.37687,39.584353 354.37687,38.759353 z M 389.44134,218.06672 C 388.97857,216.86077 389.6569,213.75532 390.94876,211.16573 C 392.24063,208.57613 393.75543,204.01694 394.31499,201.03416 C 394.87458,198.0514 396.65763,192.61507 398.27735,188.95342 C 400.93315,182.94952 401.15489,179.77831 400.53572,156.65263 C 400.15809,142.54883 400.11178,136.06949 400.43276,142.25411 C 400.75376,148.43873 401.66001,154.14248 402.44663,154.92911 C 406.35707,158.83954 402.82325,192.81511 397.13376,206.00936 C 396.06653,208.48436 394.731,212.70311 394.16592,215.38436 C 393.08596,220.50874 390.86279,221.77094 389.44134,218.06672 z M 388.27359,133.63436 C 386.71307,117.05065 386.04235,105.25012 386.88817,109.25935 C 387.32333,111.32185 388.19955,113.34685 388.83537,113.75935 C 390.63224,114.92509 392.41635,143.75936 390.6916,143.75936 C 389.88574,143.75936 388.79763,139.20311 388.27359,133.63436 z M 405.37689,120.00935 C 405.37689,117.39685 404.795,115.25935 404.08377,115.25935 C 403.37257,115.25935 402.3247,110.11727 401.75522,103.83251 C 400.83727,93.702666 399.52719,90.025104 390.21315,71.432506 C 383.35553,57.743352 379.86639,49.078828 380.16674,46.484352 C 380.5462,43.206237 381.74453,44.804976 387.00189,55.60351 C 389.82885,62.377218 392.56103,68.660607 396.8254,74.384353 C 397.26453,75.828103 398.95343,80.500759 400.57851,84.768033 C 403.53684,92.536309 407.83454,122.30171 406.22952,123.90671 C 405.76059,124.37567 405.37689,122.62185 405.37689,120.00935 z M 366.85496,115.07185 C 367.32416,113.93748 369.26477,108.12192 371.16746,102.14839 C 374.32004,92.250829 376.87689,88.251147 376.87689,93.217173 C 376.87689,97.416277 369.80147,115.86783 367.9553,116.48322 C 366.76329,116.88055 366.33441,116.33043 366.85496,115.07185 z M 383.24426,98.382093 C 382.34384,96.527086 380.50277,89.946853 379.15299,83.759353 C 377.80322,77.571853 376.01713,71.262373 375.18394,69.738285 C 374.35074,68.214198 374.05327,66.582948 374.52296,66.113286 C 375.96234,64.673907 377.08167,66.738652 378.5369,73.517557 C 379.3034,77.088045 380.5541,81.359353 381.31623,83.009353 C 382.8012,86.224269 385.92464,100.71161 385.27321,101.36302 C 385.05773,101.57852 384.1447,100.2371 383.24426,98.382093 z"
         id="path1927"
         style="fill:#000000;fill-opacity:1" />
    </g>
    <g
       transform="matrix(-1,0,0,1,903.84647,0)"
       id="g3530"
       style="display:inline">
      <path
         d="M 397.21992,286.67107 C 392.14191,285.37792 378.58965,274.1725 376.57089,269.59784 C 374.74695,265.46462 374.23667,265.2509 368.30944,266.13763 C 359.64804,267.43339 348.37687,262.19602 348.37687,256.87555 C 348.37687,253.95206 349.14817,253.25936 352.4033,253.25936 C 360.20376,253.25936 368.32314,247.78381 373.3638,239.12399 C 379.00508,229.43236 380.65197,224.39893 382.65517,210.72673 C 384.38331,198.93191 383.72166,195.78905 379.7742,197.04194 C 377.53653,197.75216 369.25013,194.78935 366.46737,192.28409 C 366.10464,191.95753 367.28589,190.65509 369.09237,189.38981 C 370.89885,188.12449 373.40539,186.33854 373.40539,184.73533 C 379.24912,169.31831 383.69133,150.57806 378.95666,133.57927 C 378.01629,133.26582 375.37687,130.47811 375.37687,127.38436 C 375.37687,120.0773 374.10914,119.01822 369.99216,122.88592 L 366.72837,124.07639 L 362.0414,122.64381 L 360.34644,118.96719 L 362.6624,109.42761 C 368.31745,98.777814 368.87088,94.209543 366.23829,79.909845 C 363.96881,67.582459 360.95493,64.144249 358.10757,70.634356 C 357.29319,72.490606 355.10813,74.225053 353.25187,74.488683 C 351.08294,74.796721 349.87687,76.002784 349.87687,77.863683 C 349.87687,80.081098 348.82283,80.759356 345.37687,80.759356 L 340.87687,80.759356 L 340.87687,67.259356 C 340.87687,55.259356 340.57688,53.759356 338.17687,53.759356 C 332.44909,53.759356 330.05437,47.867572 334.12687,43.795071 C 337.52837,40.393576 336.88902,38.820262 331.12687,36.412686 C 323.21097,33.10521 324.15037,29.293987 334.03398,24.618288 C 344.61991,19.610346 361.9475,19.162488 370.56164,23.674176 C 377.90436,27.519957 406.84895,57.367989 410.64569,65.009356 C 412.28534,68.309356 415.72206,74.412123 418.28283,78.571062 C 428.8222,95.687974 430.68061,105.00465 423.75187,105.98868 C 421.18466,106.35328 420.37687,105.72501 420.37687,103.36368 C 420.37687,101.18939 419.41291,100.25936 417.15931,100.25936 C 414.07347,100.25936 413.98255,100.70449 414.93845,111.13436 C 415.48662,117.11561 416.59965,139.55936 417.41184,161.00936 C 418.22405,182.45936 419.53886,204.73436 420.33364,210.50936 C 422.70083,227.7094 422.39181,232.25936 418.85652,232.25936 C 417.19533,232.25936 414.66408,231.63364 413.23152,230.86886 C 411.79896,230.10409 409.38155,229.08817 407.85947,228.61129 C 406.33739,228.13441 404.7327,226.37003 404.29349,224.69045 C 403.24592,220.68458 400.26795,221.75645 399.60814,226.37686 C 399.32285,228.37474 398.41851,230.82653 397.5985,231.82529 C 393.31752,243.11147 390.53553,247.93153 390.37687,258.12739 C 390.37687,266.36773 390.97904,268.55048 394.50187,273.07984 C 396.77062,275.99681 400.82063,279.82421 403.50187,281.58518 C 406.18313,283.34615 408.37687,285.45574 408.37687,286.27315 C 408.37687,287.79082 402.44741,288.0023 397.21992,286.67107 z"
         id="path3532"
         style="fill:#bababa" />
      <path
         d="M 397.21994,286.67107 C 392.14193,285.37792 378.58967,274.1725 376.5709,269.59784 C 374.74696,265.46462 374.23668,265.2509 368.30946,266.13763 C 359.64805,267.43339 348.37687,262.19602 348.37687,256.87555 C 348.37687,253.95208 349.14817,253.25936 352.4033,253.25936 C 360.20378,253.25936 368.32314,247.78381 373.36381,239.12399 C 379.00509,229.43236 380.65199,224.39893 382.65517,210.72673 C 384.38333,198.93191 383.72168,195.78907 379.77422,197.04194 C 377.53654,197.75216 369.25014,194.78936 366.46738,192.28409 C 366.10465,191.95754 367.28591,190.65511 369.09238,189.38981 C 370.89887,188.1245 373.0314,185.96453 373.0314,184.36132 C 383.08262,160.91287 376.44322,183.60524 374.50494,188.00047 C 372.72375,191.43368 372.66498,192.52078 374.2067,193.51603 C 377.48338,195.63128 380.16174,194.21593 383.20808,188.75936 L 386.13909,183.50936 L 385.4514,205.19489 C 384.94515,213.69448 385.68261,225.41719 381.36402,233.02487 C 379.94454,234.73523 380.43831,235.88617 383.85082,238.82152 C 391.15208,245.73635 392.80565,233.58058 395.23149,227.75936 C 399.95456,217.4066 402.37689,211.53761 402.37689,210.44696 C 402.37689,209.49413 408.19813,196.71751 409.47888,194.85937 C 409.72528,194.50186 410.64606,194.92853 411.52504,195.80752 C 412.62134,196.90382 412.64481,198.2855 411.59981,200.20751 C 409.49918,204.07103 406.51242,221.45614 407.63679,223.27537 C 411.25535,224.83 414.52086,228.20092 418.24661,228.88963 C 418.71486,228.42139 418.03571,217.84438 416.73743,205.38514 C 415.43913,192.9259 414.32676,173.11939 414.26547,161.37067 C 414.14808,138.86686 411.16695,102.14225 408.63501,92.009353 C 407.81043,88.709353 405.39003,81.050946 403.25634,74.990668 C 401.86775,66.53431 399.08622,60.113538 394.61768,51.54183 C 388.10844,42.907237 379.66527,31.882471 369.79034,26.563918 C 359.64337,21.98434 357.50759,20.92918 340.31687,24.800727 C 337.22312,25.343209 334.00412,28.116525 332.02074,29.363739 C 328.58109,31.526709 328.54647,31.70152 331.27074,33.150231 C 340.27026,37.935981 344.5888,47.759353 337.69322,47.759353 C 335.09174,47.759353 334.83749,48.154507 336.30288,49.920192 C 338.5557,52.634683 341.25601,51.662773 343.15856,47.452653 C 343.96614,45.665581 345.47062,43.934764 346.50187,43.606392 C 349.51067,42.648331 348.67404,48.525454 345.37687,51.509353 C 342.82945,53.814736 342.37687,56.129304 342.37687,66.851821 C 342.37687,78.068418 342.67017,79.423482 345.00187,78.979522 C 347.17332,78.566079 347.77298,76.279288 348.47242,65.744536 L 349.31796,53.009353 L 349.59742,63.23868 C 349.86195,72.921442 350.05721,73.442395 353.25187,72.98868 C 355.70972,72.639612 356.76065,71.338716 357.11915,68.20162 C 357.3899,65.832366 356.88365,63.166116 355.99415,62.27662 C 353.65923,59.941702 353.88264,50.330302 356.25187,51.188622 C 357.28312,51.562219 359.31227,50.835108 360.76107,49.572817 C 365.11825,45.776583 365.50261,48.769987 361.20925,53.063331 C 355.67545,58.597141 357.16752,61.003993 363.05881,56.04681 C 366.92172,52.796389 367.87689,50.866042 367.87689,46.30968 C 367.87689,38.596858 364.64997,35.986273 360.3864,40.249851 C 356.31581,44.320429 349.6851,43.781158 347.68158,39.216577 C 346.88668,37.405552 344.69294,35.536441 342.80658,35.062999 C 340.92024,34.589559 339.37687,33.579894 339.37687,32.819301 C 339.37687,30.63886 342.19292,29.464225 344.25187,30.785829 C 347.76346,33.039855 359.61644,35.541111 360.12687,34.135834 C 360.94152,31.893175 367.3505,32.567703 369.46784,35.118943 C 372.83902,39.180972 371.29485,50.894368 366.76364,55.631718 C 362.98082,59.586648 361.05198,65.759353 363.599,65.759353 C 364.27038,65.759353 365.24327,67.446853 365.76093,69.509353 C 369.58947,75.932787 370.6179,82.436401 370.20463,90.134353 C 369.39627,99.574789 368.11062,104.43033 364.78296,110.61009 C 360.70484,118.18354 360.59034,118.83947 363.02389,120.68738 C 366.70556,123.48302 367.28485,123.3039 370.87689,118.25935 C 372.63923,115.78435 374.68696,113.75935 375.42737,113.75935 C 376.16778,113.75935 377.2685,117.3031 377.87342,121.63436 C 378.47834,125.96561 379.22607,128.32811 379.53507,126.88436 C 379.84406,125.44061 380.72237,124.25936 381.48687,124.25936 C 383.33277,124.25936 383.26999,129.26625 381.40067,131.13557 C 379.65126,132.88499 382.68576,158.99224 384.80656,160.4381 C 386.08941,161.31269 383.63087,182.5054 382.06488,184.07138 C 380.3587,185.77754 379.41658,182.34089 380.92731,179.92184 C 381.85509,178.43624 382.73868,174.58568 382.89087,171.36506 C 383.27483,163.23946 383.07161,161.75936 381.57195,161.75936 C 380.37426,161.75936 378.91218,174.38285 377.36691,180.41089 C 371.79819,190.41551 373.87957,182.21117 375.95646,177.13436 C 379.04715,163.41518 379.94798,153.78641 379.04361,144.13558 C 379.57653,137.90072 375.59573,133.36122 375.37689,127.50935 C 375.37689,120.07688 372.91025,120.31164 368.77666,124.19493 C 365.55883,126.39877 364.19195,124.23332 362.04141,122.6438 C 357.61199,121.28446 359.2418,113.21156 362.66241,109.42761 C 368.31747,98.777811 368.8709,94.20954 366.23831,79.909842 C 363.96882,67.582456 360.95495,64.144246 358.10757,70.634353 C 357.29319,72.490603 355.10813,74.22505 353.25187,74.48868 C 351.08294,74.796718 349.87687,76.002781 349.87687,77.86368 C 349.87687,80.081095 348.82283,80.759353 345.37687,80.759353 L 340.87687,80.759353 L 340.87687,67.259353 C 340.87687,55.259353 340.57688,53.759353 338.17687,53.759353 C 332.44909,53.759353 330.05437,47.867569 334.12687,43.795068 C 337.52837,40.393573 336.88902,38.820259 331.12687,36.412683 C 323.21097,33.105207 324.15037,29.293984 334.03398,24.618285 C 344.61991,19.610343 361.94751,19.162485 370.56165,23.674173 C 377.90438,27.519954 406.84896,57.367986 410.6457,65.009353 C 412.28535,68.309353 415.72208,74.41212 418.28285,78.571059 C 428.82222,95.687971 430.68063,105.00464 423.75189,105.98868 C 421.18467,106.35328 420.37689,105.725 420.37689,103.36368 C 420.37689,101.18939 419.41291,100.25935 417.15933,100.25935 C 414.07349,100.25935 413.98257,100.70448 414.93845,111.13435 C 415.48662,117.1156 416.59967,139.55936 417.41184,161.00936 C 418.22405,182.45936 419.53887,204.73436 420.33366,210.50936 C 422.70084,227.7094 422.39183,232.25936 418.85652,232.25936 C 417.19533,232.25936 414.66408,231.63364 413.23152,230.86886 C 411.79896,230.10409 409.38156,229.08818 407.85948,228.61129 C 406.33739,228.13441 404.73271,226.37003 404.2935,224.69045 C 403.24593,220.68458 400.26795,221.75645 399.60816,226.37686 C 396.84985,236.98081 392.55726,247.28647 390.37689,258.12739 C 390.37689,266.36773 390.97904,268.55048 394.50189,273.07984 C 396.77062,275.99681 400.82063,279.82421 403.50189,281.58518 C 406.18314,283.34615 408.37689,285.45574 408.37689,286.27315 C 408.37689,287.79082 402.44741,288.0023 397.21994,286.67107 z M 397.87143,281.36845 C 397.30095,279.5122 390.29863,270.85793 388.82461,269.45063 C 386.79599,267.5138 386.33938,265.43948 386.94609,260.91623 C 393.57864,238.82567 377.73406,238.42609 375.75189,242.97688 C 373.03593,248.18917 365.64679,253.91326 359.52297,255.42989 C 353.41734,256.57531 353.02671,258.30554 358.12027,261.64297 C 362.60213,264.57959 371.92687,263.39284 374.87976,259.51001 C 376.53381,257.33503 376.80015,257.69308 376.92482,262.25936 C 377.04243,266.56748 378.28035,268.51852 383.82498,273.13436 C 391.58708,279.59623 399.3596,286.21088 397.87143,281.36845 z M 424.87689,99.633711 C 424.87689,94.851595 419.96004,83.525635 416.71482,80.83233 C 415.30025,79.658335 412.41688,75.280396 410.30734,71.103574 C 406.35059,63.269355 400.8216,55.339678 400.94916,57.682065 C 400.98891,58.412074 404.2013,67.784353 408.0878,78.509353 C 414.48672,96.167569 415.47163,97.965028 418.51553,97.540066 C 421.06269,97.184449 421.87689,97.82028 421.87689,100.16507 C 421.87689,101.86692 422.55187,103.25935 423.37689,103.25935 C 424.20189,103.25935 424.87689,101.62781 424.87689,99.633711 z M 354.37687,38.759353 C 354.37687,37.934353 353.70188,37.259353 352.87687,37.259353 C 352.05187,37.259353 351.37687,37.934353 351.37687,38.759353 C 351.37687,39.584353 352.05187,40.259353 352.87687,40.259353 C 353.70188,40.259353 354.37687,39.584353 354.37687,38.759353 z M 389.44134,218.06672 C 388.97857,216.86077 389.6569,213.75532 390.94876,211.16573 C 392.24063,208.57613 393.75543,204.01694 394.31499,201.03416 C 394.87458,198.0514 396.65763,192.61507 398.27735,188.95342 C 400.93315,182.94952 401.15489,179.77831 400.53572,156.65263 C 400.15809,142.54883 400.11178,136.06949 400.43276,142.25411 C 400.75376,148.43873 401.66001,154.14248 402.44663,154.92911 C 406.35707,158.83954 402.82325,192.81511 397.13376,206.00936 C 396.06653,208.48436 394.731,212.70311 394.16592,215.38436 C 393.08596,220.50874 390.86279,221.77094 389.44134,218.06672 z M 388.27359,133.63436 C 386.71307,117.05065 386.04235,105.25012 386.88817,109.25935 C 387.32333,111.32185 388.19955,113.34685 388.83537,113.75935 C 390.63224,114.92509 392.41635,143.75936 390.6916,143.75936 C 389.88574,143.75936 388.79763,139.20311 388.27359,133.63436 z M 405.37689,120.00935 C 405.37689,117.39685 404.795,115.25935 404.08377,115.25935 C 403.37257,115.25935 402.3247,110.11727 401.75522,103.83251 C 400.83727,93.702666 399.52719,90.025104 390.21315,71.432506 C 383.35553,57.743352 379.86639,49.078828 380.16674,46.484352 C 380.5462,43.206237 381.74453,44.804976 387.00189,55.60351 C 389.82885,62.377218 392.56103,68.660607 396.8254,74.384353 C 397.26453,75.828103 398.95343,80.500759 400.57851,84.768033 C 403.53684,92.536309 407.83454,122.30171 406.22952,123.90671 C 405.76059,124.37567 405.37689,122.62185 405.37689,120.00935 z M 366.85496,115.07185 C 367.32416,113.93748 369.26477,108.12192 371.16746,102.14839 C 374.32004,92.250829 376.87689,88.251147 376.87689,93.217173 C 376.87689,97.416277 369.80147,115.86783 367.9553,116.48322 C 366.76329,116.88055 366.33441,116.33043 366.85496,115.07185 z M 383.24426,98.382093 C 382.34384,96.527086 380.50277,89.946853 379.15299,83.759353 C 377.80322,77.571853 376.01713,71.262373 375.18394,69.738285 C 374.35074,68.214198 374.05327,66.582948 374.52296,66.113286 C 375.96234,64.673907 377.08167,66.738652 378.5369,73.517557 C 379.3034,77.088045 380.5541,81.359353 381.31623,83.009353 C 382.8012,86.224269 385.92464,100.71161 385.27321,101.36302 C 385.05773,101.57852 384.1447,100.2371 383.24426,98.382093 z"
         id="path3534"
         style="fill:#000000;fill-opacity:1" />
    </g>
    <g
       id="g3555">
      <path
         d="M 62.5625,327.625 C 55.830594,327.799 48.855465,329.18353 43.5625,331.6875 C 33.67889,336.3632 32.740348,340.16127 40.65625,343.46875 C 46.4184,345.87632 47.057748,347.44225 43.65625,350.84375 C 39.58375,354.91625 41.959719,360.81249 47.6875,360.8125 C 50.08751,360.8125 50.406248,362.31249 50.40625,374.3125 L 50.40625,387.8125 L 54.90625,387.8125 C 58.35221,387.8125 59.406248,387.12367 59.40625,384.90625 C 59.40625,383.04535 60.612318,381.83929 62.78125,381.53125 C 64.63751,381.26762 66.810617,379.54374 67.625,377.6875 C 70.47236,371.19739 73.480522,374.64135 75.75,386.96875 C 78.38259,401.26844 77.842552,405.81894 72.1875,416.46875 L 69.875,426.03125 L 71.5625,429.6875 L 76.25,431.125 L 79.5,429.9375 C 83.61698,426.0698 84.906252,427.13043 84.90625,434.4375 C 84.90625,437.53125 87.528384,440.31156 88.46875,440.625 C 93.20342,457.62379 88.781233,476.36423 82.9375,491.78125 C 82.9375,492.50069 82.407248,493.27052 81.6875,494 C 84.311075,497.41292 86.975777,500.74379 89.6875,504 C 91.887059,503.44429 92.955282,504.46211 93.0625,507.96875 C 101.67161,518.00833 110.64264,527.4087 119.75,536.5625 C 120.83829,537.00907 121.94888,537.50982 122.75,537.9375 C 124.18256,538.70228 126.71382,539.31249 128.375,539.3125 C 131.91029,539.3125 132.21094,534.76253 129.84375,517.5625 C 129.04897,511.7875 127.74971,489.51249 126.9375,468.0625 C 126.12531,446.6125 125.01692,424.16874 124.46875,418.1875 C 123.51285,407.75763 123.60166,407.31249 126.6875,407.3125 C 128.9411,407.3125 129.90625,408.23196 129.90625,410.40625 C 129.90625,412.76758 130.71404,413.39585 133.28125,413.03125 C 140.20999,412.04722 138.35187,402.74192 127.8125,385.625 C 125.25173,381.46606 121.7959,375.36249 120.15625,372.0625 C 116.35951,364.42113 87.436473,334.56454 80.09375,330.71875 C 75.78668,328.4629 69.294406,327.451 62.5625,327.625 z"
         id="path3538"
         style="fill:#bababa" />
      <path
         d="M 62.5625,327.625 C 55.830591,327.799 48.855465,329.18352 43.5625,331.6875 C 33.67889,336.36319 32.740348,340.16127 40.65625,343.46875 C 46.4184,345.87633 47.057748,347.44224 43.65625,350.84375 C 39.58375,354.91625 41.959719,360.81251 47.6875,360.8125 C 50.08751,360.8125 50.406248,362.31251 50.40625,374.3125 L 50.40625,387.8125 L 54.90625,387.8125 C 58.35221,387.8125 59.406248,387.12367 59.40625,384.90625 C 59.40625,383.04535 60.612318,381.83929 62.78125,381.53125 C 64.63751,381.26762 66.810617,379.54376 67.625,377.6875 C 70.47238,371.1974 73.480509,374.64138 75.75,386.96875 C 78.38259,401.26845 77.842557,405.81894 72.1875,416.46875 C 68.76689,420.2527 67.133079,428.32816 71.5625,429.6875 C 73.71304,431.27702 75.063416,433.45385 78.28125,431.25 C 82.41484,427.36671 84.906249,427.13004 84.90625,434.5625 C 85.12509,440.41437 89.095422,444.95263 88.5625,451.1875 C 89.46687,460.83833 88.559442,470.46831 85.46875,484.1875 C 85.059272,485.18844 84.663663,486.29444 84.3125,487.375 C 83.789421,488.53701 83.224114,489.86277 82.5625,491.40625 C 82.5625,492.19204 82.01637,493.1176 81.28125,494 C 81.953838,494.86121 82.634012,495.71178 83.3125,496.5625 C 83.512858,496.11459 83.738169,495.62741 84.03125,495.0625 C 84.568818,493.84351 85.445569,491.22163 86.25,488.5625 C 86.45473,488.20943 86.644628,487.88263 86.875,487.46875 C 88.42027,481.44071 89.896058,468.81249 91.09375,468.8125 C 92.59341,468.8125 92.790212,470.28065 92.40625,478.40625 C 92.25406,481.62687 91.365276,485.48314 90.4375,486.96875 C 88.92677,489.3878 89.887571,492.83115 91.59375,491.125 C 93.15974,489.55902 95.595347,468.37461 94.3125,467.5 C 92.1917,466.05414 89.156838,439.93693 90.90625,438.1875 C 92.77557,436.31818 92.845901,431.31249 91,431.3125 C 90.2355,431.3125 89.371489,432.49374 89.0625,433.9375 C 88.7535,435.38125 88.01117,433.01874 87.40625,428.6875 C 86.80133,424.35624 85.677913,420.81251 84.9375,420.8125 C 84.19709,420.8125 82.168589,422.83751 80.40625,425.3125 C 76.81421,430.35705 76.212924,430.54564 72.53125,427.75 C 70.0977,425.90209 70.234382,425.22971 74.3125,417.65625 C 77.64016,411.47649 78.910393,406.62795 79.71875,397.1875 C 80.13202,389.48955 79.109788,382.98595 75.28125,376.5625 C 74.76359,374.5 73.796382,372.81251 73.125,372.8125 C 70.57798,372.8125 72.49843,366.64243 76.28125,362.6875 C 80.81246,357.95015 82.371179,346.24954 79,342.1875 C 76.88266,339.63626 70.470902,338.94484 69.65625,341.1875 C 69.14582,342.59278 57.292838,340.09778 53.78125,337.84375 C 51.7223,336.52215 48.906248,337.69455 48.90625,339.875 C 48.90625,340.63559 50.426162,341.65157 52.3125,342.125 C 54.19886,342.59844 56.392602,344.47021 57.1875,346.28125 C 59.19102,350.84583 65.835663,351.38308 69.90625,347.3125 C 74.16982,343.04892 77.406249,345.66219 77.40625,353.375 C 77.40625,357.93136 76.425414,359.84332 72.5625,363.09375 C 66.67121,368.05093 65.18495,365.65881 70.71875,360.125 C 75.01211,355.83166 74.638431,352.82876 70.28125,356.625 C 68.83245,357.88729 66.812502,358.62359 65.78125,358.25 C 63.41202,357.39168 63.165083,367.00883 65.5,369.34375 C 66.3895,370.23325 66.895753,372.88074 66.625,375.25 C 66.2665,378.3871 65.239098,379.68218 62.78125,380.03125 C 59.58659,380.48496 59.389531,379.96401 59.125,370.28125 L 58.84375,360.0625 L 58,372.8125 C 57.30056,383.34725 56.702698,385.6178 54.53125,386.03125 C 52.19955,386.47521 51.906248,385.12286 51.90625,373.90625 C 51.90625,363.18373 52.358828,360.8679 54.90625,358.5625 C 58.20342,355.5786 59.040048,349.69819 56.03125,350.65625 C 55,350.98462 53.495079,352.71294 52.6875,354.5 C 50.78495,358.71012 48.065322,359.68323 45.8125,356.96875 C 44.34711,355.20307 44.617269,354.81251 47.21875,354.8125 C 54.11433,354.8125 49.780771,345.00449 40.78125,340.21875 C 38.05698,338.77004 38.091601,338.56922 41.53125,336.40625 C 43.51463,335.15904 46.749999,332.38623 49.84375,331.84375 C 67.03447,327.9722 69.165527,329.04543 79.3125,333.625 C 89.18743,338.94355 97.615758,349.95915 104.125,358.59375 C 108.59354,367.16546 111.39266,373.60614 112.78125,382.0625 C 114.91494,388.12278 117.33167,395.76251 118.15625,399.0625 C 120.68819,409.1954 123.66386,445.93369 123.78125,468.4375 C 123.84254,480.18622 124.9517,499.97823 126.25,512.4375 C 127.54828,524.89674 128.21825,535.46927 127.75,535.9375 C 124.02425,535.24879 120.77481,531.89838 117.15625,530.34375 C 116.03188,528.52452 119.02437,511.11351 121.125,507.25 C 122.17,505.32799 122.12755,503.97129 121.03125,502.875 C 120.15227,501.99601 119.2464,501.54873 119,501.90625 C 117.71925,503.76439 111.90625,516.5472 111.90625,517.5 C 111.90625,518.19239 110.79638,521.03145 108.875,525.5 C 112.47123,529.2406 116.10167,532.91452 119.75,536.5625 C 120.83828,537.00906 121.94888,537.50982 122.75,537.9375 C 124.18256,538.70228 126.71382,539.31249 128.375,539.3125 C 131.91031,539.3125 132.21093,534.76253 129.84375,517.5625 C 129.04896,511.7875 127.74971,489.51249 126.9375,468.0625 C 126.12533,446.6125 125.01692,424.16876 124.46875,418.1875 C 123.51287,407.75763 123.60166,407.31251 126.6875,407.3125 C 128.94108,407.3125 129.90626,408.23196 129.90625,410.40625 C 129.90625,412.76757 130.71404,413.39585 133.28125,413.03125 C 140.20999,412.04721 138.35187,402.74192 127.8125,385.625 C 125.25173,381.46606 121.7959,375.36251 120.15625,372.0625 C 116.35951,364.42114 87.436478,334.56453 80.09375,330.71875 C 75.78668,328.46291 69.294409,327.451 62.5625,327.625 z M 62.40625,344.3125 C 63.23126,344.3125 63.906248,344.98751 63.90625,345.8125 C 63.90625,346.6375 63.231258,347.31251 62.40625,347.3125 C 61.58125,347.3125 60.906248,346.63751 60.90625,345.8125 C 60.90625,344.9875 61.581248,344.31251 62.40625,344.3125 z M 90.375,352.03125 C 89.997601,351.97122 89.806081,352.50684 89.6875,353.53125 C 89.38715,356.12573 92.861131,364.81085 99.71875,378.5 C 109.03279,397.09259 110.3633,400.74515 111.28125,410.875 C 111.85073,417.15976 112.88255,422.31251 113.59375,422.3125 C 114.30498,422.3125 114.90625,424.45001 114.90625,427.0625 C 114.90625,429.675 115.28107,431.43771 115.75,430.96875 C 117.35502,429.36375 113.05208,399.58077 110.09375,391.8125 C 108.46867,387.54523 106.78288,382.88126 106.34375,381.4375 C 102.07938,375.71376 99.358209,369.42995 96.53125,362.65625 C 92.916815,355.23226 91.205277,352.16331 90.375,352.03125 z M 110.65625,364.3125 C 111.68317,364.36818 116.35034,371.30131 119.8125,378.15625 C 121.92204,382.33308 124.80418,386.701 126.21875,387.875 C 129.46397,390.56831 134.40626,401.9054 134.40625,406.6875 C 134.40625,408.6816 133.73126,410.31251 132.90625,410.3125 C 132.08123,410.3125 131.40626,408.9206 131.40625,407.21875 C 131.40625,404.87396 130.57842,404.23813 128.03125,404.59375 C 124.98735,405.01871 123.99267,403.22073 117.59375,385.5625 C 113.70725,374.8375 110.5085,365.48 110.46875,364.75 C 110.4528,364.4572 110.50955,364.30455 110.65625,364.3125 z M 84.8125,372.75 C 84.560796,372.76552 84.301133,372.88637 84.03125,373.15625 C 83.56156,373.62591 83.854296,375.25716 84.6875,376.78125 C 85.52069,378.30533 87.306479,384.62501 88.65625,390.8125 C 90.00603,397 91.849578,403.5825 92.75,405.4375 C 93.65044,407.29251 94.565773,408.62176 94.78125,408.40625 C 95.43268,407.75484 92.32872,393.27743 90.84375,390.0625 C 90.08162,388.4125 88.828998,384.133 88.0625,380.5625 C 86.880126,375.05464 85.903217,372.68273 84.8125,372.75 z M 85.71875,398.15625 C 84.751771,398.38859 82.854901,402.41418 80.6875,409.21875 C 78.78481,415.19228 76.844204,420.99064 76.375,422.125 C 75.85445,423.38358 76.276742,423.92858 77.46875,423.53125 C 79.31492,422.91586 86.406249,404.48036 86.40625,400.28125 C 86.40625,398.72937 86.158286,398.05064 85.71875,398.15625 z M 96.15625,415.53125 C 95.739332,415.3308 96.415796,426.17674 97.78125,440.6875 C 98.30529,446.25625 99.412887,450.81249 100.21875,450.8125 C 101.9435,450.8125 100.14062,421.97825 98.34375,420.8125 C 97.70793,420.4 96.841413,418.37501 96.40625,416.3125 C 96.300522,415.81135 96.21581,415.55989 96.15625,415.53125 z M 109.78125,446.96875 C 109.67656,446.84304 109.77928,453.1409 110.0625,463.71875 C 110.68167,486.84443 110.43705,489.99608 107.78125,496 C 106.16153,499.66165 104.40334,505.111 103.84375,508.09375 C 103.35636,510.69184 102.15827,514.47823 101,517.125 C 102.04887,518.26388 103.09995,519.40558 104.15625,520.53125 C 104.82215,518.02019 105.81485,515.01378 106.65625,513.0625 C 112.34574,499.86825 115.87919,465.91043 111.96875,462 C 111.18213,461.21337 110.2585,455.49711 109.9375,449.3125 C 109.85725,447.76635 109.81615,447.01065 109.78125,446.96875 z M 95.65625,490.5625 L 92.71875,495.8125 C 90.825096,499.20439 89.091377,501.04607 87.25,501.4375 C 87.982683,502.32177 88.730235,503.1886 89.46875,504.0625 C 91.878941,503.36525 93.004889,504.41725 93.0625,508.28125 C 93.71768,509.03369 94.372178,509.78573 95.03125,510.53125 L 95.65625,490.5625 z"
         id="path3540"
         style="fill:#000000;fill-opacity:1" />
    </g>
    <g
       transform="matrix(-1,0,0,1,601.02779,307.04857)"
       id="g3542"
       style="display:inline">
      <path
         d="M 397.21992,286.67107 C 392.14191,285.37792 378.58965,274.1725 376.57089,269.59784 C 374.74695,265.46462 374.23667,265.2509 368.30944,266.13763 C 359.64804,267.43339 348.37687,262.19602 348.37687,256.87555 C 348.37687,253.95206 349.14817,253.25936 352.4033,253.25936 C 360.20376,253.25936 368.32314,247.78381 373.3638,239.12399 C 379.00508,229.43236 380.65197,224.39893 382.65517,210.72673 C 384.38331,198.93191 383.72166,195.78905 379.7742,197.04194 C 377.53653,197.75216 369.25013,194.78935 366.46737,192.28409 C 366.10464,191.95753 367.28589,190.65509 369.09237,189.38981 C 370.89885,188.12449 373.40539,186.33854 373.40539,184.73533 C 379.24912,169.31831 383.69133,150.57806 378.95666,133.57927 C 378.01629,133.26582 375.37687,130.47811 375.37687,127.38436 C 375.37687,120.0773 374.10914,119.01822 369.99216,122.88592 L 366.72837,124.07639 L 362.0414,122.64381 L 360.34644,118.96719 L 362.6624,109.42761 C 368.31745,98.777814 368.87088,94.209543 366.23829,79.909845 C 363.96881,67.582459 360.95493,64.144249 358.10757,70.634356 C 357.29319,72.490606 355.10813,74.225053 353.25187,74.488683 C 351.08294,74.796721 349.87687,76.002784 349.87687,77.863683 C 349.87687,80.081098 348.82283,80.759356 345.37687,80.759356 L 340.87687,80.759356 L 340.87687,67.259356 C 340.87687,55.259356 340.57688,53.759356 338.17687,53.759356 C 332.44909,53.759356 330.05437,47.867572 334.12687,43.795071 C 337.52837,40.393576 336.88902,38.820262 331.12687,36.412686 C 323.21097,33.10521 324.15037,29.293987 334.03398,24.618288 C 344.61991,19.610346 361.9475,19.162488 370.56164,23.674176 C 377.90436,27.519957 406.84895,57.367989 410.64569,65.009356 C 412.28534,68.309356 415.72206,74.412123 418.28283,78.571062 C 428.8222,95.687974 430.68061,105.00465 423.75187,105.98868 C 421.18466,106.35328 420.37687,105.72501 420.37687,103.36368 C 420.37687,101.18939 419.41291,100.25936 417.15931,100.25936 C 414.07347,100.25936 413.98255,100.70449 414.93845,111.13436 C 415.48662,117.11561 416.59965,139.55936 417.41184,161.00936 C 418.22405,182.45936 419.53886,204.73436 420.33364,210.50936 C 422.70083,227.7094 422.39181,232.25936 418.85652,232.25936 C 417.19533,232.25936 414.66408,231.63364 413.23152,230.86886 C 411.79896,230.10409 409.38155,229.08817 407.85947,228.61129 C 406.33739,228.13441 404.7327,226.37003 404.29349,224.69045 C 403.24592,220.68458 400.26795,221.75645 399.60814,226.37686 C 399.32285,228.37474 398.41851,230.82653 397.5985,231.82529 C 393.31752,243.11147 390.53553,247.93153 390.37687,258.12739 C 390.37687,266.36773 390.97904,268.55048 394.50187,273.07984 C 396.77062,275.99681 400.82063,279.82421 403.50187,281.58518 C 406.18313,283.34615 408.37687,285.45574 408.37687,286.27315 C 408.37687,287.79082 402.44741,288.0023 397.21992,286.67107 z"
         id="path3544"
         style="fill:#bababa" />
      <path
         d="M 397.21994,286.67107 C 392.14193,285.37792 378.58967,274.1725 376.5709,269.59784 C 374.74696,265.46462 374.23668,265.2509 368.30946,266.13763 C 359.64805,267.43339 348.37687,262.19602 348.37687,256.87555 C 348.37687,253.95208 349.14817,253.25936 352.4033,253.25936 C 360.20378,253.25936 368.32314,247.78381 373.36381,239.12399 C 379.00509,229.43236 380.65199,224.39893 382.65517,210.72673 C 384.38333,198.93191 383.72168,195.78907 379.77422,197.04194 C 377.53654,197.75216 369.25014,194.78936 366.46738,192.28409 C 366.10465,191.95754 367.28591,190.65511 369.09238,189.38981 C 370.89887,188.1245 373.0314,185.96453 373.0314,184.36132 C 383.08262,160.91287 376.44322,183.60524 374.50494,188.00047 C 372.72375,191.43368 372.66498,192.52078 374.2067,193.51603 C 377.48338,195.63128 380.16174,194.21593 383.20808,188.75936 L 386.13909,183.50936 L 385.4514,205.19489 C 384.94515,213.69448 385.68261,225.41719 381.36402,233.02487 C 379.94454,234.73523 380.43831,235.88617 383.85082,238.82152 C 391.15208,245.73635 392.80565,233.58058 395.23149,227.75936 C 399.95456,217.4066 402.37689,211.53761 402.37689,210.44696 C 402.37689,209.49413 408.19813,196.71751 409.47888,194.85937 C 409.72528,194.50186 410.64606,194.92853 411.52504,195.80752 C 412.62134,196.90382 412.64481,198.2855 411.59981,200.20751 C 409.49918,204.07103 406.51242,221.45614 407.63679,223.27537 C 411.25535,224.83 414.52086,228.20092 418.24661,228.88963 C 418.71486,228.42139 418.03571,217.84438 416.73743,205.38514 C 415.43913,192.9259 414.32676,173.11939 414.26547,161.37067 C 414.14808,138.86686 411.16695,102.14225 408.63501,92.009353 C 407.81043,88.709353 405.39003,81.050946 403.25634,74.990668 C 401.86775,66.53431 399.08622,60.113538 394.61768,51.54183 C 388.10844,42.907237 379.66527,31.882471 369.79034,26.563918 C 359.64337,21.98434 357.50759,20.92918 340.31687,24.800727 C 337.22312,25.343209 334.00412,28.116525 332.02074,29.363739 C 328.58109,31.526709 328.54647,31.70152 331.27074,33.150231 C 340.27026,37.935981 344.5888,47.759353 337.69322,47.759353 C 335.09174,47.759353 334.83749,48.154507 336.30288,49.920192 C 338.5557,52.634683 341.25601,51.662773 343.15856,47.452653 C 343.96614,45.665581 345.47062,43.934764 346.50187,43.606392 C 349.51067,42.648331 348.67404,48.525454 345.37687,51.509353 C 342.82945,53.814736 342.37687,56.129304 342.37687,66.851821 C 342.37687,78.068418 342.67017,79.423482 345.00187,78.979522 C 347.17332,78.566079 347.77298,76.279288 348.47242,65.744536 L 349.31796,53.009353 L 349.59742,63.23868 C 349.86195,72.921442 350.05721,73.442395 353.25187,72.98868 C 355.70972,72.639612 356.76065,71.338716 357.11915,68.20162 C 357.3899,65.832366 356.88365,63.166116 355.99415,62.27662 C 353.65923,59.941702 353.88264,50.330302 356.25187,51.188622 C 357.28312,51.562219 359.31227,50.835108 360.76107,49.572817 C 365.11825,45.776583 365.50261,48.769987 361.20925,53.063331 C 355.67545,58.597141 357.16752,61.003993 363.05881,56.04681 C 366.92172,52.796389 367.87689,50.866042 367.87689,46.30968 C 367.87689,38.596858 364.64997,35.986273 360.3864,40.249851 C 356.31581,44.320429 349.6851,43.781158 347.68158,39.216577 C 346.88668,37.405552 344.69294,35.536441 342.80658,35.062999 C 340.92024,34.589559 339.37687,33.579894 339.37687,32.819301 C 339.37687,30.63886 342.19292,29.464225 344.25187,30.785829 C 347.76346,33.039855 359.61644,35.541111 360.12687,34.135834 C 360.94152,31.893175 367.3505,32.567703 369.46784,35.118943 C 372.83902,39.180972 371.29485,50.894368 366.76364,55.631718 C 362.98082,59.586648 361.05198,65.759353 363.599,65.759353 C 364.27038,65.759353 365.24327,67.446853 365.76093,69.509353 C 369.58947,75.932787 370.6179,82.436401 370.20463,90.134353 C 369.39627,99.574789 368.11062,104.43033 364.78296,110.61009 C 360.70484,118.18354 360.59034,118.83947 363.02389,120.68738 C 366.70556,123.48302 367.28485,123.3039 370.87689,118.25935 C 372.63923,115.78435 374.68696,113.75935 375.42737,113.75935 C 376.16778,113.75935 377.2685,117.3031 377.87342,121.63436 C 378.47834,125.96561 379.22607,128.32811 379.53507,126.88436 C 379.84406,125.44061 380.72237,124.25936 381.48687,124.25936 C 383.33277,124.25936 383.26999,129.26625 381.40067,131.13557 C 379.65126,132.88499 382.68576,158.99224 384.80656,160.4381 C 386.08941,161.31269 383.63087,182.5054 382.06488,184.07138 C 380.3587,185.77754 379.41658,182.34089 380.92731,179.92184 C 381.85509,178.43624 382.73868,174.58568 382.89087,171.36506 C 383.27483,163.23946 383.07161,161.75936 381.57195,161.75936 C 380.37426,161.75936 378.91218,174.38285 377.36691,180.41089 C 371.79819,190.41551 373.87957,182.21117 375.95646,177.13436 C 379.04715,163.41518 379.94798,153.78641 379.04361,144.13558 C 379.57653,137.90072 375.59573,133.36122 375.37689,127.50935 C 375.37689,120.07688 372.91025,120.31164 368.77666,124.19493 C 365.55883,126.39877 364.19195,124.23332 362.04141,122.6438 C 357.61199,121.28446 359.2418,113.21156 362.66241,109.42761 C 368.31747,98.777811 368.8709,94.20954 366.23831,79.909842 C 363.96882,67.582456 360.95495,64.144246 358.10757,70.634353 C 357.29319,72.490603 355.10813,74.22505 353.25187,74.48868 C 351.08294,74.796718 349.87687,76.002781 349.87687,77.86368 C 349.87687,80.081095 348.82283,80.759353 345.37687,80.759353 L 340.87687,80.759353 L 340.87687,67.259353 C 340.87687,55.259353 340.57688,53.759353 338.17687,53.759353 C 332.44909,53.759353 330.05437,47.867569 334.12687,43.795068 C 337.52837,40.393573 336.88902,38.820259 331.12687,36.412683 C 323.21097,33.105207 324.15037,29.293984 334.03398,24.618285 C 344.61991,19.610343 361.94751,19.162485 370.56165,23.674173 C 377.90438,27.519954 406.84896,57.367986 410.6457,65.009353 C 412.28535,68.309353 415.72208,74.41212 418.28285,78.571059 C 428.82222,95.687971 430.68063,105.00464 423.75189,105.98868 C 421.18467,106.35328 420.37689,105.725 420.37689,103.36368 C 420.37689,101.18939 419.41291,100.25935 417.15933,100.25935 C 414.07349,100.25935 413.98257,100.70448 414.93845,111.13435 C 415.48662,117.1156 416.59967,139.55936 417.41184,161.00936 C 418.22405,182.45936 419.53887,204.73436 420.33366,210.50936 C 422.70084,227.7094 422.39183,232.25936 418.85652,232.25936 C 417.19533,232.25936 414.66408,231.63364 413.23152,230.86886 C 411.79896,230.10409 409.38156,229.08818 407.85948,228.61129 C 406.33739,228.13441 404.73271,226.37003 404.2935,224.69045 C 403.24593,220.68458 400.26795,221.75645 399.60816,226.37686 C 396.84985,236.98081 392.55726,247.28647 390.37689,258.12739 C 390.37689,266.36773 390.97904,268.55048 394.50189,273.07984 C 396.77062,275.99681 400.82063,279.82421 403.50189,281.58518 C 406.18314,283.34615 408.37689,285.45574 408.37689,286.27315 C 408.37689,287.79082 402.44741,288.0023 397.21994,286.67107 z M 397.87143,281.36845 C 397.30095,279.5122 390.29863,270.85793 388.82461,269.45063 C 386.79599,267.5138 386.33938,265.43948 386.94609,260.91623 C 393.57864,238.82567 377.73406,238.42609 375.75189,242.97688 C 373.03593,248.18917 365.64679,253.91326 359.52297,255.42989 C 353.41734,256.57531 353.02671,258.30554 358.12027,261.64297 C 362.60213,264.57959 371.92687,263.39284 374.87976,259.51001 C 376.53381,257.33503 376.80015,257.69308 376.92482,262.25936 C 377.04243,266.56748 378.28035,268.51852 383.82498,273.13436 C 391.58708,279.59623 399.3596,286.21088 397.87143,281.36845 z M 424.87689,99.633711 C 424.87689,94.851595 419.96004,83.525635 416.71482,80.83233 C 415.30025,79.658335 412.41688,75.280396 410.30734,71.103574 C 406.35059,63.269355 400.8216,55.339678 400.94916,57.682065 C 400.98891,58.412074 404.2013,67.784353 408.0878,78.509353 C 414.48672,96.167569 415.47163,97.965028 418.51553,97.540066 C 421.06269,97.184449 421.87689,97.82028 421.87689,100.16507 C 421.87689,101.86692 422.55187,103.25935 423.37689,103.25935 C 424.20189,103.25935 424.87689,101.62781 424.87689,99.633711 z M 354.37687,38.759353 C 354.37687,37.934353 353.70188,37.259353 352.87687,37.259353 C 352.05187,37.259353 351.37687,37.934353 351.37687,38.759353 C 351.37687,39.584353 352.05187,40.259353 352.87687,40.259353 C 353.70188,40.259353 354.37687,39.584353 354.37687,38.759353 z M 389.44134,218.06672 C 388.97857,216.86077 389.6569,213.75532 390.94876,211.16573 C 392.24063,208.57613 393.75543,204.01694 394.31499,201.03416 C 394.87458,198.0514 396.65763,192.61507 398.27735,188.95342 C 400.93315,182.94952 401.15489,179.77831 400.53572,156.65263 C 400.15809,142.54883 400.11178,136.06949 400.43276,142.25411 C 400.75376,148.43873 401.66001,154.14248 402.44663,154.92911 C 406.35707,158.83954 402.82325,192.81511 397.13376,206.00936 C 396.06653,208.48436 394.731,212.70311 394.16592,215.38436 C 393.08596,220.50874 390.86279,221.77094 389.44134,218.06672 z M 388.27359,133.63436 C 386.71307,117.05065 386.04235,105.25012 386.88817,109.25935 C 387.32333,111.32185 388.19955,113.34685 388.83537,113.75935 C 390.63224,114.92509 392.41635,143.75936 390.6916,143.75936 C 389.88574,143.75936 388.79763,139.20311 388.27359,133.63436 z M 405.37689,120.00935 C 405.37689,117.39685 404.795,115.25935 404.08377,115.25935 C 403.37257,115.25935 402.3247,110.11727 401.75522,103.83251 C 400.83727,93.702666 399.52719,90.025104 390.21315,71.432506 C 383.35553,57.743352 379.86639,49.078828 380.16674,46.484352 C 380.5462,43.206237 381.74453,44.804976 387.00189,55.60351 C 389.82885,62.377218 392.56103,68.660607 396.8254,74.384353 C 397.26453,75.828103 398.95343,80.500759 400.57851,84.768033 C 403.53684,92.536309 407.83454,122.30171 406.22952,123.90671 C 405.76059,124.37567 405.37689,122.62185 405.37689,120.00935 z M 366.85496,115.07185 C 367.32416,113.93748 369.26477,108.12192 371.16746,102.14839 C 374.32004,92.250829 376.87689,88.251147 376.87689,93.217173 C 376.87689,97.416277 369.80147,115.86783 367.9553,116.48322 C 366.76329,116.88055 366.33441,116.33043 366.85496,115.07185 z M 383.24426,98.382093 C 382.34384,96.527086 380.50277,89.946853 379.15299,83.759353 C 377.80322,77.571853 376.01713,71.262373 375.18394,69.738285 C 374.35074,68.214198 374.05327,66.582948 374.52296,66.113286 C 375.96234,64.673907 377.08167,66.738652 378.5369,73.517557 C 379.3034,77.088045 380.5541,81.359353 381.31623,83.009353 C 382.8012,86.224269 385.92464,100.71161 385.27321,101.36302 C 385.05773,101.57852 384.1447,100.2371 383.24426,98.382093 z"
         id="path3546"
         style="fill:#000000;fill-opacity:1" />
    </g>
  </g>
  <g
     id="layer4" />
  <g
     id="layer2">
    <path
       d="M 300.00001,658.5 C 300.00001,658.5 598.50001,546.17969 598.50001,260.72817 C 598.50001,-24.723334 598.50001,2.1764865 598.50001,2.1764865 L 1.5,2.1764865 L 1.5,260.72817 C 1.5,546.17969 300.00001,658.5 300.00001,658.5 z"
       id="path2875"
       style="opacity:1;fill:url(#radialGradient3163);fill-opacity:1;fill-rule:evenodd;stroke:none;stroke-width:1px;stroke-linecap:butt;stroke-linejoin:miter;stroke-opacity:1" />
  </g>
  <g
     id="layer1">
    <path
       d="M 299.99999,658.50028 C 299.99999,658.50028 1.5,546.17992 1.5,260.72828 C 1.5,-24.723336 1.5,2.1764957 1.5,2.1764957 L 598.49999,2.1764957 L 598.49999,260.72828 C 598.49999,546.17992 299.99999,658.50028 299.99999,658.50028 z"
       id="path1411"
       style="opacity:1;fill:none;fill-opacity:1;fill-rule:evenodd;stroke:#000000;stroke-width:3.00000048;stroke-linecap:butt;stroke-linejoin:miter;stroke-miterlimit:4;stroke-dasharray:none;stroke-opacity:1" />
  </g>
</svg>
