<?xml version="1.0" encoding="UTF-8" standalone="no"?>
<!-- Created with Inkscape (http://www.inkscape.org/) -->
<svg
   xmlns:svg="http://www.w3.org/2000/svg"
   xmlns="http://www.w3.org/2000/svg"
   xmlns:xlink="http://www.w3.org/1999/xlink"
   version="1.0"
   width="600"
   height="660"
   id="svg2">
  <desc
     id="desc4">Flag of Canton of Valais (Wallis)</desc>
  <defs
     id="defs6">
    <linearGradient
       id="linearGradient2893">
      <stop
         id="stop2895"
         style="stop-color:#ffffff;stop-opacity:0.3137255"
         offset="0" />
      <stop
         id="stop2897"
         style="stop-color:#ffffff;stop-opacity:0.25098041"
         offset="0.19" />
      <stop
         id="stop2901"
         style="stop-color:#6b6b6b;stop-opacity:0.1254902"
         offset="0.60000002" />
      <stop
         id="stop2899"
         style="stop-color:#000000;stop-opacity:0.1254902"
         offset="1" />
    </linearGradient>
    <linearGradient
       id="linearGradient2885">
      <stop
         id="stop2887"
         style="stop-color:#ffffff;stop-opacity:1"
         offset="0" />
      <stop
         id="stop2891"
         style="stop-color:#ffffff;stop-opacity:1"
         offset="0.22857143" />
      <stop
         id="stop2889"
         style="stop-color:#000000;stop-opacity:1"
         offset="1" />
    </linearGradient>
    <linearGradient
       id="linearGradient2955">
      <stop
         id="stop2867"
         style="stop-color:#fd0000;stop-opacity:1"
         offset="0" />
      <stop
         id="stop2873"
         style="stop-color:#e77275;stop-opacity:0.65882355"
         offset="0.5" />
      <stop
         id="stop2959"
         style="stop-color:#000000;stop-opacity:0.32291666"
         offset="1" />
    </linearGradient>
    <radialGradient
       cx="225.52438"
       cy="218.90099"
       r="300"
       fx="225.52438"
       fy="218.90099"
       id="radialGradient2961"
       xlink:href="#linearGradient2955"
       gradientUnits="userSpaceOnUse"
       gradientTransform="matrix(-4.167939e-4,2.182867,-1.884232,-3.599562e-4,615.5972,-289.1214)" />
    <polygon
       points="0,-1 0.58778525,0.80901699 -0.95105652,-0.30901699 0.95105652,-0.30901699 -0.58778525,0.80901699 0,-1 "
       transform="scale(53,53)"
       id="star" />
    <clipPath
       id="clip">
      <path
         d="M 0,-200 L 0,600 L 300,600 L 300,-200 L 0,-200 z"
         id="path10" />
    </clipPath>
    <radialGradient
       cx="225.52438"
       cy="218.90099"
       r="300"
       fx="225.52438"
       fy="218.90099"
       id="radialGradient1911"
       xlink:href="#linearGradient2955"
       gradientUnits="userSpaceOnUse"
       gradientTransform="matrix(-4.167939e-4,2.182867,-1.884232,-3.599562e-4,615.5972,-289.1214)" />
    <radialGradient
       cx="225.52438"
       cy="218.90099"
       r="300"
       fx="225.52438"
       fy="218.90099"
       id="radialGradient2865"
       xlink:href="#linearGradient2955"
       gradientUnits="userSpaceOnUse"
       gradientTransform="matrix(0,1.748721,-1.593162,-1.049767e-7,551.7876,-191.2898)" />
    <radialGradient
       cx="225.52438"
       cy="218.90099"
       r="300"
       fx="225.52438"
       fy="218.90099"
       id="radialGradient2871"
       xlink:href="#linearGradient2955"
       gradientUnits="userSpaceOnUse"
       gradientTransform="matrix(0,1.386237,-1.323286,-5.741131e-8,-158.0823,-109.5408)" />
    <radialGradient
       cx="221.44487"
       cy="226.33101"
       r="300"
       fx="221.44487"
       fy="226.33101"
       id="radialGradient3163"
       xlink:href="#linearGradient2893"
       gradientUnits="userSpaceOnUse"
       gradientTransform="matrix(1.353218,0,0,1.348928,-77.62935,-85.74693)" />
  </defs>
  <g
     id="layer3"
     style="display:inline">
    <path
       d="M 299.38462,658.54498 C 299.38462,658.54498 597.88463,546.22467 597.88463,260.77315 C 597.88463,-24.678377 597.88463,2.2214629 597.88463,2.2214629 L 0.88462171,2.2214629 L 0.88462171,260.77315 C 0.88462171,546.22467 299.38462,658.54498 299.38462,658.54498 z"
       id="path2855"
       style="fill:#ffffff;fill-opacity:1;fill-rule:evenodd;stroke:none;stroke-width:1px;stroke-linecap:butt;stroke-linejoin:miter;stroke-opacity:1" />
    <path
       d="M 1.5757851,2.0398779 C 299.87889,2.0398779 299.58338,1.4200074 299.58338,1.4200074 L 300.48994,300.2439 C 300.48994,300.2439 3.4470846,301.37728 3.4470846,301.37728 C -0.7845603,250.50576 1.2637563,104.33088 1.5757851,2.0398779 z"
       id="path3953"
       style="fill:#bababa;fill-rule:evenodd;stroke:#000000;stroke-width:2.5;stroke-linecap:butt;stroke-linejoin:miter;stroke-miterlimit:4;stroke-dasharray:none;stroke-opacity:1" />
    <path
       d="M 598.07421,2.1032359 C 446.21471,2.2699893 300.04416,1.3106234 300.04416,1.3106234 L 300.33672,299.77257 C 300.33672,299.77257 597.15293,300.90595 597.15293,300.90595 C 601.38458,250.03443 598.38624,104.39424 598.07421,2.1032359 z"
       id="path3979"
       style="fill:#bababa;fill-rule:evenodd;stroke:#000000;stroke-width:2.5;stroke-linecap:butt;stroke-linejoin:miter;stroke-miterlimit:4;stroke-dasharray:none;stroke-opacity:1;display:inline" />
    <path
       d="M 3.0901914,301.5378 C 299.74856,299.99271 300.52111,299.99271 300.52111,299.99271 L 300.52111,657.68236 C 217.06467,620.50388 23.863565,518.9357 3.0901914,301.5378 z"
       id="path3985"
       style="opacity:1;fill:#bababa;fill-rule:evenodd;stroke:#000000;stroke-width:2.5;stroke-linecap:butt;stroke-linejoin:miter;stroke-miterlimit:4;stroke-dasharray:none;stroke-opacity:1" />
    <path
       d="M 597.14537,301.97129 C 300.487,300.4262 299.71445,300.4262 299.71445,300.4262 L 299.71445,658.11585 C 383.17089,620.93737 576.372,519.36919 597.14537,301.97129 z"
       id="path3987"
       style="opacity:1;fill:#bababa;fill-rule:evenodd;stroke:#000000;stroke-width:2.5;stroke-linecap:butt;stroke-linejoin:miter;stroke-miterlimit:4;stroke-dasharray:none;stroke-opacity:1;display:inline" />
    <path
       d="M 100.46122,167.01028 C 67.207218,167.01028 35.656568,181.72228 14.281218,207.19678 L 14.281218,88.823776 C 35.656568,114.29828 67.207218,129.01028 100.46122,129.01028 L 130.31122,129.01028 L 130.31122,99.160276 C 130.31122,65.906266 115.59922,34.355626 90.124718,12.980276 L 208.49772,12.980276 C 183.02322,34.355626 168.31122,65.906266 168.31122,99.160276 L 168.31122,129.01028 L 198.11122,129.01028 C 231.36522,129.01028 262.91572,114.29828 284.29122,88.823776 L 284.29122,207.19678 C 262.91572,181.72228 231.36522,167.01028 198.11122,167.01028 L 168.31122,167.01028 L 168.31122,196.81028 C 168.31122,230.06428 183.02322,261.61478 208.49772,282.99028 L 90.124718,282.99028 C 115.59922,261.61478 130.31122,230.06428 130.31122,196.81028 L 130.31122,167.01028 L 100.46122,167.01028 z"
       id="path2809"
       style="fill:#e20909;stroke:none" />
    <path
       d="M 388.6875,317.71875 C 414.162,339.0941 428.875,370.65223 428.875,403.90625 L 428.875,433.75 L 399.03125,433.75 C 365.77725,433.75 334.2191,419.03701 312.84375,393.5625 L 312.84375,511.9375 C 334.2191,486.463 365.77726,471.75 399.03125,471.75 L 428.875,471.75 L 428.875,501.5625 C 428.875,534.8165 414.162,566.34324 388.6875,587.71875 L 422.65625,587.71875 C 443.5139,570.61869 458.81901,557.43261 474.625,542.5 C 469.57805,529.59295 466.875,515.74687 466.875,501.5625 L 466.875,471.75 L 496.6875,471.75 C 508.09523,471.75 519.30396,473.47801 529.96875,476.78125 C 544.77392,454.68059 556.8224,432.82228 568.125,408.125 C 548.15654,424.54415 522.96063,433.75 496.6875,433.75 L 466.875,433.75 L 466.875,403.90625 C 466.875,370.65224 481.58801,339.09411 507.0625,317.71875 L 388.6875,317.71875 z"
       id="path2819"
       style="fill:#e20909;stroke:none;display:inline" />
    <g
       id="g2715">
      <path
         d="M 442.76639,29.647371 C 439.54974,29.401258 438.99866,28.972805 438.72998,31.998066 C 438.07383,35.864249 439.61952,41.014145 439.77943,44.89925 C 439.33031,45.188437 435.99478,46.275587 432.62067,46.735408 C 429.91851,47.103656 433.39926,47.031684 428.0332,47.158809 C 422.9188,47.27996 428.40299,47.987359 423.44861,47.317447 C 420.06395,46.859787 422.99211,47.104829 420.34415,47.101666 C 413.12092,47.093121 415.34859,46.212604 411.9768,47.214459 C 407.08622,47.017814 408.13506,42.371962 408.12189,39.443409 C 409.07333,36.411012 410.85712,32.476439 407.41574,31.386046 C 398.44074,32.272109 400.78451,29.973013 397.93949,30.84277 C 390.9284,33.934677 390.69567,35.633765 391.59231,49.170605 C 391.63184,52.862908 390.83075,56.650369 391.41028,60.389912 C 391.85898,65.988926 394.96836,71.553066 400.40217,73.559488 C 398.78404,110.31413 397.53489,147.08933 395.88118,183.83913 C 394.72707,190.07741 388.62522,193.30355 384.83101,197.80445 C 383.86374,199.27981 382.73178,200.46064 381.2687,201.44716 C 376.68118,205.69452 376.9692,212.556 376.91246,218.32861 C 377.03889,221.50224 376.54119,224.64768 376.27342,227.76332 C 376.77574,235.14141 374.66786,258.66034 377.44436,265.83935 C 380.26171,271.11027 386.52257,270.83174 395.13596,270.45689 C 401.05839,272.45514 425.55797,270.15378 431.75305,269.47454 C 431.28308,255.29889 428.276,236.56179 440.36097,227.28517 C 445.35876,225.33599 456.87627,217.89925 467.58737,238.77725 C 471.48611,246.37664 464.77414,271.93067 468.81242,272.62592 C 479.92391,272.85702 509.24895,274.97468 519.76507,271.98694 C 521.11006,264.11401 521.44894,272.06369 521.49476,250.25534 C 520.55908,235.76928 520.90623,220.68589 519.70381,206.21998 C 513.7165,199.70645 507.61291,193.29535 501.8015,186.62412 C 500.37164,151.94439 499.01473,117.26172 497.62362,82.580443 C 495.94062,79.517693 496.61893,75.582733 499.12727,73.176047 C 501.88,70.065606 506.36427,67.386298 506.0904,62.64151 C 505.40821,54.886476 505.20286,43.303522 504.80899,34.664168 C 501.95208,30.429106 496.11351,32.299782 491.55865,30.190291 C 489.00387,29.12954 488.11327,31.764218 484.73929,31.37151 C 483.61847,32.782314 484.73202,33.75767 484.35226,35.425889 C 484.39634,38.508335 484.73234,46.347387 477.63749,48.148376 C 477.18277,48.182248 479.6208,47.886443 474.58377,47.396284 C 469.40572,46.892402 470.09607,47.37023 468.60023,47.069064 C 465.92248,46.529921 465.02903,45.855241 463.81192,45.908434 C 458.90007,46.123101 459.65616,46.640799 457.70645,46.291811 C 455.31762,42.460726 459.30207,35.801008 459.3913,31.576958 C 459.37709,30.086785 458.57038,30.280024 456.75271,29.606879 C 451.28341,29.490701 453.35054,29.47898 447.26739,29.395575 C 444.8382,29.662967 445.14853,29.700132 442.76639,29.647371 z"
         id="rect10331"
         style="opacity:1;fill:#e20909;fill-opacity:1;stroke:none;stroke-width:7;stroke-miterlimit:4;stroke-dasharray:none;stroke-opacity:1" />
      <path
         d="M 453.95463,28.843321 C 450.99532,28.848332 447.96177,28.918416 443.84511,28.815817 C 433.43905,28.362431 440.42401,38.956946 438.89786,44.056134 C 438.15351,44.663444 437.02284,44.533961 433.29566,44.965874 C 430.12628,45.333149 431.31656,45.107097 428.33655,45.164402 C 424.44925,45.239153 419.82606,45.145895 418.58319,45.202907 C 415.70622,45.333283 413.8352,45.207906 412.00345,45.000099 C 409.28182,44.691338 409.72892,38.217954 409.73812,35.95822 C 411.6652,29.04923 410.02501,28.965347 402.63639,29.237964 C 389.93006,30.227221 392.20498,28.653269 392.01739,49.650247 C 391.85209,59.141415 391.31376,69.364133 400.70974,73.484758 C 399.16517,109.75531 397.78967,146.0351 396.29636,182.30812 C 395.96231,189.45051 387.30219,193.16273 383.79551,198.99676 C 374.3529,204.81947 378.3212,226.46051 376.22911,235.7628 C 376.93326,250.99485 373.60599,261.51225 378.0975,269.76085 C 391.92588,274.51181 397.40866,272.47723 409.56282,271.80539 C 418.35685,273.02084 422.29187,272.61862 430.42601,271.94036 C 434.95454,271.40301 433.74585,258.57965 433.59771,254.99789 C 433.48118,252.18058 432.60478,240.50534 435.15629,234.41591 C 436.3247,231.62737 440.69028,227.75483 444.89884,226.51711 C 448.84392,225.35688 454.85808,224.90135 459.67701,229.47523 C 463.34596,232.9576 466.7863,237.4576 466.25262,243.85648 C 465.18949,256.60345 463.60068,272.68931 469.32995,272.78518 C 478.42597,273.18235 488.30274,273.27073 497.0142,273.41486 C 508.69383,272.83749 511.74048,273.7204 523.74169,272.11212 C 522.81478,257.48412 522.53117,220.07885 521.30478,205.4706 C 515.52923,199.15766 509.18886,192.53762 503.40483,185.89226 C 501.98246,151.2465 500.62373,116.59958 499.23788,81.952282 C 494.77343,72.529278 507.33768,70.050474 507.44315,61.652003 C 504.38695,34.345882 512.12271,29.182345 501.41892,29.596628 C 496.95493,30.595835 484.48218,26.203569 482.99575,31.942037 C 484.313,37.907654 483.59286,44.773503 480.69385,46.272514 C 477.60214,47.871163 478.8594,47.069736 475.45063,46.830472 C 471.60887,46.560817 469.82825,45.943073 467.10959,45.517106 C 461.09954,44.57541 462.94091,45.370664 460.16708,44.789168 C 459.03993,43.335108 460.52954,35.180395 460.62492,30.719889 C 458.621,28.508878 456.25631,28.839422 453.95463,28.843321 z M 444.02433,30.675088 C 446.54209,30.647562 449.81103,31.598756 452.51505,31.324713 C 461.97306,29.684239 457.8871,33.442916 456.59239,40.834209 C 456.55986,42.219987 456.51289,43.615019 456.48037,45.000769 C 447.58027,46.235375 450.89077,45.619663 441.34909,44.347345 C 441.34909,40.582933 440.7049,38.096839 440.7049,34.332463 C 440.39964,30.118256 441.50659,30.702614 444.02433,30.675088 z M 406.19846,31.177598 C 407.55509,31.175225 408.13987,35.413016 406.98256,40.479566 C 407.56261,47.821649 403.05962,43.898704 396.83403,46.820406 C 392.14296,51.92178 392.42263,33.438737 395.30938,33.130207 C 398.20662,31.674331 404.21569,31.18106 406.19846,31.177598 z M 489.13416,32.054041 C 503.64958,30.901863 506.84167,34.362333 504.54738,44.654856 C 504.73126,46.32586 505.22121,44.937659 504.43537,45.570833 C 488.52756,45.867069 485.28891,51.692833 485.72891,33.442895 C 486.6146,32.492181 487.7938,32.068758 489.13416,32.054041 z M 439.29731,47.464863 C 442.73622,47.466899 445.96998,47.779407 448.46012,47.756074 C 451.22387,47.730218 451.19097,51.515568 450.41608,55.958221 C 446.46238,59.190238 435.46103,56.525719 429.57632,58.774958 C 427.48042,53.333371 427.29133,49.69659 428.87994,49.077724 C 432.2243,47.774898 435.85841,47.462834 439.29731,47.464863 z M 456.27874,47.509665 C 460.00585,47.379761 470.30777,48.02011 472.22385,48.960616 C 474.39855,51.158051 473.20786,56.559697 470.83095,58.064561 C 467.21918,58.270986 457.37332,58.093521 453.77652,56.71985 C 451.88785,54.344162 452.61284,49.002845 455.11379,47.666471 C 455.34837,47.571792 455.7463,47.528223 456.27874,47.509665 z M 420.99411,49.23453 C 423.78582,49.188073 425.96042,49.990124 426.16919,52.079439 C 430.82476,62.648629 419.14126,56.166452 412.56089,58.110682 C 406.55689,61.990073 408.8203,51.900641 407.46907,48.607149 C 409.03656,48.226012 410.73616,47.194131 414.41811,48.134989 C 416.62505,48.698939 418.99675,49.267777 420.99411,49.23453 z M 478.51907,49.117422 C 482.54563,49.138511 491.86445,47.282337 492.80245,48.988429 C 491.5053,50.127016 492.82152,58.853286 491.12802,59.354262 C 487.93804,58.923033 476.99805,59.960541 474.57803,58.266169 C 473.50161,55.436363 475.67424,51.682854 477.1973,49.274228 C 477.49669,49.155436 477.94385,49.114412 478.51907,49.117422 z M 495.25016,48.66461 C 497.48316,48.545129 502.33535,47.603347 504.92823,50.073405 C 505.00693,52.152835 505.15416,57.594093 503.75246,59.17836 C 501.90799,59.903861 497.02285,61.262543 494.98132,58.09537 C 494.18756,56.644311 493.69927,50.175266 494.64528,48.888618 C 494.81462,48.760722 495.01916,48.676968 495.25016,48.66461 z M 403.19067,48.821416 C 409.07668,57.866236 408.91273,59.470632 395.00858,60.544153 C 392.88651,50.029764 394.24031,48.586318 403.19067,48.821416 z M 448.66942,58.74169 C 453.49899,58.632668 459.95371,59.39538 463.07953,60.22591 C 464.85005,60.696371 461.85349,66.549159 461.10807,69.829125 C 455.12127,68.754042 449.03224,69.276573 442.98409,69.187514 C 442.01783,66.674339 440.89663,61.522543 442.33441,60.511358 C 444.06119,59.296959 445.77169,58.807108 448.66942,58.74169 z M 433.27281,60.925441 C 433.87679,60.913649 434.4503,60.916652 434.99783,60.925441 C 436.45791,60.948881 438.26902,60.412844 438.95156,60.511358 C 439.94822,65.31641 439.7326,68.121269 438.86195,69.635531 C 437.21058,70.95286 429.13,71.097186 426.60754,70.621169 C 425.60069,68.64608 422.84402,63.190063 423.15749,61.615423 C 424.39958,59.506481 429.04494,61.007962 433.27281,60.925441 z M 477.91607,60.938293 C 478.85022,62.803779 474.76755,68.042748 473.67612,71.083573 C 470.71959,71.167406 467.0301,71.097881 464.40131,69.761922 C 463.38827,67.019398 463.70103,60.81196 467.05722,59.79519 C 470.6175,60.763961 475.14315,60.252555 477.91607,60.938293 z M 416.05575,60.938293 C 418.57404,60.857249 420.60509,60.589406 420.84998,62.366844 C 426.99385,74.338808 420.9171,69.620242 414.50995,70.509889 C 410.64725,72.512067 408.78835,66.230494 406.42249,64.053998 C 402.66041,61.12178 410.51552,61.116597 416.05575,60.938293 z M 483.74084,61.28584 C 483.95537,61.296743 484.14296,61.351007 484.34572,61.420245 C 488.41958,62.076974 494.09993,59.685903 495.52479,62.548037 C 496.46422,64.435056 495.60849,68.761095 492.15165,71.390547 C 490.59475,71.589789 478.39378,72.49368 477.52943,70.801602 C 476.49627,67.816754 480.52277,61.122418 483.74084,61.28584 z M 400.68232,61.708997 C 407.46447,66.472889 413.19294,74.374019 404.18219,71.446281 C 400.18752,73.268456 392.87779,65.615556 395.18433,64.631976 C 395.65009,63.020283 399.64528,61.754265 400.68232,61.708997 z M 498.44296,62.672894 C 505.04424,61.240952 506.40708,64.162009 496.70635,72.364716 C 494.21704,73.065601 494.7535,69.840723 495.70401,69.021884 C 496.68971,66.558242 497.54134,62.624128 498.44296,62.672894 z M 449.81699,71.783763 C 450.42132,71.749097 451.16195,71.851854 452.07969,72.119776 C 451.39006,76.263547 454.04125,83.995212 451.68145,86.440675 C 448.77171,87.148084 446.67703,85.932065 446.89959,83.360891 C 447.38922,79.460418 445.58673,72.026538 449.81699,71.783763 z M 441.03504,72.502841 C 444.36077,72.430807 445.84349,71.270056 443.98721,76.546586 C 447.63862,90.809946 441.34538,86.621753 424.0594,85.579895 C 420.55611,86.61032 422.38583,80.109168 422.46879,79.95728 C 420.78369,71.966224 425.46143,72.204304 433.19401,72.816453 C 435.30095,73.209447 438.44837,72.558861 441.03504,72.502841 z M 459.71909,72.629232 C 462.19029,72.627999 465.08605,73.156244 467.60493,73.458064 C 478.73378,71.285926 477.2249,77.26264 477.16519,85.272053 L 477.12039,86.593704 L 475.77621,86.369695 C 459.20005,85.95962 454.68581,89.766762 453.71008,78.629866 C 451.73932,72.127288 455.60041,72.631261 459.71909,72.629232 z M 417.51194,72.615569 C 419.65997,72.650981 420.60932,74.135286 419.80284,77.470785 C 423.0958,91.614743 411.69573,85.079449 404.07018,88.17972 C 401.02842,87.804081 404.16563,78.498787 403.37569,75.299228 C 406.02025,74.4332 413.41117,72.547951 417.51194,72.615569 z M 481.38274,74.311081 C 482.40831,74.249248 483.83122,72.510848 485.79612,73.612734 C 496.0492,73.541983 497.08243,73.539022 496.72875,88.134918 C 493.26439,89.132248 485.45628,87.509307 480.2792,87.041721 C 480.37792,82.562589 476.93856,74.578981 481.38274,74.311081 z M 441.61249,89.946083 C 446.87688,89.802266 454.10979,90.559802 458.16827,89.745135 C 465.75091,88.828879 462.2292,94.735386 463.34837,99.58686 C 459.32002,99.586845 455.30151,100.5104 451.27318,100.5104 C 447.71755,100.51139 444.16488,100.51913 440.60938,100.5552 C 433.96733,103.08281 436.79337,96.211413 436.2184,92.462728 C 435.52109,87.447911 437.51798,90.057937 441.61249,89.946083 z M 430.44424,89.840502 C 432.9543,89.801764 434.76462,88.486429 433.48524,92.910745 C 437.28933,106.46683 420.39209,98.996997 412.74012,102.15719 C 409.46647,104.04238 411.69198,96.639961 411.03749,95.123986 C 408.64609,87.416464 415.93954,90.387097 421.66228,89.276036 C 424.4153,88.949707 427.93418,89.879232 430.44424,89.840502 z M 469.10013,88.928497 C 471.61714,88.968173 475.16957,89.294064 477.92689,89.617819 C 483.6338,90.741238 491.03302,87.967697 488.55168,95.75121 C 487.91412,97.470284 490.29749,104.19344 486.19937,101.44103 C 478.52551,98.674647 462.69365,104.66028 465.18039,94.528711 C 463.86891,90.057507 466.58312,88.888813 469.10013,88.928497 z M 406.31047,90.061392 C 407.8538,90.11572 409.03055,91.227907 408.25953,94.003943 C 407.55451,96.962612 410.14492,102.37421 405.70559,102.56107 C 400.4575,105.00025 402.44301,102.34226 402.05391,98.573717 C 401.60071,96.302608 401.59989,92.9322 402.81561,91.58465 C 403.68489,90.621141 405.11011,90.019128 406.31047,90.061392 z M 493.54754,90.688616 C 496.64814,90.69825 498.88756,97.670759 497.26642,101.60426 C 497.12247,103.99155 493.04815,100.91014 491.37445,100.88744 C 491.3504,97.474635 491.3089,95.602246 491.28484,92.189473 C 492.05494,91.123938 492.83201,90.686394 493.54754,90.688616 z M 435.94957,103.31051 C 436.22275,103.29755 436.4792,103.30403 436.73367,103.31051 C 441.1444,103.4228 442.60425,106.55696 441.32627,112.36045 C 441.91014,119.26559 429.29252,113.91036 424.7705,116.35357 C 421.38021,117.97552 424.13172,111.73405 423.15749,110.59655 C 420.00317,102.281 427.50811,104.02032 433.21641,103.71372 C 434.21739,103.48686 435.13001,103.34937 435.94957,103.31051 z M 452.99821,103.71372 C 454.5537,103.70247 455.7398,104.06217 455.70896,105.59539 C 456.57486,112.15819 455.71554,116.75002 448.00235,114.80214 C 447.73311,113.86574 443.54791,116.29231 444.14904,114.30933 C 445.07388,110.8392 441.03423,102.60156 446.8374,103.89293 C 448.36215,104.34112 450.99828,103.72818 452.99821,103.71372 z M 458.55414,103.87053 C 464.87897,106.01757 480.20891,98.31024 476.43169,109.68454 C 476.43169,110.28162 476.43169,110.87954 476.43169,111.47661 C 478.05307,120.12708 464.59604,115.34484 459.68008,117.00253 C 455.60789,116.19911 459.35119,107.62273 458.55414,103.87053 z M 416.77265,104.12847 C 417.00662,104.11727 417.22347,104.12372 417.44474,104.12847 C 420.56851,104.19557 422.3456,106.24452 420.40192,111.9406 C 422.55951,121.17626 408.9217,114.02052 403.84615,117.48004 C 399.50206,120.19613 400.99015,104.28355 405.05591,105.76439 C 408.40686,104.94589 413.26302,104.29646 416.77265,104.12847 z M 479.16485,103.4123 C 485.2724,104.32358 491.85343,102.07354 496.73756,105.46216 C 498.55208,106.72109 499.05936,112.3325 497.8489,116.62881 C 497.14834,120.82138 485.37088,114.76659 481.0915,116.02398 C 476.62363,115.30596 480.62768,106.15558 479.16485,103.4123 z M 446.90461,117.78146 C 447.79483,117.81315 448.38125,117.98378 448.47281,118.36388 C 449.1811,121.30449 449.66704,124.89661 449.77218,130.47254 C 446.23077,130.47253 442.69461,130.47254 439.15319,130.47254 C 434.86813,130.7531 430.31119,131.30308 431.96184,125.49955 C 434.32708,119.03977 425.71363,120.92239 422.44059,122.20662 C 421.2221,126.27771 424.74579,132.69376 416.45901,131.07736 C 405.0384,133.04683 412.1839,124.79556 410.20858,119.0033 C 420.17114,118.09679 430.87414,119.04652 440.85581,118.36388 C 443.09702,118.06611 445.42091,117.72864 446.90461,117.78146 z M 452.12449,118.31908 C 461.51272,118.87086 470.87302,117.9648 480.24019,118.80169 C 490.00016,116.96942 490.08318,122.97798 489.55981,131.07736 L 489.4478,131.57018 L 487.78998,131.48058 C 481.24587,132.08787 475.40882,132.16897 477.55183,124.44671 C 477.32732,120.71178 468.67406,120.8249 467.3809,123.10266 C 467.83975,125.95856 468.68023,129.83564 466.86563,130.69655 C 463.65789,132.21845 454.9171,132.1895 452.84139,129.89011 C 450.61816,127.42727 451.87787,122.86903 452.12449,118.31908 z M 404.85428,119.51852 C 405.47669,119.50874 406.12767,119.68926 406.73613,120.14574 C 409.23615,122.02136 408.30077,131.46554 405.70559,130.65174 C 404.66935,131.15215 401.88752,131.70886 401.49384,131.30137 C 400.85522,129.44952 400.44033,123.51666 402.25554,120.95217 C 402.85161,120.11006 403.81694,119.53481 404.85428,119.51852 z M 494.55567,119.58572 C 495.97748,119.61146 497.4482,120.51987 498.31936,121.82581 C 499.76877,124.9038 498.59041,127.38793 498.38657,130.47254 C 496.77087,132.17882 493.48013,132.60382 492.00173,131.27897 C 490.14901,129.6186 490.52867,123.69587 491.64329,121.37779 C 492.38582,120.08302 493.44981,119.5657 494.55567,119.58572 z M 434.98624,133.00383 C 437.07784,133.02562 439.84555,133.6935 441.41589,133.20544 C 441.28962,139.10511 441.15878,145.00242 441.03504,150.90212 C 437.00076,150.96905 432.97172,151.03679 428.93745,151.10373 C 425.4061,150.50649 421.15636,152.60388 416.77265,150.74531 C 415.17157,148.59081 416.44625,138.21508 416.01095,133.81026 C 415.86363,133.29112 423.40692,132.3185 422.01494,135.69194 C 422.51325,139.4483 419.77281,147.30171 426.60754,145.1227 C 434.4876,147.28915 431.94142,139.38292 432.18587,134.97511 C 432.14498,133.36089 433.35944,132.98689 434.98624,133.00383 z M 406.96016,133.11584 C 408.55589,133.13425 410.33689,133.34099 412.11284,133.56385 C 413.60282,136.13049 415.84565,148.77412 412.02322,151.10373 C 409.07183,152.90249 402.75045,153.02619 400.97857,151.28293 C 398.31125,148.65872 400.26893,138.95539 401.51624,135.44553 C 402.17262,133.59853 404.3006,133.08516 406.96016,133.11584 z M 462.8107,133.51905 C 464.43157,133.52773 466.06027,133.72412 466.6192,134.12388 C 467.80944,135.24123 467.57301,137.74942 467.29129,140.30651 C 464.0411,146.7259 478.02886,148.24887 477.55183,142.83781 C 478.36421,140.20771 475.81484,133.97277 479.03043,133.92227 C 487.37046,131.9018 481.87432,143.01693 483.26458,147.63159 C 483.17183,149.08925 483.3042,150.58213 483.01815,152.02216 C 475.43185,151.84061 466.82887,152.38561 459.60708,151.41734 C 457.91485,150.1195 458.153,146.86482 458.37491,143.64424 C 458.7153,140.53909 457.1909,135.61073 459.06941,134.01187 C 459.58803,133.68634 461.18981,133.51039 462.8107,133.51905 z M 446.41174,133.72066 C 448.14946,133.6841 450.39688,134.17796 451.85566,133.85507 C 458.85017,132.35404 454.05471,142.92189 455.68656,146.89236 L 455.68656,147.34038 C 457.78985,154.2099 450.08133,150.47583 446.16531,150.81251 C 440.71494,150.80909 445.76683,140.49124 444.10424,136.81198 C 443.4624,134.3326 444.67403,133.75723 446.41174,133.72066 z M 492.40499,133.81026 C 499.80647,133.92278 499.57907,141.88162 499.12587,149.31166 C 501.48077,156.2006 490.0386,151.11029 486.89386,152.13416 C 486.89793,148.86466 482.96851,134.441 488.75331,134.28068 C 490.14331,133.95205 491.34763,133.79419 492.40499,133.81026 z M 436.03918,152.69419 C 436.41498,152.68359 436.79332,152.689 437.18173,152.69419 C 441.17674,152.74751 445.69975,153.60914 447.71111,154.55346 C 448.75209,156.11376 449.81314,170.07767 447.91274,170.70447 C 443.45121,171.60183 433.0639,172.49979 430.99852,170.16685 C 428.82603,167.71291 428.74057,156.20951 430.23682,154.37425 C 431.15028,153.25384 433.40857,152.76833 436.03918,152.69419 z M 422.21656,153.25421 C 429.9985,152.92093 427.28827,163.52998 428.01893,170.79408 C 425.27989,171.15847 422.50565,170.91289 419.75224,170.99569 C 416.95504,170.17521 410.24775,173.15107 411.55276,168.32998 C 412.91842,162.78508 408.07806,151.07446 418.20644,154.10544 C 419.78729,153.56946 421.10486,153.30182 422.21656,153.25421 z M 462.29543,154.01584 C 465.0038,154.00744 467.40588,154.40178 468.76988,155.7631 C 471.18077,159.01191 470.30358,168.01009 468.36663,171.15249 C 465.78282,172.26868 455.73738,172.60311 452.81898,171.57811 C 449.17791,169.00737 452.49922,159.92805 451.94527,154.84467 C 454.83942,154.70087 458.81323,154.02664 462.29543,154.01584 z M 479.74732,154.01584 C 482.53282,153.99684 485.33447,154.28358 486.26658,154.95667 C 488.88501,157.2384 488.16531,162.84724 487.99161,167.81476 C 488.02354,169.09287 488.04928,170.36719 488.08122,171.64531 C 483.07637,171.63359 478.07569,171.67229 473.07125,171.60051 C 471.98149,168.94193 469.79267,158.13084 473.38489,154.91187 C 474.20921,154.34913 476.96182,154.03484 479.74732,154.01584 z M 405.54877,154.06064 C 410.87122,154.01179 409.12886,160.83583 408.84201,166.51551 L 408.8196,167.03073 L 408.8196,167.61316 C 410.35432,172.90387 404.59087,170.75252 401.33702,171.15249 C 398.21999,170.22912 398.82879,156.06506 401.80748,154.84467 C 403.33236,154.31374 404.56314,154.06968 405.54877,154.06064 z M 492.71863,155.22548 C 493.2443,155.20194 493.87519,155.29233 494.62288,155.49429 C 503.62324,153.26624 498.13962,166.18377 499.99958,171.2645 L 499.99958,171.80212 L 499.55152,171.80212 C 496.74567,170.92417 490.15144,173.91507 490.79197,169.51723 C 492.12568,165.41019 487.63707,155.4531 492.71863,155.22548 z M 449.83939,172.81016 C 452.13138,172.71817 454.29021,173.53708 454.88005,175.31905 C 455.86608,178.29783 455.70585,182.15586 454.96967,185.30983 C 454.69343,186.49337 447.07252,185.99225 445.60524,185.13063 C 443.42968,183.8531 443.99703,178.94721 444.88834,174.66943 C 446.18888,173.4987 448.05674,172.88169 449.83939,172.81016 z M 438.63792,173.16857 C 438.86979,173.15821 439.08234,173.15297 439.28761,173.16857 C 442.84558,173.43887 442.61605,177.40881 441.77433,182.01691 C 441.74111,183.1336 441.71795,184.23795 441.68472,185.35463 C 433.75796,185.35466 425.81961,185.35457 417.89279,185.35463 C 417.92234,181.47981 417.95286,177.60343 417.98241,173.72859 C 424.04432,173.73926 430.11246,173.71985 436.1736,173.61659 C 437.11974,173.3409 437.94231,173.19965 438.63792,173.16857 z M 412.31446,173.48218 C 415.24507,173.52738 415.95974,175.8192 415.27165,179.55281 C 415.27588,180.10987 415.28979,180.67582 415.29405,181.23288 C 417.03289,186.64667 411.97241,185.30617 408.30433,185.35463 C 405.03011,184.44107 397.16199,187.87962 399.11913,182.03931 C 396.74984,173.18496 403.24711,173.36523 409.91735,173.81819 C 410.83908,173.57845 411.63817,173.47175 412.31446,173.48218 z M 494.95892,174.0422 C 500.11854,174.24043 501.62183,178.2475 500.58206,184.83941 L 500.62687,185.42184 L 500.67167,186.00426 C 496.38426,186.00427 492.0998,186.00419 487.81238,186.00426 C 482.4883,187.64486 484.70271,181.80511 484.31752,178.54477 C 482.64904,173.2106 487.40518,174.42054 491.03841,174.49022 C 492.07785,174.2583 493.02219,174.11237 493.88358,174.0646 C 494.26044,174.0437 494.61495,174.02898 494.95892,174.0422 z M 478.13431,174.087 C 478.31885,174.07799 478.50299,174.081 478.67198,174.087 C 481.6012,174.19109 482.3218,176.50559 481.62917,180.22484 C 481.64392,182.15352 481.65925,184.07556 481.67398,186.00426 C 476.2028,185.98629 470.74503,186.05692 465.27502,185.91466 C 456.25393,188.35869 457.41446,180.67712 457.59081,174.26621 C 463.81808,174.22813 470.04769,174.33143 476.27487,174.37821 C 476.96488,174.21352 477.5807,174.11406 478.13431,174.087 z M 427.39164,187.88593 C 430.72365,187.81064 428.47248,193.31556 429.11667,195.92784 C 429.11271,198.15157 429.1256,200.37992 429.07186,202.60329 C 422.23614,204.61122 412.8553,203.46645 404.227,203.25292 C 405.28073,198.60245 405.12311,192.58066 405.7728,188.10994 C 412.57175,188.10993 419.3829,188.10994 426.18188,188.10994 C 426.65541,187.97333 427.04695,187.89372 427.39164,187.88593 z M 400.64253,187.90833 C 406.17799,187.94293 400.18232,198.95071 401.80748,203.23052 C 400.52015,203.22999 399.2699,203.26818 398.04379,203.34252 C 395.08893,202.23812 382.61533,205.11786 385.58775,201.37125 C 390.34289,197.52673 393.44979,189.96999 399.09672,188.10994 C 399.69533,187.96376 400.20071,187.90557 400.64253,187.90833 z M 440.0045,187.93073 C 445.44895,187.93643 450.83715,189.78212 448.24878,196.30865 C 448.28808,198.85146 448.34393,201.38212 448.3832,203.92494 C 442.8811,203.86066 437.3745,203.81835 431.87223,203.76814 C 431.87225,198.94282 431.87223,194.1225 431.87223,189.29719 C 433.45635,188.58733 436.73784,187.92731 440.0045,187.93073 z M 454.56641,188.26675 C 457.74649,188.2577 462.2058,189.49222 464.75975,188.75956 C 469.81064,187.30241 467.00611,193.69496 467.71694,196.57746 C 467.71694,197.22119 467.71694,197.86024 467.71694,198.50394 C 469.72604,205.49771 464.24542,205.13081 458.64375,204.08175 C 448.3426,207.16752 451.47747,196.85049 450.91473,190.30522 C 451.2129,188.71828 452.65836,188.27217 454.56641,188.26675 z M 499.17067,188.51316 C 501.03519,188.4551 503.22106,189.31204 504.05452,190.99965 C 505.15277,194.4451 518.74795,203.17144 513.10531,203.79054 C 510.06467,203.88472 507.02919,203.88801 503.98731,203.90254 C 496.39951,206.2934 497.44315,199.15543 497.1096,193.55335 C 494.90473,190.17617 496.77344,188.58779 499.17067,188.51316 z M 470.4501,188.75956 C 478.23169,188.75955 486.01241,188.75956 493.79397,188.75956 C 494.31526,193.85852 494.74855,198.97094 495.36217,204.05935 C 491.65612,204.09283 487.93396,204.11547 484.22791,204.14895 C 479.63477,204.22681 475.04023,204.1717 470.4501,204.37296 C 470.4501,199.16469 470.4501,193.96784 470.4501,188.75956 z M 417.44474,205.62741 C 418.19761,205.65894 419.02353,205.88253 419.93146,206.34424 C 425.13535,208.2547 436.60902,202.29224 436.196,210.86921 C 430.43332,213.71598 426.83454,219.98971 419.28178,218.3511 C 410.20182,223.02104 410.16694,205.32261 417.44474,205.62741 z M 407.47543,205.71701 C 412.64068,205.79365 409.9076,213.03619 409.73812,218.01508 C 406.34916,216.79491 386.96092,220.88033 390.02353,214.29654 C 387.69315,203.38984 397.73254,206.09339 404.74227,206.14263 C 405.83217,205.83369 406.73753,205.70607 407.47543,205.71701 z M 514.85274,205.96342 C 519.9461,205.97949 519.40221,212.49366 519.46774,217.92548 C 510.26465,220.88295 512.48339,213.32849 511.40268,206.68025 C 512.77191,206.18964 513.90952,205.96045 514.85274,205.96342 z M 383.54908,206.12023 C 386.04499,206.13161 387.46031,206.49667 387.71603,207.46428 C 388.5755,210.71646 389.21102,216.9399 387.11115,217.23105 C 383.66557,217.70883 381.63839,217.20292 380.70391,216.02141 C 378.99704,213.86335 380.08974,209.67339 380.95034,206.20983 C 381.46286,206.18147 381.94929,206.15608 382.40653,206.14263 C 382.80662,206.13087 383.19252,206.1186 383.54908,206.12023 z M 482.36847,206.16503 C 487.93327,205.97706 488.21293,217.0729 485.59449,219.00072 C 483.83492,218.95912 482.01333,219.52978 480.28499,219.02312 C 472.76703,220.57616 469.12779,214.42831 463.39317,211.51883 C 463.08115,203.00749 474.38963,208.86528 479.65771,206.99386 C 480.67474,206.44659 481.5735,206.19188 482.36847,206.16503 z M 503.65126,206.23223 C 506.79693,206.34513 509.11753,207.44469 509.07278,211.33963 C 513.816,221.06558 503.04863,218.04676 497.19922,218.61991 L 495.81023,218.66471 L 494.48846,218.70951 C 487.99451,222.74596 486.96323,206.93828 490.74717,206.85946 C 494.21066,207.57975 499.60683,206.08708 503.65126,206.23223 z M 458.2853,206.68025 C 464.77679,206.83002 457.60407,217.23301 456.82911,222.60726 C 454.25049,223.80135 450.2486,221.86386 447.15104,222.49525 C 440.86593,224.47135 441.61606,216.57293 439.75807,212.63888 C 434.34675,203.33825 449.56322,208.94641 454.58882,207.28507 C 456.13251,206.8427 457.35794,206.65885 458.2853,206.68025 z M 462.69868,213.91573 C 468.95265,217.12158 472.74902,221.51815 465.1182,225.67618 C 456.0303,232.39298 460.9063,217.64997 462.69868,213.91573 z M 435.32228,214.09493 C 439.36911,214.09741 442.3929,225.29946 436.89049,226.93062 C 435.75114,224.77841 425.38914,220.02003 431.84983,217.18625 C 432.98027,214.97775 434.18918,214.09424 435.32228,214.09493 z M 384.96047,219.35913 C 387.95954,219.42143 393.05288,220.09002 394.05606,220.74799 C 395.98559,222.9658 393.76117,233.50173 393.87684,237.79239 C 389.35575,236.73797 384.29236,238.95631 380.35125,236.68124 C 378.2528,234.25762 379.84638,220.48422 382.96661,219.49354 C 383.15259,219.43449 383.44677,219.40112 383.81792,219.38154 C 384.14267,219.3644 384.53203,219.35023 384.96047,219.35913 z M 424.0312,220.38957 C 425.71673,220.38342 427.49398,221.24218 428.39978,222.96567 C 436.73114,227.47004 432.80293,231.46883 430.32643,238.04145 C 429.75149,239.70827 425.90669,237.64835 424.59127,238.31026 C 416.09594,240.51029 418.9207,229.71611 420.11069,224.71294 C 419.86007,221.82818 421.8641,220.39748 424.0312,220.38957 z M 403.39809,220.54638 C 403.69917,220.54166 404.00517,220.53945 404.31661,220.54638 C 406.58162,220.5968 409.09811,220.9218 411.48555,221.0616 C 421.63221,218.57128 415.09286,226.99162 416.21257,232.55324 C 416.156,234.0652 416.3147,235.84273 416.10056,237.19022 C 410.33545,235.30498 392.3345,243.20732 396.87883,234.02905 C 395.6368,227.05465 398.88184,220.61721 403.39809,220.54638 z M 510.753,220.77039 C 513.74491,220.75017 515.63692,221.43142 518.15254,221.12304 C 520.10537,225.56709 522.48265,235.11057 519.08237,238.73378 C 515.98538,242.0338 510.4098,239.01484 507.43157,240.63598 C 505.32428,241.66834 506.17738,238.64142 505.4659,237.78465 C 501.96681,230.82908 505.76647,220.80408 510.753,220.77039 z M 475.35635,220.81519 C 475.51433,220.80366 475.65771,220.81 475.8044,220.81519 C 479.91189,220.9605 479.74995,226.97691 480.62104,230.51476 C 480.68579,233.61905 481.25535,237.23998 479.6129,238.75828 C 478.42182,239.56564 471.50112,239.68994 469.89003,239.09429 C 468.16222,237.83066 469.15794,234.08976 466.14874,231.29879 C 464.10954,227.67621 471.56266,224.23094 473.76574,221.1512 C 474.34796,220.96886 474.8824,220.84979 475.35635,220.81519 z M 495.81023,220.9496 C 496.11709,220.93828 496.41313,220.94496 496.70635,220.9496 C 499.91637,221.00033 502.23874,222.10082 502.15027,225.90018 C 502.45933,233.82718 501.8393,236.94816 498.61534,239.11852 C 495.34972,241.31693 492.20709,240.06922 488.55168,240.49269 C 486.82893,240.6404 485.09774,237.71822 483.3766,237.88464 C 483.43047,232.52462 483.72077,227.15473 481.65157,222.06964 C 485.19474,222.94919 491.20735,221.11933 495.81023,220.9496 z M 379.99281,239.77256 C 381.9721,239.63108 384.5592,241.01217 385.2799,243.06548 C 385.55274,244.10572 385.79938,249.49014 385.26252,250.45266 L 378.447,250.41164 C 377.3041,249.74857 377.31341,241.45086 378.31259,240.44458 C 378.7451,240.03227 379.33304,239.81972 379.99281,239.77256 z M 520.05022,241.88845 C 520.90117,244.3845 521.25868,248.13148 520.22944,250.55758 C 519.51323,252.24589 516.74705,252.44212 515.41281,253.60409 C 514.65315,252.35853 512.48023,244.49488 513.90602,242.77493 C 515.6966,240.61503 516.968,242.71287 520.05022,241.88845 z M 388.85858,239.51726 C 390.22931,240.71562 397.71517,238.02884 401.70126,242.33532 C 403.3387,244.10436 400.97879,247.97713 401.09059,250.80285 C 397.41427,250.88444 393.60064,253.12627 387.50861,250.09491 C 386.27673,249.48197 388.10225,242.47946 388.85858,239.51726 z M 510.74219,243.06104 C 516.55145,257.8933 508.7802,254.26269 498.82961,254.04965 C 497.27686,254.94108 496.48859,243.90306 497.33363,243.15839 C 501.36482,239.60596 507.99436,243.35401 510.74219,243.06104 z M 409.5813,239.04949 C 413.01033,239.05379 417.5214,239.91231 419.41619,240.75195 C 422.01248,242.49478 422.04261,246.21443 420.62595,251.03395 C 420.50654,251.35751 420.80106,252.15738 420.15549,251.88518 C 415.40829,251.64978 404.59071,252.24876 404.07018,247.94263 C 403.73253,244.00189 404.14858,241.02311 405.92962,239.65431 C 406.69059,239.2334 408.02265,239.04754 409.5813,239.04949 z M 493.59234,243.3824 C 494.08599,243.38566 494.48814,243.403 494.7797,243.4272 C 496.04079,247.43181 496.84631,251.29559 495.5638,253.10437 C 492.45824,255.63573 482.73055,253.26797 478.98562,252.01958 C 478.29575,251.03383 476.30226,242.93647 477.91028,242.36481 C 482.28869,240.80832 490.13675,243.35962 493.59234,243.3824 z M 425.30817,241.11037 C 426.87387,240.98683 429.28239,241.71307 430.39364,242.65602 C 432.17888,244.17086 430.94146,249.85114 430.46085,251.81798 C 429.34096,253.00339 426.42632,252.51936 424.14322,252.19879 C 422.47247,251.96423 423.5689,243.91842 424.09841,241.53598 C 424.35354,241.28558 424.78627,241.15155 425.30817,241.11037 z M 472.46637,241.26717 C 477.20324,241.08885 476.18034,250.9776 475.26673,252.91562 L 471.77187,253.07242 C 466.98058,254.11337 469.82976,244.02374 470.06925,242.0064 C 470.99779,241.51798 471.78967,241.29265 472.46637,241.26717 z M 378.43039,252.2434 C 383.45311,255.79888 391.62813,250.78574 393.45118,254.79464 C 394.30514,256.67247 393.20816,263.88077 392.00283,267.64811 C 390.832,271.46061 379.57453,269.87407 379.5208,265.37165 C 379.2169,263.58751 377.10493,253.20009 378.43039,252.2434 z M 520.31905,253.8953 C 520.8773,253.86257 521.30397,254.07115 521.50641,254.61213 C 522.52368,258.29195 522.0438,268.11549 519.69485,270.3712 C 516.88195,273.07242 512.09746,270.45704 508.79815,270.06938 C 505.94759,272.02724 507.12207,258.05597 505.98117,256.71469 C 509.84682,256.69054 517.30456,254.07212 520.31905,253.8953 z M 397.92096,253.64199 C 398.66764,253.63058 401.3618,252.39979 402.27717,253.178 C 406.28506,254.16536 409.58851,252.83748 411.03749,255.53652 C 411.65568,257.04811 411.71284,268.18046 410.38781,269.1767 C 408.52917,269.28637 396.60773,271.71196 395.48985,269.32307 C 393.81787,265.64553 395.60888,255.53855 397.92096,253.64199 z M 500.23521,256.96176 C 501.53615,256.94976 503.10928,255.08813 503.42723,255.79247 C 506.45885,270.60179 503.70012,273.20803 490.45593,269.70341 C 486.49353,270.72463 489.3393,262.03347 488.55168,259.063 C 490.03189,257.49722 496.33236,256.9978 500.23521,256.96176 z M 417.1535,254.34927 C 420.38952,254.36412 425.05501,255.90084 427.41405,255.1781 C 432.54234,255.28923 429.84994,263.59244 429.92318,267.65604 L 428.80303,268.28326 C 423.23366,268.11684 416.73275,272.60839 414.36378,268.71018 C 413.50785,266.57174 412.99748,256.8506 414.53235,254.9765 C 415.15543,254.50125 416.07482,254.34433 417.1535,254.34927 z M 477.3054,254.9989 C 480.7588,254.96336 484.332,255.60085 485.79612,256.18614 C 486.25567,264.22343 486.44061,269.86775 476.5213,269.58185 L 474.86348,269.82826 C 467.22795,272.55971 469.39572,264.24609 469.28515,259.85988 C 468.61694,256.17945 472.86531,255.04459 477.3054,254.9989 z"
         id="path10736"
         style="opacity:1;fill:#000000;fill-opacity:1;stroke:none;stroke-opacity:1" />
    </g>
    <path
       d="M 150.28125,334.46875 C 147.85205,334.73615 148.16339,334.77151 145.78125,334.71875 C 142.5646,334.47265 141.98743,334.03724 141.71875,337.0625 C 141.0626,340.92869 142.62134,346.08364 142.78125,349.96875 C 142.33213,350.25793 138.99911,351.35267 135.625,351.8125 C 132.92284,352.18075 136.39731,352.09162 131.03125,352.21875 C 125.91685,352.33991 131.39188,353.04492 126.4375,352.375 C 123.05284,351.91735 125.99171,352.19067 123.34375,352.1875 C 116.12052,352.17895 118.34054,351.27939 114.96875,352.28125 C 110.07817,352.08459 111.13817,347.4598 111.125,344.53125 C 112.07644,341.49885 113.84763,337.55915 110.40625,336.46875 C 101.43125,337.35483 103.78252,335.03649 100.9375,335.90625 C 93.926405,338.99816 93.69711,340.71316 94.59375,354.25 C 94.633278,357.9423 93.82672,361.72921 94.40625,365.46875 C 94.854948,371.06776 97.972436,376.61858 103.40625,378.625 C 101.78812,415.37966 100.52871,452.15645 98.875,488.90625 C 97.720894,495.14453 91.63796,498.3741 87.84375,502.875 C 87.761198,503.00091 87.678805,503.12831 87.59375,503.25 C 101.09865,519.76567 116.86004,535.864 134.34375,551.65625 C 135.04055,544.02848 137.32434,536.98834 143.375,532.34375 C 148.37278,530.39457 159.88265,522.96575 170.59375,543.84375 C 174.49249,551.44315 167.77422,576.99225 171.8125,577.6875 C 182.92399,577.91859 212.26513,580.05024 222.78125,577.0625 C 224.12623,569.18955 224.45418,577.1521 224.5,555.34375 C 223.56431,540.8577 223.92117,525.74716 222.71875,511.28125 C 216.73144,504.76771 210.62391,498.35873 204.8125,491.6875 C 203.38264,457.00776 202.01611,422.33753 200.625,387.65625 C 198.94199,384.59351 199.61666,380.65669 202.125,378.25 C 204.87773,375.13956 209.36762,372.46353 209.09375,367.71875 C 208.41157,359.96372 208.20637,348.38935 207.8125,339.75 C 204.95559,335.51493 199.11736,337.35949 194.5625,335.25 C 192.00772,334.18924 191.12398,336.83021 187.75,336.4375 C 186.62918,337.8483 187.72351,338.83178 187.34375,340.5 C 187.38774,343.57651 187.74021,351.36683 180.6875,353.1875 C 180.94525,353.09562 181.37152,352.83637 177.59375,352.46875 C 172.4157,351.96486 173.08959,352.45742 171.59375,352.15625 C 168.91599,351.61712 168.02961,350.91556 166.8125,350.96875 C 161.90065,351.18342 162.66846,351.72399 160.71875,351.375 C 158.32992,347.54392 162.31702,340.8803 162.40625,336.65625 C 162.39204,335.16608 161.56767,335.36064 159.75,334.6875 C 154.28069,334.57131 156.3644,334.55216 150.28125,334.46875 z"
       id="path2535"
       style="opacity:1;fill:#e20909;fill-opacity:1;stroke:none;stroke-width:7;stroke-miterlimit:4;stroke-dasharray:none;stroke-opacity:1;display:inline" />
    <path
       d="M 144.9375,334.25 C 135.8851,334.46404 142.38471,344.56016 140.90625,349.5 C 140.1619,350.1073 139.03968,349.97433 135.3125,350.40625 C 132.14313,350.77353 133.32376,350.5677 130.34375,350.625 C 126.45645,350.69977 121.83662,350.59924 120.59375,350.65625 C 117.71678,350.78664 115.863,350.64531 114.03125,350.4375 C 111.30962,350.12872 111.7408,343.66599 111.75,341.40625 C 113.67708,334.49727 112.04487,334.41488 104.65625,334.6875 C 91.949919,335.67675 94.21884,334.09677 94.03125,355.09375 C 93.865952,364.58491 93.32277,374.81687 102.71875,378.9375 C 101.17418,415.20805 99.80581,451.47698 98.3125,487.75 C 98.020209,493.99958 91.35512,497.62721 87.34375,502.34375 C 88.061682,503.22606 88.800614,504.08875 89.53125,504.96875 C 93.282633,500.92831 96.279345,495.15862 101.125,493.5625 C 101.72361,493.41631 102.21443,493.34099 102.65625,493.34375 C 108.19171,493.37836 102.18734,504.40769 103.8125,508.6875 C 102.52517,508.68697 101.28861,508.70691 100.0625,508.78125 C 98.74822,508.29003 95.571299,508.56723 92.6875,508.71875 C 93.552659,509.73226 94.430865,510.73949 95.3125,511.75 C 98.438685,510.8118 103.00542,511.56745 106.75,511.59375 C 107.8399,511.28481 108.7621,511.14531 109.5,511.15625 C 114.66525,511.2329 111.91948,518.48986 111.75,523.46875 C 110.78854,523.12258 108.5027,523.20063 105.84375,523.34375 C 106.70251,524.25405 107.53474,525.18577 108.40625,526.09375 C 110.07902,526.21535 111.82266,526.40178 113.5,526.5 C 122.41353,524.31232 118.46087,530.55754 118.125,535.875 C 118.98683,536.72151 119.84635,537.56166 120.71875,538.40625 C 120.79103,535.58761 121.60818,532.32914 122.125,530.15625 C 121.87438,527.27152 123.8954,525.85166 126.0625,525.84375 C 127.74803,525.83762 129.50045,526.68276 130.40625,528.40625 C 138.73761,532.91063 134.82025,536.92738 132.34375,543.5 C 131.76881,545.1668 127.94042,543.08809 126.625,543.75 C 126.54989,543.76945 126.47959,543.79507 126.40625,543.8125 C 127.47741,544.81903 128.53935,545.83985 129.625,546.84375 C 130.71114,547.12264 131.76942,547.55337 132.40625,548.09375 C 132.9029,548.51518 133.1711,549.29094 133.28125,550.1875 C 133.98467,550.82674 134.69712,551.45555 135.40625,552.09375 C 135.45552,547.87524 135.83372,543.10594 137.1875,539.875 C 138.3559,537.08645 142.69769,533.20647 146.90625,531.96875 C 150.85134,530.80852 156.86857,530.36362 161.6875,534.9375 C 165.35646,538.41986 168.81493,542.91362 168.28125,549.3125 C 167.21812,562.05948 165.61448,578.12288 171.34375,578.21875 C 180.43976,578.61592 190.31979,578.73087 199.03125,578.875 C 210.71087,578.29761 213.74879,579.17078 225.75,577.5625 C 224.8231,562.93447 224.53889,525.5145 223.3125,510.90625 C 217.53695,504.59331 211.22153,497.98911 205.4375,491.34375 C 204.01513,456.69798 202.63585,422.05355 201.25,387.40625 C 196.78555,377.98324 209.36328,375.49221 209.46875,367.09375 C 206.41255,339.78763 214.14129,334.61697 203.4375,335.03125 C 198.97351,336.03045 186.48643,331.63653 185,337.375 C 186.31726,343.34062 185.61776,350.21974 182.71875,351.71875 C 179.62704,353.3174 180.87752,352.52052 177.46875,352.28125 C 173.627,352.0116 171.84366,351.39472 169.125,350.96875 C 163.11495,350.02705 164.96133,350.8315 162.1875,350.25 C 161.06035,348.79593 162.56087,340.61676 162.65625,336.15625 C 160.65233,333.94523 158.27043,334.27735 155.96875,334.28125 C 153.00943,334.28626 149.99166,334.3526 145.875,334.25 C 145.54981,334.23583 145.22951,334.2431 144.9375,334.25 z M 144.40625,336.125 C 144.85931,336.11007 145.40181,336.13188 146.03125,336.125 C 148.54902,336.09746 151.82723,337.05529 154.53125,336.78125 C 163.98926,335.14076 159.91971,338.88996 158.625,346.28125 C 158.59247,347.66702 158.53252,349.05175 158.5,350.4375 C 149.59991,351.67212 152.91668,351.05357 143.375,349.78125 C 143.375,346.01685 142.71875,343.54562 142.71875,339.78125 C 142.48981,336.62058 143.04706,336.1698 144.40625,336.125 z M 108.21875,336.625 C 109.57538,336.62262 110.15731,340.87095 109,345.9375 C 109.58005,353.27957 105.06934,349.35955 98.84375,352.28125 C 94.152679,357.38263 94.42575,338.87103 97.3125,338.5625 C 100.20974,337.10662 106.23598,336.62846 108.21875,336.625 z M 196.0625,337.28125 C 206.36632,337.31246 208.57,341.08779 206.5625,350.09375 C 206.60847,350.5115 206.69049,350.76027 206.75,350.875 C 206.68222,350.88983 206.60476,350.92166 206.46875,351.03125 C 190.56095,351.32747 187.31,357.12494 187.75,338.875 C 188.63569,337.92429 189.81589,337.51472 191.15625,337.5 C 192.97068,337.35598 194.59053,337.27679 196.0625,337.28125 z M 141.3125,352.90625 C 144.75142,352.90828 147.97861,353.24208 150.46875,353.21875 C 153.23251,353.1929 153.21239,356.9636 152.4375,361.40625 C 148.4838,364.63828 137.47846,361.96951 131.59375,364.21875 C 129.49785,358.77716 129.31764,355.15011 130.90625,354.53125 C 134.25061,353.22843 137.8736,352.90422 141.3125,352.90625 z M 159.96875,352.9375 C 164.46368,352.9859 172.57343,353.5833 174.25,354.40625 C 176.4247,356.60367 175.22066,361.99514 172.84375,363.5 C 169.23198,363.70642 159.37805,363.52992 155.78125,362.15625 C 153.89258,359.78057 154.62405,354.46138 157.125,353.125 C 157.35958,353.03032 157.78006,352.98731 158.3125,352.96875 C 158.77839,352.95251 159.32662,352.93059 159.96875,352.9375 z M 113.03125,353.21875 C 113.95202,353.15509 115.05677,353.24093 116.4375,353.59375 C 118.64444,354.15769 121.00264,354.72075 123,354.6875 C 125.79171,354.64106 127.97873,355.44194 128.1875,357.53125 C 132.84307,368.10045 121.17412,361.61827 114.59375,363.5625 C 108.58975,367.4419 110.85123,357.35599 109.5,354.0625 C 110.47968,353.82429 111.49664,353.32486 113.03125,353.21875 z M 190.9375,353.71875 C 192.92531,353.6435 194.46075,353.79772 194.8125,354.4375 C 193.51536,355.57609 194.84975,364.31153 193.15625,364.8125 C 189.96627,364.38127 179.01377,365.41312 176.59375,363.71875 C 175.51733,360.88895 177.69569,357.12738 179.21875,354.71875 C 179.51814,354.59997 179.95603,354.55949 180.53125,354.5625 C 183.04785,354.57568 187.62448,353.84417 190.9375,353.71875 z M 200.625,353.84375 C 202.8196,353.75576 205.31695,353.98746 206.9375,355.53125 C 207.01621,357.61067 207.18295,363.04074 205.78125,364.625 C 203.93678,365.35049 199.04153,366.69843 197,363.53125 C 196.20624,362.0802 195.71024,355.6304 196.65625,354.34375 C 196.82559,354.21584 197.05025,354.13736 197.28125,354.125 C 198.11863,354.0802 199.30824,353.89654 200.625,353.84375 z M 103.625,354.25 C 104.12606,354.24978 104.65935,354.26656 105.21875,354.28125 C 111.10476,363.32606 110.9354,364.92647 97.03125,366 C 95.041806,356.14277 96.109169,354.25337 103.625,354.25 z M 150.6875,364.1875 C 155.51707,364.07848 161.96793,364.85697 165.09375,365.6875 C 166.86427,366.15796 163.87042,372.00129 163.125,375.28125 C 157.13821,374.20616 151.04815,374.71406 145,374.625 C 144.03374,372.11182 142.90597,366.97994 144.34375,365.96875 C 146.07053,364.75436 147.78977,364.25292 150.6875,364.1875 z M 169.0625,365.25 C 172.62278,366.21877 177.16458,365.68926 179.9375,366.375 C 180.87164,368.24049 176.77893,373.49043 175.6875,376.53125 C 172.73097,376.61507 169.03504,376.55471 166.40625,375.21875 C 165.39321,372.47622 165.70631,366.26677 169.0625,365.25 z M 127.8125,365.9375 C 129.84828,365.85525 132.63883,366.42658 135.28125,366.375 C 135.88523,366.36321 136.48372,366.36621 137.03125,366.375 C 138.49133,366.39844 140.28621,365.87024 140.96875,365.96875 C 141.96542,370.77381 141.74565,373.57949 140.875,375.09375 C 139.22363,376.41109 131.14746,376.53851 128.625,376.0625 C 127.61815,374.0874 124.87403,368.63714 125.1875,367.0625 C 125.65329,366.27164 126.59103,365.98685 127.8125,365.9375 z M 119.84375,366.3125 C 121.48887,366.2863 122.69133,366.47942 122.875,367.8125 C 129.01887,379.78447 122.9384,375.0791 116.53125,375.96875 C 112.66855,377.97094 110.80336,371.67649 108.4375,369.5 C 104.67542,366.56777 112.52227,366.5533 118.0625,366.375 C 118.69207,366.35474 119.29538,366.32123 119.84375,366.3125 z M 194.46875,366.5625 C 195.8908,366.59608 196.99693,366.9267 197.53125,368 C 198.47067,369.88703 197.61309,374.21429 194.15625,376.84375 C 192.59934,377.04298 180.42685,377.94208 179.5625,376.25 C 178.52934,373.26515 182.53193,366.55533 185.75,366.71875 C 185.96452,366.72965 186.17224,366.80576 186.375,366.875 C 188.92116,367.28546 192.09866,366.50653 194.46875,366.5625 z M 102.6875,367.15625 C 109.46965,371.92013 115.19825,379.83399 106.1875,376.90625 C 102.19283,378.72842 94.88096,371.07733 97.1875,370.09375 C 97.653263,368.48206 101.65046,367.20152 102.6875,367.15625 z M 202.6875,367.78125 C 207.23807,367.49321 207.20689,370.63514 198.71875,377.8125 C 196.22944,378.51339 196.76824,375.28759 197.71875,374.46875 C 198.70445,372.00512 199.56713,368.07623 200.46875,368.125 C 201.29391,367.94601 202.03742,367.8224 202.6875,367.78125 z M 151.84375,377.21875 C 152.44808,377.1841 153.17601,377.29458 154.09375,377.5625 C 153.40411,381.70628 156.0473,389.42954 153.6875,391.875 C 150.77777,392.58241 148.68369,391.38367 148.90625,388.8125 C 149.39589,384.91203 147.61349,377.46153 151.84375,377.21875 z M 145.1875,377.8125 C 146.92055,377.70299 147.39221,378.0426 146,382 C 149.65141,396.26335 143.34848,392.07311 126.0625,391.03125 C 122.55921,392.06168 124.41704,385.55814 124.5,385.40625 C 122.8149,377.4152 127.48617,377.63785 135.21875,378.25 C 137.32568,378.64299 140.47583,377.99352 143.0625,377.9375 C 143.89393,377.91949 144.60982,377.849 145.1875,377.8125 z M 119.53125,378.0625 C 121.67928,378.09792 122.61898,379.57075 121.8125,382.90625 C 125.10546,397.0502 113.7193,390.52473 106.09375,393.625 C 103.05199,393.24937 106.19619,383.94956 105.40625,380.75 C 108.05081,379.88398 115.43048,377.99488 119.53125,378.0625 z M 160.21875,378.0625 C 160.71465,378.06339 161.23516,378.06275 161.75,378.0625 C 164.2212,378.06127 167.10612,378.60443 169.625,378.90625 C 180.75384,376.73411 179.24721,382.70934 179.1875,390.71875 L 179.125,392.03125 L 177.78125,391.8125 C 161.20508,391.40244 156.69448,395.1994 155.71875,384.0625 C 153.99433,378.37276 156.74746,378.0563 160.21875,378.0625 z M 186.4375,378.6875 C 186.86324,378.67851 187.32128,378.78703 187.8125,379.0625 C 198.06559,378.99176 199.10368,378.99785 198.75,393.59375 C 195.28565,394.59109 187.48958,392.96759 182.3125,392.5 C 182.41121,388.02088 178.96207,380.0179 183.40625,379.75 C 184.17543,379.70362 185.16029,378.71447 186.4375,378.6875 z M 171.125,394.375 C 173.64201,394.41468 177.18018,394.73874 179.9375,395.0625 C 185.6444,396.18592 193.04384,393.40399 190.5625,401.1875 C 189.92494,402.90657 192.31687,409.62741 188.21875,406.875 C 180.54489,404.10862 164.70076,410.10032 167.1875,399.96875 C 165.87602,395.49755 168.60799,394.33531 171.125,394.375 z M 124.75,394.65625 C 127.30216,394.61503 130.27245,395.31514 132.46875,395.28125 C 134.97881,395.2425 136.77938,393.91944 135.5,398.34375 C 139.30408,411.89985 122.40197,404.43356 114.75,407.59375 C 111.47635,409.47894 113.71699,402.07848 113.0625,400.5625 C 110.6711,392.85497 117.96476,395.82982 123.6875,394.71875 C 124.03163,394.67796 124.38541,394.66214 124.75,394.65625 z M 139.125,394.8125 C 140.04887,394.82417 141.57774,395.46218 143.625,395.40625 C 148.88939,395.26244 156.12902,396.00217 160.1875,395.1875 C 167.77014,394.27124 164.25583,400.17977 165.375,405.03125 C 161.34665,405.03124 157.30958,405.96875 153.28125,405.96875 C 149.72562,405.96974 146.1805,405.96393 142.625,406 C 135.98295,408.52761 138.82497,401.65493 138.25,397.90625 C 137.90135,395.39884 138.20113,394.80083 139.125,394.8125 z M 108.34375,395.5 C 109.88708,395.55433 111.05227,396.66147 110.28125,399.4375 C 109.57623,402.39618 112.15808,407.81314 107.71875,408 C 102.47066,410.43919 104.4516,407.79979 104.0625,404.03125 C 103.6093,401.76014 103.62803,398.3788 104.84375,397.03125 C 105.71303,396.06774 107.14339,395.45774 108.34375,395.5 z M 195.5625,396.125 C 198.66309,396.13463 200.90239,403.129 199.28125,407.0625 C 199.1373,409.44978 195.07995,406.36645 193.40625,406.34375 C 193.3822,402.93094 193.33656,401.03777 193.3125,397.625 C 194.0826,396.55946 194.84697,396.12278 195.5625,396.125 z M 137.96875,408.75 C 138.24193,408.73704 138.49553,408.74352 138.75,408.75 C 143.16073,408.86229 144.62173,412.00901 143.34375,417.8125 C 143.92763,424.71765 131.30327,419.36929 126.78125,421.8125 C 123.39096,423.43445 126.16173,417.16875 125.1875,416.03125 C 122.03318,407.7157 129.5417,409.46285 135.25,409.15625 C 136.25097,408.9294 137.14919,408.78886 137.96875,408.75 z M 173.3125,408.75 C 177.46344,408.51333 180.32611,409.43785 178.4375,415.125 C 178.4375,415.72209 178.4375,416.34043 178.4375,416.9375 C 180.05888,425.58796 166.60346,420.77981 161.6875,422.4375 C 157.61531,421.63408 161.35955,413.0647 160.5625,409.3125 C 163.72492,410.38602 169.16156,408.98667 173.3125,408.75 z M 181.1875,408.875 C 187.29504,409.78629 193.86587,407.51763 198.75,410.90625 C 200.56452,412.16519 201.08546,417.76619 199.875,422.0625 C 199.17445,426.25507 187.40438,420.21136 183.125,421.46875 C 178.65712,420.75073 182.65033,411.61828 181.1875,408.875 z M 155.03125,409.15625 C 156.58673,409.14501 157.74959,409.49803 157.71875,411.03125 C 158.58466,417.59405 157.74444,422.19788 150.03125,420.25 C 149.76201,419.31359 145.55512,421.73298 146.15625,419.75 C 147.0811,416.27988 143.04058,408.05238 148.84375,409.34375 C 150.3685,409.79193 153.03132,409.17071 155.03125,409.15625 z M 118.78125,409.5625 C 119.01522,409.5513 119.24748,409.55775 119.46875,409.5625 C 122.59252,409.6296 124.34993,411.67892 122.40625,417.375 C 124.56384,426.61065 110.95055,419.47798 105.875,422.9375 C 101.53091,425.6536 102.99674,409.73791 107.0625,411.21875 C 110.41345,410.40024 115.27162,409.73049 118.78125,409.5625 z M 148.9375,423.21875 C 149.82773,423.25044 150.40844,423.4324 150.5,423.8125 C 151.20829,426.75311 151.67611,430.33032 151.78125,435.90625 C 148.23983,435.90625 144.69767,435.90625 141.15625,435.90625 C 136.8712,436.18682 132.3181,436.74103 133.96875,430.9375 C 136.33399,424.47773 127.74179,426.37202 124.46875,427.65625 C 123.25026,431.72733 126.75553,438.14765 118.46875,436.53125 C 107.04814,438.50072 114.19407,430.22976 112.21875,424.4375 C 122.18131,423.531 132.89333,424.49514 142.875,423.8125 C 145.11622,423.51473 147.4538,423.16593 148.9375,423.21875 z M 154.15625,423.78125 C 163.54447,424.33303 172.88283,423.41311 182.25,424.25 C 192.00997,422.41773 192.11712,428.43187 191.59375,436.53125 L 191.46875,437.03125 L 189.8125,436.9375 C 183.26839,437.54479 177.41949,437.62851 179.5625,429.90625 C 179.33799,426.17132 170.69941,426.28474 169.40625,428.5625 C 169.86509,431.41841 170.6896,435.29534 168.875,436.15625 C 165.66726,437.67814 156.95071,437.64314 154.875,435.34375 C 152.65177,432.88092 153.90963,428.3312 154.15625,423.78125 z M 106.875,424.96875 C 107.49741,424.95897 108.14154,425.13727 108.75,425.59375 C 111.25002,427.46937 110.31393,436.90755 107.71875,436.09375 C 106.68251,436.59417 103.89368,437.15749 103.5,436.75 C 102.86138,434.89814 102.46604,428.97074 104.28125,426.40625 C 104.87732,425.56414 105.83766,424.98504 106.875,424.96875 z M 196.5625,425.03125 C 197.98432,425.05699 199.47259,425.97531 200.34375,427.28125 C 201.79315,430.35925 200.61009,432.82164 200.40625,435.90625 C 198.79055,437.61254 195.50965,438.0436 194.03125,436.71875 C 192.17854,435.05837 192.54163,429.13058 193.65625,426.8125 C 194.39877,425.51772 195.45664,425.01123 196.5625,425.03125 z M 137,438.4375 C 139.0916,438.45928 141.86716,439.14431 143.4375,438.65625 C 143.31123,444.55592 143.18624,450.44405 143.0625,456.34375 C 139.02823,456.41068 135.00302,456.49556 130.96875,456.5625 C 127.4374,455.96527 123.16496,458.04607 118.78125,456.1875 C 117.18017,454.03299 118.46655,443.65482 118.03125,439.25 C 117.88393,438.73085 125.42323,437.75156 124.03125,441.125 C 124.52956,444.88135 121.79027,452.74151 128.625,450.5625 C 136.50506,452.72895 133.9743,444.84531 134.21875,440.4375 C 134.17786,438.82327 135.3732,438.42056 137,438.4375 z M 108.96875,438.5625 C 110.56448,438.58091 112.34905,438.77714 114.125,439 C 115.61498,441.56665 117.85368,454.23289 114.03125,456.5625 C 111.07986,458.36127 104.77188,458.46201 103,456.71875 C 100.33268,454.09455 102.28394,444.41611 103.53125,440.90625 C 104.18763,439.05926 106.30919,438.53182 108.96875,438.5625 z M 164.84375,438.96875 C 166.46462,438.97744 168.06607,439.16274 168.625,439.5625 C 169.81524,440.67984 169.59422,443.19291 169.3125,445.75 C 166.06231,452.16939 180.03953,453.69231 179.5625,448.28125 C 180.37488,445.65114 177.84691,439.4255 181.0625,439.375 C 189.40253,437.35454 183.89099,448.47909 185.28125,453.09375 C 185.18851,454.55142 185.3173,456.02872 185.03125,457.46875 C 177.44496,457.28721 168.84679,457.84327 161.625,456.875 C 159.93276,455.57715 160.18434,452.31433 160.40625,449.09375 C 160.74664,445.98859 159.21524,441.06761 161.09375,439.46875 C 161.61237,439.14323 163.22286,438.96009 164.84375,438.96875 z M 148.4375,439.15625 C 150.17522,439.11968 152.41622,439.63539 153.875,439.3125 C 160.8695,437.81147 156.0869,448.37328 157.71875,452.34375 L 157.71875,452.78125 C 159.82205,459.65076 152.10352,455.91332 148.1875,456.25 C 142.73713,456.24657 147.78759,445.92926 146.125,442.25 C 145.48317,439.77063 146.69979,439.19282 148.4375,439.15625 z M 194.4375,439.25 C 201.83899,439.36251 201.60945,447.31996 201.15625,454.75 C 203.51115,461.63893 192.05099,456.56988 188.90625,457.59375 C 188.91032,454.32426 184.99645,439.87907 190.78125,439.71875 C 192.17125,439.39011 193.38014,439.23393 194.4375,439.25 z M 138.0625,458.15625 C 138.43829,458.14566 138.79909,458.15106 139.1875,458.15625 C 143.18251,458.20958 147.70739,459.05568 149.71875,460 C 150.75973,461.5603 151.8379,475.52945 149.9375,476.15625 C 145.47597,477.05362 135.09663,477.95794 133.03125,475.625 C 130.85876,473.17105 130.75375,461.64776 132.25,459.8125 C 133.16346,458.69208 135.43189,458.23039 138.0625,458.15625 z M 124.25,458.6875 C 132.03194,458.35423 129.30059,468.9859 130.03125,476.25 C 127.2922,476.61438 124.53466,476.3547 121.78125,476.4375 C 118.98405,475.61702 112.25749,478.60234 113.5625,473.78125 C 114.92816,468.23635 110.09037,456.53152 120.21875,459.5625 C 121.7996,459.02653 123.1383,458.73511 124.25,458.6875 z M 164.3125,459.46875 C 167.02087,459.46036 169.41725,459.85743 170.78125,461.21875 C 173.19214,464.46757 172.31195,473.45135 170.375,476.59375 C 167.7912,477.70994 157.76215,478.05625 154.84375,477.03125 C 151.20267,474.4605 154.5227,465.36463 153.96875,460.28125 C 156.8629,460.13746 160.8303,459.47955 164.3125,459.46875 z M 181.78125,459.46875 C 184.56676,459.44976 187.34914,459.73316 188.28125,460.40625 C 190.89967,462.68799 190.1737,468.28248 190,473.25 C 190.03193,474.52812 190.06181,475.81563 190.09375,477.09375 C 185.0889,477.08202 180.09819,477.13428 175.09375,477.0625 C 174.004,474.40391 171.81403,463.56272 175.40625,460.34375 C 176.23057,459.78102 178.99575,459.48775 181.78125,459.46875 z M 107.5625,459.5 C 112.88495,459.45116 111.16185,466.28907 110.875,471.96875 L 110.84375,472.46875 L 110.84375,473.0625 C 112.37847,478.35322 106.5976,476.19378 103.34375,476.59375 C 100.22672,475.67038 100.83381,461.50164 103.8125,460.28125 C 105.33738,459.75033 106.57687,459.50904 107.5625,459.5 z M 194.75,460.6875 C 195.27567,460.66395 195.90856,460.73554 196.65625,460.9375 C 205.65661,458.70945 200.17129,471.63802 202.03125,476.71875 L 202.03125,477.25 L 201.5625,477.25 C 198.75666,476.37205 192.17197,479.36659 192.8125,474.96875 C 194.1462,470.8617 189.66844,460.91512 194.75,460.6875 z M 151.84375,478.25 C 154.13574,478.158 156.31641,478.99928 156.90625,480.78125 C 157.89228,483.76003 157.73618,487.59603 157,490.75 C 156.72376,491.93353 149.09228,491.42412 147.625,490.5625 C 145.44944,489.28496 146.01494,484.40278 146.90625,480.125 C 148.20679,478.95427 150.0611,478.32153 151.84375,478.25 z M 140.65625,478.625 C 140.88812,478.61464 141.10723,478.6094 141.3125,478.625 C 144.87047,478.8953 144.62297,482.86065 143.78125,487.46875 C 143.74804,488.58545 143.75198,489.69582 143.71875,490.8125 C 135.79199,490.81252 127.83307,490.81244 119.90625,490.8125 C 119.9358,486.93767 119.97045,483.06234 120,479.1875 C 126.06191,479.19816 132.12636,479.16576 138.1875,479.0625 C 139.13364,478.7868 139.96064,478.65608 140.65625,478.625 z M 114.34375,478.9375 C 117.27436,478.98271 117.96934,481.26639 117.28125,485 C 117.28548,485.55705 117.30824,486.13044 117.3125,486.6875 C 119.05134,492.1013 113.98058,490.76404 110.3125,490.8125 C 107.03828,489.89893 99.16786,493.34031 101.125,487.5 C 98.755707,478.64566 105.26726,478.79704 111.9375,479.25 C 112.85923,479.01025 113.66746,478.92707 114.34375,478.9375 z M 195.90625,479.5 C 196.28311,479.4791 196.62478,479.48678 196.96875,479.5 C 202.12837,479.69823 203.63352,483.68934 202.59375,490.28125 L 202.65625,490.875 L 202.6875,491.4375 C 198.40008,491.4375 194.13117,491.43743 189.84375,491.4375 C 184.51967,493.07809 186.72894,487.26034 186.34375,484 C 184.67527,478.66584 189.42927,479.86782 193.0625,479.9375 C 194.10194,479.70557 195.04486,479.54777 195.90625,479.5 z M 180.15625,479.53125 C 180.34079,479.52224 180.51851,479.52525 180.6875,479.53125 C 183.61672,479.63534 184.34888,481.96825 183.65625,485.6875 C 183.671,487.61617 183.67277,489.5088 183.6875,491.4375 C 178.21632,491.41952 172.75126,491.51726 167.28125,491.375 C 158.26016,493.81902 159.44865,486.12966 159.625,479.71875 C 165.85227,479.68068 172.05407,479.76572 178.28125,479.8125 C 178.97126,479.64782 179.60264,479.55831 180.15625,479.53125 z M 129.40625,493.34375 C 132.73827,493.26847 130.48081,498.76272 131.125,501.375 C 131.12104,503.59872 131.14749,505.83913 131.09375,508.0625 C 124.25804,510.07042 114.8783,508.90103 106.25,508.6875 C 107.30373,504.03703 107.13156,498.03322 107.78125,493.5625 C 114.5802,493.56248 121.38852,493.5625 128.1875,493.5625 C 128.66102,493.42588 129.06156,493.35154 129.40625,493.34375 z M 142.03125,493.375 C 147.4757,493.38071 152.86962,495.22347 150.28125,501.75 C 150.32055,504.29281 150.36698,506.83218 150.40625,509.375 C 144.90416,509.31071 139.40852,509.26896 133.90625,509.21875 C 133.90628,504.39342 133.90625,499.57531 133.90625,494.75 C 135.49038,494.04013 138.76459,493.37158 142.03125,493.375 z M 156.59375,493.71875 C 159.77383,493.7097 164.2273,494.95141 166.78125,494.21875 C 171.83214,492.76161 169.03917,499.14875 169.75,502.03125 C 169.75001,502.67499 169.75,503.2938 169.75,503.9375 C 171.75911,510.93128 166.25792,510.58031 160.65625,509.53125 C 150.3551,512.61702 153.50024,502.29527 152.9375,495.75 C 153.23567,494.16305 154.6857,493.72417 156.59375,493.71875 z M 201.1875,493.96875 C 203.05202,493.9107 205.22904,494.74989 206.0625,496.4375 C 207.16075,499.88294 220.76764,508.6309 215.125,509.25 C 212.08435,509.34417 209.04188,509.32922 206,509.34375 C 198.4122,511.7346 199.45855,504.60208 199.125,499 C 196.92013,495.62283 198.79027,494.04338 201.1875,493.96875 z M 172.46875,494.21875 C 180.25034,494.21875 188.03094,494.21875 195.8125,494.21875 C 196.33378,499.31772 196.76138,504.41159 197.375,509.5 C 193.66895,509.53348 189.95605,509.56027 186.25,509.59375 C 181.65686,509.67161 177.05888,509.61124 172.46875,509.8125 C 172.46875,504.60424 172.46875,499.42703 172.46875,494.21875 z M 119.46875,511.0625 C 120.22162,511.09404 121.02957,511.31954 121.9375,511.78125 C 127.14139,513.69172 138.63177,507.73553 138.21875,516.3125 C 132.45607,519.15925 128.86526,525.45111 121.3125,523.8125 C 112.23254,528.48244 112.19095,510.7577 119.46875,511.0625 z M 216.875,511.40625 C 221.96836,511.42231 221.43447,517.94318 221.5,523.375 C 212.29691,526.33245 214.48696,518.77324 213.40625,512.125 C 214.77548,511.63438 215.93178,511.40328 216.875,511.40625 z M 184.375,511.625 C 189.9398,511.43703 190.24344,522.50968 187.625,524.4375 C 185.86544,524.39593 184.04084,524.97541 182.3125,524.46875 C 174.79454,526.02182 171.14087,519.87823 165.40625,516.96875 C 165.09423,508.45742 176.41942,514.30892 181.6875,512.4375 C 182.70452,511.89023 183.58003,511.65185 184.375,511.625 z M 204.09375,511.6875 C 204.63513,511.66198 205.1507,511.66936 205.65625,511.6875 C 208.80192,511.8004 211.1385,512.88631 211.09375,516.78125 C 215.83697,526.50721 205.06816,523.48935 199.21875,524.0625 L 197.84375,524.125 L 196.5,524.15625 C 190.00605,528.19271 188.99731,512.39132 192.78125,512.3125 C 195.8118,512.94275 200.30408,511.86612 204.09375,511.6875 z M 160.3125,512.125 C 166.804,512.27476 159.61871,522.68825 158.84375,528.0625 C 156.26512,529.25659 152.25381,527.30611 149.15625,527.9375 C 142.87113,529.91359 143.63924,522.0278 141.78125,518.09375 C 136.36993,508.79312 151.56815,514.38009 156.59375,512.71875 C 158.13744,512.27639 159.38514,512.1036 160.3125,512.125 z M 164.71875,519.375 C 170.97271,522.58085 174.75582,526.96697 167.125,531.125 C 158.0371,537.84181 162.92637,523.10924 164.71875,519.375 z M 137.34375,519.53125 C 141.39058,519.53373 144.40866,530.74384 138.90625,532.375 C 137.7669,530.22278 127.41431,525.45878 133.875,522.625 C 135.00545,520.41651 136.21065,519.53056 137.34375,519.53125 z M 212.78125,526.21875 C 215.77315,526.19851 217.64063,526.87088 220.15625,526.5625 C 222.10908,531.00652 224.49403,540.56429 221.09375,544.1875 C 217.99676,547.48751 212.41573,544.47261 209.4375,546.09375 C 207.33022,547.12608 208.21148,544.07552 207.5,543.21875 C 204.00091,536.2632 207.79472,526.25244 212.78125,526.21875 z M 177.375,526.25 C 177.53298,526.23845 177.66581,526.24481 177.8125,526.25 C 181.91999,526.39529 181.75391,532.4309 182.625,535.96875 C 182.68976,539.07307 183.26745,542.70045 181.625,544.21875 C 180.43392,545.02613 173.51734,545.1269 171.90625,544.53125 C 170.17844,543.26765 171.16545,539.54097 168.15625,536.75 C 166.11705,533.12742 173.57817,529.67349 175.78125,526.59375 C 176.36346,526.4114 176.90105,526.2846 177.375,526.25 z M 197.84375,526.40625 C 198.15061,526.39492 198.42553,526.40161 198.71875,526.40625 C 201.92877,526.45697 204.24472,527.54439 204.15625,531.34375 C 204.46531,539.27076 203.84896,542.39214 200.625,544.5625 C 197.35938,546.76094 194.21791,545.51403 190.5625,545.9375 C 188.83975,546.0852 187.12739,543.17733 185.40625,543.34375 C 185.46012,537.9837 185.72545,532.61634 183.65625,527.53125 C 187.19942,528.41078 193.24087,526.57598 197.84375,526.40625 z M 174.5,546.71875 C 179.23687,546.54043 178.19486,556.43698 177.28125,558.375 L 173.78125,558.53125 C 168.98996,559.57221 171.85426,549.48609 172.09375,547.46875 C 173.0223,546.98036 173.8233,546.74423 174.5,546.71875 z M 203.6875,547.0625 C 207.14036,546.99568 210.86087,548.70142 212.75,548.5 C 218.55926,563.33224 210.79434,559.71304 200.84375,559.5 C 199.291,560.39143 198.49871,549.33842 199.34375,548.59375 C 200.6035,547.48361 202.11802,547.09287 203.6875,547.0625 z M 217.53125,547.21875 C 218.69562,547.08126 219.94347,547.91054 222.0625,547.34375 C 222.91345,549.8398 223.27924,553.5739 222.25,556 C 221.53378,557.68831 218.77174,557.90053 217.4375,559.0625 C 216.67784,557.81694 214.51171,549.9387 215.9375,548.21875 C 216.49706,547.54378 217.00199,547.28125 217.53125,547.21875 z M 182.71875,547.3125 C 187.10879,547.10988 192.81733,548.82524 195.625,548.84375 C 196.11864,548.847 196.52094,548.8508 196.8125,548.875 C 198.0736,552.8796 198.87626,556.75372 197.59375,558.5625 C 194.48819,561.09384 184.74493,558.71714 181,557.46875 C 180.31012,556.48303 178.32948,548.38416 179.9375,547.8125 C 180.75845,547.52065 181.70566,547.35926 182.71875,547.3125 z M 222.34375,559.34375 C 222.902,559.31103 223.32881,559.52152 223.53125,560.0625 C 224.54852,563.7423 224.0677,573.55679 221.71875,575.8125 C 218.90584,578.51374 214.11181,575.91891 210.8125,575.53125 C 207.96193,577.48913 209.1409,563.49753 208,562.15625 C 211.86565,562.13211 219.32926,559.52057 222.34375,559.34375 z M 179.3125,560.4375 C 182.76589,560.40194 186.34838,561.03971 187.8125,561.625 C 188.27206,569.66231 188.45056,575.31715 178.53125,575.03125 L 176.875,575.28125 C 169.23947,578.01269 171.42307,569.69871 171.3125,565.3125 C 170.64428,561.63206 174.87241,560.48319 179.3125,560.4375 z M 205.28125,561.09375 C 205.35723,561.11023 205.39776,561.16196 205.4375,561.25 C 208.46912,576.05935 205.71294,578.66087 192.46875,575.15625 C 188.50635,576.17749 191.35012,567.47047 190.5625,564.5 C 192.04271,562.93421 198.34715,562.44229 202.25,562.40625 C 203.38832,562.39575 204.74936,560.97839 205.28125,561.09375 z"
       id="path2531"
       style="opacity:1;fill:#000000;fill-opacity:1;stroke:none;stroke-opacity:1;display:inline" />
  </g>
  <g
     id="layer4" />
  <g
     id="layer2">
    <path
       d="M 300.00001,658.5 C 300.00001,658.5 598.50001,546.17969 598.50001,260.72817 C 598.50001,-24.723334 598.50001,2.1764865 598.50001,2.1764865 L 1.5,2.1764865 L 1.5,260.72817 C 1.5,546.17969 300.00001,658.5 300.00001,658.5 z"
       id="path2875"
       style="opacity:1;fill:url(#radialGradient3163);fill-opacity:1;fill-rule:evenodd;stroke:none;stroke-width:1px;stroke-linecap:butt;stroke-linejoin:miter;stroke-opacity:1" />
  </g>
  <g
     id="layer1">
    <path
       d="M 299.99999,658.50028 C 299.99999,658.50028 1.5,546.17992 1.5,260.72828 C 1.5,-24.723336 1.5,2.1764957 1.5,2.1764957 L 598.49999,2.1764957 L 598.49999,260.72828 C 598.49999,546.17992 299.99999,658.50028 299.99999,658.50028 z"
       id="path1411"
       style="opacity:1;fill:none;fill-opacity:1;fill-rule:evenodd;stroke:#000000;stroke-width:3.00000048;stroke-linecap:butt;stroke-linejoin:miter;stroke-miterlimit:4;stroke-dasharray:none;stroke-opacity:1" />
  </g>
</svg>
