<?xml version="1.0" encoding="utf-8"?>
<!-- Generator: Adobe Illustrator 16.0.0, SVG Export Plug-In . SVG Version: 6.00 Build 0)  -->
<!DOCTYPE svg PUBLIC "-//W3C//DTD SVG 1.1//EN" "http://www.w3.org/Graphics/SVG/1.1/DTD/svg11.dtd">
<svg version="1.1" id="svg2" xmlns:svg="http://www.w3.org/2000/svg"
	 xmlns="http://www.w3.org/2000/svg" xmlns:xlink="http://www.w3.org/1999/xlink" x="0px" y="0px" width="600px" height="660px"
	 viewBox="0 0 600 660" enable-background="new 0 0 600 660" xml:space="preserve">
<g id="layer3">
	<path id="path2855" fill="#FFFFFF" d="M299.385,658.545c0,0,298.5-112.32,298.5-397.771c0-285.452,0-258.552,0-258.552h-597
		v258.552C0.885,546.225,299.385,658.545,299.385,658.545z"/>
	<path id="path3953" fill="#FFFFFF" stroke="#000000" stroke-width="2.5" d="M1.576,2.04c298.303,0,298.007-0.62,298.007-0.62
		l0.907,298.824L3.447,301.377C-0.785,250.506,1.264,104.331,1.576,2.04z"/>
	<path id="path3979" fill="#5AB532" stroke="#000000" stroke-width="2.5" d="M598.074,2.103
		c-151.859,0.167-298.03-0.792-298.03-0.792l0.293,298.462l296.816,1.133C601.385,250.034,598.387,104.394,598.074,2.103z"/>
	<path id="path3985" fill="#5AB532" stroke="#000000" stroke-width="2.5" d="M3.09,301.538
		c296.659-1.545,297.431-1.545,297.431-1.545v357.69C217.064,620.504,23.864,518.936,3.09,301.538z"/>
	<path id="path3987" fill="#FFFFFF" stroke="#000000" stroke-width="2.5" d="M597.146,301.971
		c-296.658-1.545-297.431-1.545-297.431-1.545v357.69C383.171,620.938,576.372,519.369,597.146,301.971z"/>
	<path id="path2809" fill="#E20909" d="M100.461,167.01c-33.254,0-64.805,14.712-86.18,40.187V88.824
		c21.375,25.475,52.926,40.187,86.18,40.187h29.85V99.16c0-33.254-14.712-64.805-40.187-86.18h118.373
		c-25.474,21.375-40.187,52.926-40.187,86.18v29.85h29.8c33.254,0,64.804-14.712,86.18-40.187v118.373
		c-21.375-25.475-52.926-40.187-86.18-40.187h-29.8v29.8c0,33.254,14.712,64.804,40.187,86.18H90.125
		c25.475-21.375,40.187-52.926,40.187-86.18v-29.8H100.461z"/>
	<path id="path2819" fill="#E20909" d="M388.688,317.719c25.475,21.375,40.188,52.934,40.188,86.188v29.844h-29.844
		c-33.254,0-64.813-14.713-86.188-40.188v118.375c21.375-25.475,52.934-40.188,86.188-40.188h29.844v29.813
		c0,33.254-14.713,64.78-40.188,86.156h33.969c20.857-17.1,36.163-30.286,51.969-45.219c-5.047-12.907-7.75-26.753-7.75-40.938
		V471.75h29.813c11.408,0,22.616,1.728,33.281,5.031c14.805-22.101,26.854-43.959,38.156-68.656
		c-19.969,16.419-45.164,25.625-71.438,25.625h-29.813v-29.844c0-33.254,14.713-64.813,40.188-86.188H388.688z"/>
	<path id="path11370" fill="#FFFFFF" stroke="#000000" stroke-width="2.5" d="M300.233,299.083
		c0.374-40.854,0.089-42.099,0.089-42.099l298.266,0.275l-2.249,42.503L300.233,299.083z"/>
	<path id="path11157" fill="#FFFFFF" stroke="#000000" stroke-width="2.5" d="M299.622,129.506
		c0.374-40.853,0.088-42.098,0.088-42.098l298.267,0.275l-0.176,42.088L299.622,129.506z"/>
	<path id="path11368" fill="#FFFFFF" stroke="#000000" stroke-width="2.5" d="M300.451,214.082
		c0.374-40.854,0.089-42.099,0.089-42.099l298.266,0.276l-0.176,42.088L300.451,214.082z"/>
	<path id="path11239" fill="#FFFFFF" stroke="#000000" stroke-width="2.5" d="M598.801,2.352
		c-0.198,46.612-0.171,47.101-0.171,47.101c-0.081-6.134-8.786-14.879-15.034-14.89c-6.777,0.121-14.619,8.255-14.664,14.977
		c0.215-6.723-8.74-15.004-15.174-14.947c-6.336,0.125-14.648,7.393-14.694,14.918c0.114-7.466-8.071-14.809-15.174-14.863
		c-6.28,0.055-14.754,6.982-14.72,14.721c-0.024-7.68-8.829-14.662-15.177-14.634c-6.5,0.116-14.492,8.139-14.634,14.634
		c0.147-6.514-8.185-14.627-15.231-14.718c-6.46,0.127-14.612,8.714-14.581,14.773c-0.041-6.104-8.355-14.801-15.203-14.748
		c-6.311,0.057-14.714,8.655-14.665,14.805c-0.009-6.174-9.361-14.893-15.202-14.89c-6.791-0.002-14.438,9.135-14.547,14.861
		c0.109-5.765-9.4-14.882-15.38-14.861c-6.62,0.095-14.637,8.761-14.518,14.946c-0.045-6.179-8.842-15.041-15.29-15.003
		c-6.66-0.054-14.642,8.707-14.636,14.975c0.023-6.399-6.358-14.681-14.753-14.72c-7.724-0.016-14.837,8.569-14.801,14.437
		l-0.456-46.874H598.801z"/>
	<path id="path11372" fill="#FFFFFF" stroke="#000000" stroke-width="2.5" d="M299.557,658.459
		c-0.375-49.023-0.524-52.691-0.524-52.691l-95.21,0.766c15.506,9.821,26.228,18.847,47.904,29.697
		C267.064,643.64,283.06,651.05,299.557,658.459z"/>
	<path id="path11374" fill="#FFFFFF" stroke="#000000" stroke-width="2.5" d="M299.733,452.793
		c-0.375-49.024-0.089-50.519-0.089-50.519l-271.744,0.331c7.548,16.594,14.372,32.825,24.091,50.505L299.733,452.793z"/>
	<path id="path11376" fill="#FFFFFF" stroke="#000000" stroke-width="2.5" d="M299.773,554.283
		c-0.375-49.024-0.089-50.519-0.089-50.519l-210.87,1.2c14.626,16.546,27.505,33.091,47.57,49.637L299.773,554.283z"/>
	<path id="path11378" fill="#FFFFFF" stroke="#000000" stroke-width="2.5" d="M3.938,300.219
		c1.413,13.567,3.673,27.121,6.469,40.688c1.82-1.255,3.663-2.027,5.344-2.031c6.777,0.145,14.643,9.902,14.688,17.969
		c-0.214-8.068,8.722-18.006,15.156-17.938c6.336,0.15,14.642,8.875,14.688,17.906c-0.114-8.959,8.085-17.779,15.188-17.844
		c6.281,0.066,14.752,8.369,14.719,17.656c0.024-9.216,8.839-17.596,15.188-17.563c6.5,0.139,14.483,9.769,14.625,17.563
		c-0.147-7.816,8.172-17.548,15.219-17.656c6.46,0.152,14.625,10.447,14.594,17.719c0.041-7.326,8.339-17.752,15.188-17.688
		c6.311,0.068,14.736,10.369,14.688,17.75c0.009-7.409,9.347-17.847,15.188-17.844c6.792-0.002,14.454,10.941,14.563,17.813
		c-0.11-6.918,9.395-17.838,15.375-17.813c6.62,0.114,14.62,10.516,14.5,17.938c0.045-7.414,8.864-18.076,15.313-18.031
		c6.66-0.064,14.631,10.447,14.625,17.969c-0.022-7.679,6.355-17.609,14.75-17.656c7.723-0.02,14.848,10.303,14.813,17.344
		l0.438-56.25H3.938z"/>
</g>
<radialGradient id="path2875_1_" cx="213.8467" cy="433.1084" r="299.9991" gradientTransform="matrix(1.3532 0 0 -1.3489 -67.3464 803.7891)" gradientUnits="userSpaceOnUse">
	<stop  offset="0" style="stop-color:#FFFFFF;stop-opacity:0.3137"/>
	<stop  offset="0.19" style="stop-color:#FFFFFF;stop-opacity:0.251"/>
	<stop  offset="0.6" style="stop-color:#6B6B6B;stop-opacity:0.1255"/>
	<stop  offset="1" style="stop-color:#000000;stop-opacity:0.1255"/>
</radialGradient>
<path id="path2875" fill="url(#path2875_1_)" d="M300,658.5c0,0,298.5-112.32,298.5-397.772c0-285.451,0-258.551,0-258.551H1.5
	v258.551C1.5,546.18,300,658.5,300,658.5z"/>
<path id="path1411" fill="none" stroke="#000000" stroke-width="3" d="M300,658.5c0,0-298.5-112.32-298.5-397.771
	c0-285.452,0-258.552,0-258.552h597v258.552C598.5,546.18,300,658.5,300,658.5z"/>
</svg>
