<?xml version="1.0" encoding="UTF-8" standalone="no"?>
<svg
   xmlns:dc="http://purl.org/dc/elements/1.1/"
   xmlns:cc="http://creativecommons.org/ns#"
   xmlns:rdf="http://www.w3.org/1999/02/22-rdf-syntax-ns#"
   xmlns:svg="http://www.w3.org/2000/svg"
   xmlns="http://www.w3.org/2000/svg"
   xmlns:xlink="http://www.w3.org/1999/xlink"
   xmlns:sodipodi="http://sodipodi.sourceforge.net/DTD/sodipodi-0.dtd"
   xmlns:inkscape="http://www.inkscape.org/namespaces/inkscape"
   height="660"
   width="600"
   version="1.0"
   id="svg2"
   sodipodi:version="0.32"
   inkscape:version="0.46"
   sodipodi:docname="Armoiries Gérard de Ridefort.svg"
   sodipodi:docbase="D:\Mes documents\Renaud-Notre Lapin"
   inkscape:export-filename="/Users/olivier/Desktop/Blason Rouge/Blason_Vide_3D.png"
   inkscape:export-xdpi="144"
   inkscape:export-ydpi="144"
   inkscape:output_extension="org.inkscape.output.svg.inkscape">
  <metadata
     id="metadata49">
    <rdf:RDF>
      <cc:Work
         rdf:about="">
        <dc:format>image/svg+xml</dc:format>
        <dc:type
           rdf:resource="http://purl.org/dc/dcmitype/StillImage" />
        <dc:title>Gabarit d'un blason en pointe pour le projet Blasons de Wikipédia</dc:title>
        <dc:date>03-AUG-2006</dc:date>
        <dc:creator>
          <cc:Agent>
            <dc:title>Jérôme BLUM (wagner51)</dc:title>
          </cc:Agent>
        </dc:creator>
        <cc:license
           rdf:resource="http://web.resource.org/cc/PublicDomain" />
        <dc:language>fr</dc:language>
        <dc:subject>
          <rdf:Bag>
            <rdf:li>gabarit modèle blason projet wikipédia</rdf:li>
          </rdf:Bag>
        </dc:subject>
      </cc:Work>
      <cc:License
         rdf:about="http://web.resource.org/cc/PublicDomain">
        <cc:permits
           rdf:resource="http://web.resource.org/cc/Reproduction" />
        <cc:permits
           rdf:resource="http://web.resource.org/cc/Distribution" />
        <cc:permits
           rdf:resource="http://web.resource.org/cc/DerivativeWorks" />
      </cc:License>
    </rdf:RDF>
  </metadata>
  <sodipodi:namedview
     inkscape:window-height="740"
     inkscape:window-width="1280"
     inkscape:pageshadow="2"
     inkscape:pageopacity="0.0"
     guidetolerance="10.0"
     gridtolerance="10.0"
     objecttolerance="10.0"
     borderopacity="1.0"
     bordercolor="#666666"
     pagecolor="#ffffff"
     id="base"
     showgrid="false"
     height="660px"
     inkscape:zoom="0.81060571"
     inkscape:cx="333.97056"
     inkscape:cy="374.62375"
     inkscape:window-x="-4"
     inkscape:window-y="-4"
     inkscape:current-layer="layer3" />
  <desc
     id="desc4">Flag of Canton of Valais (Wallis)</desc>
  <defs
     id="defs6">
    <inkscape:perspective
       sodipodi:type="inkscape:persp3d"
       inkscape:vp_x="0 : 330 : 1"
       inkscape:vp_y="0 : 1000 : 0"
       inkscape:vp_z="600 : 330 : 1"
       inkscape:persp3d-origin="300 : 220 : 1"
       id="perspective3177" />
    <linearGradient
       id="linearGradient2893">
      <stop
         style="stop-color:white;stop-opacity:0.3137255;"
         offset="0"
         id="stop2895" />
      <stop
         id="stop2897"
         offset="0.19"
         style="stop-color:white;stop-opacity:0.25098041;" />
      <stop
         style="stop-color:#6b6b6b;stop-opacity:0.1254902;"
         offset="0.60000002"
         id="stop2901" />
      <stop
         style="stop-color:black;stop-opacity:0.1254902;"
         offset="1"
         id="stop2899" />
    </linearGradient>
    <linearGradient
       id="linearGradient2885">
      <stop
         id="stop2887"
         offset="0"
         style="stop-color:white;stop-opacity:1;" />
      <stop
         style="stop-color:white;stop-opacity:1;"
         offset="0.22857143"
         id="stop2891" />
      <stop
         id="stop2889"
         offset="1"
         style="stop-color:black;stop-opacity:1;" />
    </linearGradient>
    <linearGradient
       id="linearGradient2955">
      <stop
         id="stop2867"
         offset="0"
         style="stop-color:#fd0000;stop-opacity:1;" />
      <stop
         style="stop-color:#e77275;stop-opacity:0.65882355;"
         offset="0.5"
         id="stop2873" />
      <stop
         style="stop-color:black;stop-opacity:0.32291666;"
         offset="1"
         id="stop2959" />
    </linearGradient>
    <radialGradient
       inkscape:collect="always"
       xlink:href="#linearGradient2955"
       id="radialGradient2961"
       cx="225.52438"
       cy="218.90099"
       fx="225.52438"
       fy="218.90099"
       r="300"
       gradientTransform="matrix(-4.167939e-4,2.182867,-1.884232,-3.599562e-4,615.5972,-289.1214)"
       gradientUnits="userSpaceOnUse" />
    <polygon
       id="star"
       transform="scale(53,53)"
       points="0,-1 0.58778525,0.80901699 -0.95105652,-0.30901699 0.95105652,-0.30901699 -0.58778525,0.80901699 0,-1 " />
    <clipPath
       id="clip">
      <path
         d="M 0,-200 L 0,600 L 300,600 L 300,-200 L 0,-200 z "
         id="path10" />
    </clipPath>
    <radialGradient
       inkscape:collect="always"
       xlink:href="#linearGradient2955"
       id="radialGradient1911"
       gradientUnits="userSpaceOnUse"
       gradientTransform="matrix(-4.167939e-4,2.182867,-1.884232,-3.599562e-4,615.5972,-289.1214)"
       cx="225.52438"
       cy="218.90099"
       fx="225.52438"
       fy="218.90099"
       r="300" />
    <radialGradient
       inkscape:collect="always"
       xlink:href="#linearGradient2955"
       id="radialGradient2865"
       gradientUnits="userSpaceOnUse"
       gradientTransform="matrix(0,1.748721,-1.593162,-1.049767e-7,551.7876,-191.2898)"
       cx="225.52438"
       cy="218.90099"
       fx="225.52438"
       fy="218.90099"
       r="300" />
    <radialGradient
       inkscape:collect="always"
       xlink:href="#linearGradient2955"
       id="radialGradient2871"
       gradientUnits="userSpaceOnUse"
       gradientTransform="matrix(0,1.386237,-1.323286,-5.741131e-8,-158.0823,-109.5408)"
       cx="225.52438"
       cy="218.90099"
       fx="225.52438"
       fy="218.90099"
       r="300" />
    <radialGradient
       inkscape:collect="always"
       xlink:href="#linearGradient2893"
       id="radialGradient3163"
       gradientUnits="userSpaceOnUse"
       gradientTransform="matrix(1.353218,0,0,1.348928,-77.62935,-85.74693)"
       cx="221.44487"
       cy="226.33101"
       fx="221.44487"
       fy="226.33101"
       r="300" />
    <filter
       inkscape:collect="always"
       id="filter3392">
      <feGaussianBlur
         inkscape:collect="always"
         stdDeviation="0.85688227"
         id="feGaussianBlur3394" />
    </filter>
  </defs>
  <g
     inkscape:groupmode="layer"
     id="layer3"
     inkscape:label="Fond écu"
     style="display:inline">
    <path
       id="path2855"
       style="fill:#ffffff;fill-opacity:1;fill-rule:evenodd;stroke:none;stroke-width:1px;stroke-linecap:butt;stroke-linejoin:miter;stroke-opacity:1"
       d="M 299.38462,658.54498 C 299.38462,658.54498 597.88463,546.22467 597.88463,260.77315 C 597.88463,-24.678377 597.88463,2.2214629 597.88463,2.2214629 L 0.88462171,2.2214629 L 0.88462171,260.77315 C 0.88462171,546.22467 299.38462,658.54498 299.38462,658.54498 z"
       sodipodi:nodetypes="cccccc" />
    <path
       style="fill:#bababa;fill-rule:evenodd;stroke:#000000;stroke-width:2.50000000000000000;stroke-linecap:butt;stroke-linejoin:miter;stroke-opacity:1;stroke-miterlimit:4;stroke-dasharray:none"
       d="M 1.5757851,2.0398779 C 299.87889,2.0398779 299.58338,1.4200074 299.58338,1.4200074 L 300.48994,300.2439 C 300.48994,300.2439 3.4470846,301.37728 3.4470846,301.37728 C -0.7845603,250.50576 1.2637563,104.33088 1.5757851,2.0398779 z"
       id="path3953"
       sodipodi:nodetypes="ccccc" />
    <path
       style="fill:#f7d55d;fill-rule:evenodd;stroke:#000000;stroke-width:2.50000000000000000;stroke-linecap:butt;stroke-linejoin:miter;stroke-miterlimit:4;stroke-dasharray:none;stroke-opacity:1;display:inline"
       d="M 598.07421,2.1032359 C 446.21471,2.2699893 300.04416,1.3106234 300.04416,1.3106234 L 300.33672,299.77257 C 300.33672,299.77257 597.15293,300.90595 597.15293,300.90595 C 601.38458,250.03443 598.38624,104.39424 598.07421,2.1032359 z"
       id="path3979"
       sodipodi:nodetypes="ccccc" />
    <path
       style="fill:#f7d55d;fill-rule:evenodd;stroke:#000000;stroke-width:2.50000000000000000;stroke-linecap:butt;stroke-linejoin:miter;stroke-opacity:1;stroke-miterlimit:4;stroke-dasharray:none;opacity:1"
       d="M 3.0901914,301.5378 C 299.74856,299.99271 300.52111,299.99271 300.52111,299.99271 L 300.52111,657.68236 C 217.06467,620.50388 23.863565,518.9357 3.0901914,301.5378 z"
       id="path3985"
       sodipodi:nodetypes="cccc" />
    <path
       style="opacity:1;fill:#bababa;fill-rule:evenodd;stroke:#000000;stroke-width:2.5;stroke-linecap:butt;stroke-linejoin:miter;stroke-miterlimit:4;stroke-dasharray:none;stroke-opacity:1;display:inline"
       d="M 597.14537,301.97129 C 300.487,300.4262 299.71445,300.4262 299.71445,300.4262 L 299.71445,658.11585 C 383.17089,620.93737 576.372,519.36919 597.14537,301.97129 z"
       id="path3987"
       sodipodi:nodetypes="cccc" />
    <path
       style="fill:#e20909;stroke:none"
       d="M 100.46122,167.01028 C 67.207218,167.01028 35.656568,181.72228 14.281218,207.19678 L 14.281218,88.823776 C 35.656568,114.29828 67.207218,129.01028 100.46122,129.01028 L 130.31122,129.01028 L 130.31122,99.160276 C 130.31122,65.906266 115.59922,34.355626 90.124718,12.980276 L 208.49772,12.980276 C 183.02322,34.355626 168.31122,65.906266 168.31122,99.160276 L 168.31122,129.01028 L 198.11122,129.01028 C 231.36522,129.01028 262.91572,114.29828 284.29122,88.823776 L 284.29122,207.19678 C 262.91572,181.72228 231.36522,167.01028 198.11122,167.01028 L 168.31122,167.01028 L 168.31122,196.81028 C 168.31122,230.06428 183.02322,261.61478 208.49772,282.99028 L 90.124718,282.99028 C 115.59922,261.61478 130.31122,230.06428 130.31122,196.81028 L 130.31122,167.01028 L 100.46122,167.01028 z"
       id="path2809" />
    <path
       style="fill:#e20909;stroke:none;display:inline"
       d="M 388.6875 317.71875 C 414.162 339.0941 428.875 370.65223 428.875 403.90625 L 428.875 433.75 L 399.03125 433.75 C 365.77725 433.75 334.2191 419.03701 312.84375 393.5625 L 312.84375 511.9375 C 334.2191 486.463 365.77726 471.75 399.03125 471.75 L 428.875 471.75 L 428.875 501.5625 C 428.875 534.8165 414.162 566.34324 388.6875 587.71875 L 422.65625 587.71875 C 443.5139 570.61869 458.81901 557.43261 474.625 542.5 C 469.57805 529.59295 466.875 515.74687 466.875 501.5625 L 466.875 471.75 L 496.6875 471.75 C 508.09523 471.75 519.30396 473.47801 529.96875 476.78125 C 544.77392 454.68059 556.8224 432.82228 568.125 408.125 C 548.15654 424.54415 522.96063 433.75 496.6875 433.75 L 466.875 433.75 L 466.875 403.90625 C 466.875 370.65224 481.58801 339.09411 507.0625 317.71875 L 388.6875 317.71875 z "
       id="path2819" />
    <g
       transform="matrix(0.5,0,0,0.5,334.5186,21.076151)"
       id="g3046">
      <path
         d="M 63.414613,130.96542 C 53.406419,138.5104 38.426809,139.81366 32.502608,132.37051 C 32.502608,132.37051 42.564825,134.72603 47.115554,129.27933 C 53.291315,121.88763 53.515319,118.39526 54.422036,120.00572 L 63.414613,130.96542 z"
         style="fill:#e20909;fill-opacity:1;fill-rule:evenodd;stroke:#404040;stroke-width:6;stroke-linecap:butt;stroke-linejoin:miter;stroke-miterlimit:4;stroke-dasharray:none;stroke-opacity:1;display:inline"
         id="path1994" />
      <path
         d="M 44.305374,99.210396 C 35.541664,92.364884 24.972987,93.14788 20.699858,104.26871 C 19.567987,103.84425 21.177983,90.339683 26.039201,85.440502 C 31.037794,80.402862 32.362101,78.625813 39.80909,78.415052 C 47.256061,78.204292 56.670169,82.630322 56.670169,82.630322 L 44.305374,99.210396 z"
         style="fill:#e20909;fill-opacity:1;fill-rule:evenodd;stroke:#404040;stroke-width:6;stroke-linecap:butt;stroke-linejoin:miter;stroke-miterlimit:4;stroke-dasharray:none;stroke-opacity:1;display:inline"
         id="path1996" />
      <path
         d="M 59.480358,68.298399 C 54.884559,55.724951 51.711497,42.560106 31.940584,44.692876 C 31.940584,44.692876 41.808563,38.464479 53.297951,40.196592 C 67.495111,42.336917 77.937255,59.578487 77.184488,59.86786 L 59.480358,68.298399 z"
         style="fill:#e20909;fill-opacity:1;fill-rule:evenodd;stroke:#404040;stroke-width:6;stroke-linecap:butt;stroke-linejoin:miter;stroke-miterlimit:4;stroke-dasharray:none;stroke-opacity:1;display:inline;filter:url(#filter3392)"
         id="path1998" />
      <path
         d="M 92.078449,60.710912 C 98.067043,54.990424 97.428959,42.643248 99.384922,32.890119 C 99.384922,32.890119 107.04267,39.564301 108.93954,48.908146 C 110.83641,58.25201 106.9724,70.265527 106.9724,70.265527 L 92.078449,60.710912 z"
         style="fill:#e20909;fill-opacity:1;fill-rule:evenodd;stroke:#404040;stroke-width:6;stroke-linecap:butt;stroke-linejoin:miter;stroke-miterlimit:4;stroke-dasharray:none;stroke-opacity:1;display:inline"
         id="path2000" />
      <path
         d="M 136.76032,171.71305 L 126.92468,166.86549 C 130.49152,163.06633 126.42,160.03102 122.70942,156.9596 C 120.50668,153.30971 116.47387,153.27425 112.03073,154.85197 C 111.39031,147.88046 106.33296,146.58787 100.50899,146.28092 C 99.211418,135.64776 93.898606,136.2573 88.987255,135.74274 C 87.008043,130.31271 83.424395,129.28764 80.135175,130.12237 C 79.052034,128.15968 76.093658,127.60341 69.034963,130.12237 C 69.034963,130.12237 64.53868,137.85037 59.480358,135.74274 C 54.422036,133.6351 49.504212,127.59322 47.677592,123.37795 C 45.850971,119.16267 54.562534,120.00573 54.422027,114.9474 C 54.28152,109.88908 50.909293,106.23584 47.115554,103.14464 C 43.321815,100.05344 37.841953,103.42566 38.825522,96.119192 C 39.80909,88.812719 40.265733,82.138547 45.148426,78.274555 C 50.031109,74.410553 58.356282,80.663204 58.356282,80.663204 C 58.356282,80.663204 63.801003,79.679645 62.799873,76.483056 C 61.798744,73.286477 54.351773,67.876878 57.232206,64.083139 C 62.993073,56.495643 67.34885,52.912664 74.374309,52.842411 C 81.399758,52.772157 78.800348,63.731862 83.226379,64.645168 C 87.652409,65.558483 88.460339,54.598768 95.450666,57.338695 C 102.44099,60.078621 111.55183,65.556213 109.22054,73.075707 C 107.23987,79.464355 104.89542,77.244766 105.66546,79.52329 C 106.74132,82.70678 103.74722,79.893144 115.12192,90.358316 C 119.95482,94.804761 126.62172,101.12921 134.25037,107.11787 C 141.87902,113.10651 150.63339,121.31202 158.16599,127.34293 C 165.69859,133.37385 172.85248,135.82506 177.8422,139.85977 C 182.83192,143.89446 185.93848,146.42142 185.93848,146.42142 L 136.76032,171.71305 z"
         style="fill:#000000;fill-opacity:1;fill-rule:evenodd;stroke:#404040;stroke-width:6.00000047999999970;stroke-linecap:butt;stroke-linejoin:miter;stroke-miterlimit:4;stroke-dasharray:none;stroke-opacity:1;display:inline"
         id="path2002" />
      <path
         d="M 81.688806,378.00236 C 82.777281,363.18019 67.603637,354.67648 52.875884,354.75329 C 52.875884,354.75329 70.461703,347.94752 80.496554,351.57394 C 90.531396,355.20036 94.207532,360.9133 94.207532,360.9133 L 81.688806,378.00236 z"
         style="fill:#e20909;fill-opacity:1;fill-rule:evenodd;stroke:#404040;stroke-width:6;stroke-linecap:butt;stroke-linejoin:miter;stroke-miterlimit:4;stroke-dasharray:none;stroke-opacity:1;display:inline"
         id="path2004" />
      <path
         d="M 74.137829,400.25783 C 61.068651,388.83185 52.453166,400.36328 41.152018,405.42435 C 41.152018,405.42435 48.504279,387.98758 57.446213,382.57268 C 66.388156,377.15789 76.919771,383.76496 76.919771,383.76496 L 74.137829,400.25783 z"
         style="fill:#e20909;fill-opacity:1;fill-rule:evenodd;stroke:#404040;stroke-width:6;stroke-linecap:butt;stroke-linejoin:miter;stroke-miterlimit:4;stroke-dasharray:none;stroke-opacity:1;display:inline"
         id="path2006" />
      <path
         d="M 84.073328,420.32753 C 78.793052,422.78671 74.271978,428.28262 72.150746,443.37789 C 72.150746,443.37789 69.96493,429.36885 71.355906,421.91721 C 72.746872,414.46557 77.714612,413.57143 77.714612,413.57143 L 84.073328,420.32753 z"
         style="fill:#e20909;fill-opacity:1;fill-rule:evenodd;stroke:#404040;stroke-width:6;stroke-linecap:butt;stroke-linejoin:miter;stroke-miterlimit:4;stroke-dasharray:none;stroke-opacity:1;display:inline"
         id="path2008" />
      <path
         d="M 114.27722,422.7121 C 109.78104,427.29525 109.36955,433.62901 112.29011,441.39083 C 112.29011,441.39083 104.34173,431.15722 102.35463,425.89145 C 100.36753,420.62558 104.34172,420.32753 104.34172,420.32753 L 114.27722,422.7121 z"
         style="fill:#e20909;fill-opacity:1;fill-rule:evenodd;stroke:#404040;stroke-width:6;stroke-linecap:butt;stroke-linejoin:miter;stroke-miterlimit:4;stroke-dasharray:none;stroke-opacity:1;display:inline"
         id="path2010" />
      <path
         d="M 193.11807,296.46378 C 187.2703,296.46512 181.63524,296.80505 176.65596,297.62176 C 150.09976,301.97755 141.82262,320.09286 141.82262,320.09286 C 141.82262,320.09286 159.9379,346.6453 150.8048,358.86958 C 141.67172,371.09386 116.6476,377.36368 106.958,368.97844 L 99.66585,362.65649 C 96.10117,359.57167 97.555907,354.8076 91.935538,357.6177 C 86.315169,360.4279 81.121128,368.34229 79.980171,371.23181 C 76.807166,379.26771 87.866961,379.68194 87.866961,379.68194 L 84.486902,382.46736 C 84.167328,383.18632 80.603883,377.35076 77.194753,379.68194 C 71.779371,383.38497 69.887275,392.88763 70.027791,398.92947 C 70.168298,404.97141 77.758093,403.84307 77.758093,403.84307 L 79.448123,410.00853 C 79.448123,410.00853 74.504541,411.00382 75.06657,415.07861 C 75.628627,419.15341 81.99417,423.35899 85.050251,424.34247 C 88.106314,425.32604 89.682178,419.58535 89.682178,419.58535 L 101.91922,417.33198 C 101.91922,417.33197 98.816622,421.24799 103.73444,422.93411 C 108.65224,424.62023 112.48052,425.62227 116.94168,424.21728 C 121.40284,422.81217 118.22485,416.33048 118.22485,416.33048 C 150.7302,406.74997 185.80356,400.92911 227.26286,404.40641 C 214.8145,388.59547 211.65303,369.42591 212.64727,348.76071 C 228.89876,345.58514 238.31757,349.22937 246.91725,353.70561 C 251.06412,349.11297 257.61105,341.75874 254.96053,336.68015 C 249.82573,326.84144 241.62369,314.57035 237.46563,300.72013 C 226.58141,298.89702 209.0335,296.46013 193.11807,296.46378 z"
         style="fill:#000000;fill-opacity:1;fill-rule:evenodd;stroke:#404040;stroke-width:6.00000047999999970;stroke-linecap:butt;stroke-linejoin:miter;stroke-miterlimit:4;stroke-dasharray:none;stroke-opacity:1;display:inline"
         id="path2012" />
      <path
         d="M 44.132665,194.39452 C 41.6806,187.95449 34.161077,182.29406 24.857805,176.90806 C 24.857805,176.90806 37.724264,178.29903 45.324917,180.88226 C 52.92557,183.46549 55.260406,187.24097 55.260406,187.24097 L 44.132665,194.39452 z"
         style="fill:#e20909;fill-opacity:1;fill-rule:evenodd;stroke:#404040;stroke-width:6;stroke-linecap:butt;stroke-linejoin:miter;stroke-miterlimit:4;stroke-dasharray:none;stroke-opacity:1;display:inline"
         id="path2014" />
      <path
         d="M 33.402326,218.04098 C 23.16923,210.95638 15.468317,219.06487 7.172644,223.60487 C 7.172644,223.60487 14.336184,210.43886 21.688446,205.76918 C 29.040699,201.09951 36.581679,204.92614 36.581679,204.92614 L 33.402326,218.04098 z"
         style="fill:#e20909;fill-opacity:1;fill-rule:evenodd;stroke:#404040;stroke-width:6;stroke-linecap:butt;stroke-linejoin:miter;stroke-miterlimit:4;stroke-dasharray:none;stroke-opacity:1;display:inline"
         id="path2016" />
      <path
         d="M 40.357177,242.08487 C 33.143727,242.15399 25.466084,243.89934 14.92232,255.99456 C 14.92232,255.99456 14.57458,246.30745 19.890068,239.70036 C 25.205555,233.09326 36.184268,229.56615 36.184268,229.56615 L 40.357177,242.08487 z"
         style="fill:#e20909;fill-opacity:1;fill-rule:evenodd;stroke:#404040;stroke-width:6;stroke-linecap:butt;stroke-linejoin:miter;stroke-miterlimit:4;stroke-dasharray:none;stroke-opacity:1;display:inline"
         id="path2018" />
      <path
         d="M 51.880279,251.64705 C 51.317361,255.555 46.962857,259.60347 40.493548,262.03609 C 40.493548,262.03609 51.981174,262.45864 56.651382,260.16746 C 61.321581,257.87627 60.228155,254.20617 60.228155,254.20617 L 51.880279,251.64705 z"
         style="fill:#e20909;fill-opacity:1;fill-rule:evenodd;stroke:#404040;stroke-width:6;stroke-linecap:butt;stroke-linejoin:miter;stroke-miterlimit:4;stroke-dasharray:none;stroke-opacity:1;display:inline"
         id="path2020" />
      <path
         d="M 256.156,506.56757 C 259.66185,508.81633 261.16441,512.46729 254.16891,522.06695 C 254.16891,522.06695 264.00504,517.39726 267.28376,513.32376 C 270.56246,509.25018 267.28376,505.77278 267.28376,505.77278 L 256.156,506.56757 z"
         style="fill:#e20909;fill-opacity:1;fill-rule:evenodd;stroke:#404040;stroke-width:6;stroke-linecap:butt;stroke-linejoin:miter;stroke-miterlimit:4;stroke-dasharray:none;stroke-opacity:1;display:inline"
         id="path2022" />
      <path
         d="M 232.31083,501.40115 C 231.86815,511.71146 222.14513,511.22153 211.2476,515.70824 C 211.2476,515.70824 226.05148,519.68248 233.10568,515.31084 C 240.15987,510.9392 243.43858,506.96496 243.43858,506.96496 L 232.31083,501.40115 z"
         style="fill:#e20909;fill-opacity:1;fill-rule:evenodd;stroke:#404040;stroke-width:6;stroke-linecap:butt;stroke-linejoin:miter;stroke-miterlimit:4;stroke-dasharray:none;stroke-opacity:1;display:inline"
         id="path2024" />
      <path
         d="M 228.33663,496.23472 C 218.58944,485.24609 205.82342,495.38925 194.15854,497.8244 C 194.15854,497.8244 205.58436,485.90177 214.82436,483.11981 C 224.06437,480.33785 231.11856,486.69666 231.11856,486.69666 L 228.33663,496.23472 z"
         style="fill:#e20909;fill-opacity:1;fill-rule:evenodd;stroke:#404040;stroke-width:6;stroke-linecap:butt;stroke-linejoin:miter;stroke-miterlimit:4;stroke-dasharray:none;stroke-opacity:1;display:inline"
         id="path2026" />
      <path
         d="M 235.09277,472.78697 C 231.15759,455.41208 215.3863,457.764 202.50437,455.30041 C 202.50437,455.30041 221.5805,449.04106 231.51599,448.94171 C 241.45147,448.84237 242.24632,454.90302 242.24632,454.90302 L 235.09277,472.78697 z"
         style="fill:#e20909;fill-opacity:1;fill-rule:evenodd;stroke:#404040;stroke-width:6;stroke-linecap:butt;stroke-linejoin:miter;stroke-miterlimit:4;stroke-dasharray:none;stroke-opacity:1;display:inline"
         id="path2028" />
      <path
         d="M 172.30048,169.15838 C 172.30048,169.15838 130.77014,186.44613 103.14947,192.20871 C 75.528814,197.9713 60.228155,190.22162 60.228155,190.22162 C 60.228155,190.22162 61.619122,181.67709 54.66428,182.67065 C 47.709439,183.66419 42.940404,188.43324 40.357177,193.40098 C 39.065554,195.88485 43.437177,197.37516 44.554924,199.8342 C 45.672661,202.29323 42.741689,204.92614 42.741689,204.92614 C 42.741689,204.92614 36.382983,196.77904 33.20362,201.74679 C 30.024259,206.71453 26.646189,212.87453 28.831997,219.63066 C 29.9249,223.00873 33.998461,219.3326 37.003947,220.77325 C 40.009423,222.21389 39.562336,227.57905 39.562336,227.57905 C 39.562336,227.57905 32.01136,224.89647 33.20362,230.36099 C 34.395881,235.82552 33.998461,241.48874 38.370075,245.06552 C 42.741689,248.6423 44.728791,240.6939 44.728791,240.6939 L 51.484927,246.25778 C 51.484927,246.25778 46.914598,250.23197 50.690087,253.41132 C 54.465575,256.59068 58.837189,258.9752 62.612668,258.9752 C 66.388156,258.9752 65.394601,251.42422 65.394601,251.42422 C 68.578789,247.59216 72.41803,245.07021 77.714612,245.46294 C 86.025853,248.55993 85.44163,254.32557 83.278487,260.56488 C 93.882481,260.84211 101.6495,255.44538 110.30301,251.82165 C 116.83697,252.81572 118.603,255.59776 116.66173,259.77004 C 131.14265,264.39395 143.14099,257.84621 155.60885,253.41132 C 158.27813,255.58525 159.21725,258.79724 156.60239,264.14164 C 170.9095,242.94594 185.21661,234.73261 199.52371,239.50164 C 210.89974,256.44199 222.15696,267.1813 235.09277,279.44231 C 232.87987,302.05179 247.3273,322.03867 254.96375,336.67076 C 258.65032,343.73452 244.47785,355.2929 243.836,357.53525 C 239.48999,372.71805 242.63438,396.83741 243.69962,396.48238 C 247.07832,389.63655 252.57406,387.02494 258.93794,386.14943 C 258.33492,391.06238 254.87346,393.83141 259.73277,402.84108 C 266.22899,409.51837 273.20302,415.00117 281.19343,417.94307 C 271.83267,429.86609 265.70383,443.95196 257.34826,456.8901 C 255.16171,460.27596 252.97665,458.67857 249.39986,456.8901 C 245.82309,455.10172 245.99357,449.29925 243.04116,449.7366 C 235.8861,450.79648 226.44837,468.73271 230.00276,475.50072 C 232.63083,480.5048 235.19711,475.10914 236.86703,477.41128 C 238.53694,479.71352 238.9144,482.88496 236.68244,484.70949 C 234.45049,486.53401 231.11856,479.1656 227.93921,482.74234 C 224.75986,486.31919 225.21961,492.1379 226.21316,496.20648 C 227.20672,500.27496 230.92986,497.75209 230.92986,497.75209 L 232.52001,500.21177 C 231.04073,501.16008 230.08071,500.74396 230.70118,503.2457 C 231.6426,507.04137 239.87985,513.45637 243.30976,508.69525 C 244.63038,506.86201 245.03511,505.80002 245.08816,505.80923 L 252.04414,504.47824 C 253.67298,504.16658 251.70137,509.79009 252.76382,510.06039 C 257.53149,511.2729 268.72103,511.12108 271.69945,508.55885 C 275.77275,505.0547 269.82003,499.89579 276.57318,500.65453 C 276.57318,500.65453 278.32318,501.908 279.71468,501.00746 C 304.94445,484.67864 322.37126,458.87657 324.11475,452.91595 C 325.88627,446.8595 323.12121,447.35204 326.30056,444.76888 C 329.47991,442.18561 336.83217,442.583 336.83217,442.583 C 336.83217,442.583 350.44164,436.48358 338.42185,428.27592 C 328.72138,421.65202 319.31027,390.07861 322.52507,386.14943 C 321.77363,375.39915 315.46758,365.65889 309.01281,355.94557 C 307.14363,346.30947 310.13077,339.9109 314.57668,334.48489 C 317.11909,333.56962 353.76561,378.65453 366.24122,394.09782 C 382.10705,413.73788 403.59867,382.17529 403.59867,382.17529 C 403.59867,382.17529 417.90577,362.70168 416.91222,337.86294 C 415.91867,313.02426 399.62446,282.82037 399.62446,282.82037 C 396.06682,266.89121 406.09763,254.84446 417.11093,243.07841 C 406.59836,247.99073 395.64858,248.09384 386.11221,263.74423 C 386.11221,263.74423 383.52897,252.61648 385.71478,240.6939 C 387.90059,228.77132 400.02189,220.82292 400.02189,220.82292 C 385.78961,227.94479 373.84048,235.44718 372.20252,244.6681 C 367.77143,217.80887 380.36462,194.19236 398.03479,171.5429 C 379.63411,183.39647 363.40071,196.98388 355.51089,217.24614 C 345.44708,169.25263 382.97255,146.52001 424.26448,109.54544 C 455.25532,81.79493 430.62319,57.086061 430.62319,57.086061 C 406.94657,50.180149 387.31778,58.136542 371.01026,67.021551 C 371.01026,67.021551 355.39019,50.728236 345.97282,66.22672 C 335.05105,84.201054 326.31611,93.313858 331.2683,113.91705 C 328.71433,110.51175 353.29368,93.408068 372.20252,93.251245 C 387.42502,93.124995 376.57413,74.969948 376.57413,74.969948 C 376.57413,74.969948 415.12383,58.477037 422.6748,65.829299 C 430.22578,73.181561 432.91299,82.276191 413.53415,100.40478 L 364.25413,146.50546 C 340.48697,168.73925 334.11791,192.36734 347.5625,230.36099 C 361.88685,270.84083 404.46741,302.4474 403.79737,329.31847 C 403.12735,356.18954 405.7477,357.8309 398.0348,369.85527 C 390.3219,381.87965 384.29467,394.29712 369.818,376.41267 C 355.34134,358.52823 336.16661,328.70756 320.73668,306.86425 C 295.72917,271.46255 284.72054,259.62101 274.83473,231.15583 C 264.94891,202.69066 277.21924,207.70807 276.82182,191.01645 C 276.4244,174.32483 273.24504,164.38934 273.24504,164.38934 L 172.30048,169.15838 z"
         style="fill:#000000;fill-opacity:1;fill-rule:evenodd;stroke:#404040;stroke-width:6.00000047999999970;stroke-linecap:butt;stroke-linejoin:miter;stroke-miterlimit:4;stroke-dasharray:none;stroke-opacity:1;display:inline"
         id="path2030" />
      <path
         d="M 240.17497,93.027989 C 220.23694,95.872256 201.18653,102.42007 179.47507,100.89649 C 150.01464,98.829138 158.59033,84.740303 162.61398,80.101156 C 166.44837,75.68021 181.57029,90.462868 194.65005,95.276131 C 209.82594,100.86074 225.00182,93.783762 240.17497,93.027989 z"
         style="fill:#e20909;fill-opacity:1;fill-rule:evenodd;stroke:#404040;stroke-width:6.00000047999999970;stroke-linecap:butt;stroke-linejoin:miter;stroke-miterlimit:4;stroke-dasharray:none;stroke-opacity:1;display:inline"
         id="path2032" />
      <path
         d="M 230.62037,80.101166 C 225.8318,75.011227 216.42484,74.75304 206.87433,76.026403 C 205.2741,73.843536 198.27291,69.755847 180.31812,70.546541 C 173.84703,62.339957 172.76054,49.386879 180.59914,44.411862 C 187.7704,39.860387 200.80562,41.965752 202.23753,41.039644 C 210.62653,35.61395 206.87433,28.393827 225.28102,25.302635 C 243.6877,22.211434 275.86427,28.674847 275.86427,28.674847 C 275.86427,28.674847 286.40245,23.616524 293.00638,23.054484 C 299.61029,22.492453 299.04826,22.492453 302.27997,26.426706 C 305.51168,30.360958 308.81364,32.117321 305.93321,38.791503 C 303.05278,45.465684 290.75823,53.123415 290.75823,53.123415 C 290.75823,53.123415 284.99736,70.195274 290.75823,82.068284 C 296.5191,93.941294 316.61189,102.30158 316.61189,102.30158 C 307.52101,102.78068 300.50998,104.44827 296.65961,107.92195 C 294.50513,109.60805 292.64216,112.85605 293.56841,115.50943 C 295.75679,121.77837 307.61931,132.37051 307.61931,132.37051 C 307.61931,132.37051 302.77174,130.12237 300.31284,136.02375 C 297.85393,141.92513 297.78368,155.97603 297.78368,155.97603 C 297.78368,155.97603 282.18662,156.17646 278.39343,166.65472 C 273.14127,181.1632 285.84715,203.057 288.51008,199.25282 C 288.51008,199.25282 280.22004,202.41428 273.89715,200.09587 C 267.57424,197.77748 261.81337,189.97922 261.81337,189.97922 C 255.74269,191.08027 250.6651,194.04364 248.3245,198.12874 C 208.56502,185.06598 198.17289,201.37057 188.46765,218.36204 C 185.45393,221.41278 181.73925,222.7111 177.22692,222.01529 C 183.23743,214.40824 184.16319,205.53002 184.25237,196.44264 C 167.547,197.49781 152.05923,211.60157 130.29691,208.52642 C 141.56224,200.93004 147.4797,191.19451 143.78577,177.61442 C 134.52872,171.93674 121.24706,171.08857 108.3775,169.74592 C 147.81829,161.35221 172.51518,151.34804 178.351,136.02375 L 204.20466,133.77561 C 213.51643,128.20287 213.77223,123.45341 215.16436,118.60063 C 208.84453,111.89793 198.44416,117.48375 189.59173,114.9474 C 185.85997,113.8782 185.60845,109.04766 187.3807,107.72561 C 188.26683,107.06459 189.24195,104.65999 190.76317,104.33927 C 192.28439,104.01856 194.3517,105.78175 196.29816,105.5878 C 203.55148,104.86508 226.57889,104.42972 233.99258,103.14463 C 238.52929,94.836991 236.62354,86.482163 230.62037,80.101166 z"
         style="fill:#000000;fill-opacity:1;fill-rule:evenodd;stroke:#404040;stroke-width:6.00000047999999970;stroke-linecap:butt;stroke-linejoin:miter;stroke-miterlimit:4;stroke-dasharray:none;stroke-opacity:1;display:inline"
         id="path2034" />
      <path
         d="M 244.23341,43.176311 C 244.23638,45.152698 240.85482,46.755622 236.68244,46.755622 C 232.51007,46.755622 229.1285,45.152698 229.13147,43.176311 C 229.1285,41.199924 232.51007,39.597 236.68244,39.597 C 240.85482,39.597 244.23638,41.199924 244.23341,43.176311 z"
         style="fill:#ffffff;fill-opacity:1;fill-rule:evenodd;stroke:#404040;stroke-width:6.00000047999999970;stroke-linecap:butt;stroke-linejoin:miter;stroke-miterlimit:4;stroke-dasharray:none;stroke-opacity:1;display:inline"
         id="path2036" />
      <path
         d="M 225.38506,301.81552 C 222.04459,301.75662 219.64143,303.31436 216.87233,304.22538 C 226.99938,312.25691 237.08753,320.29741 237.24655,330.85895 C 229.33025,347.39319 237.44246,350.90382 248.13783,352.32854 C 252.21543,347.73049 257.36104,341.27971 254.96053,336.68015 C 251.26799,329.60494 246.00848,321.25734 241.78458,311.98698 C 239.98591,310.09016 237.93831,308.09964 235.52522,305.9467 C 231.15133,302.88657 227.98321,301.86134 225.38506,301.81552 z"
         style="fill:#000000;fill-opacity:1;fill-rule:evenodd;stroke:#404040;stroke-width:6.00000047999999970;stroke-linecap:butt;stroke-linejoin:miter;stroke-miterlimit:4;stroke-dasharray:none;stroke-opacity:1"
         id="path3914" />
    </g>
    <path
       id="path3398"
       style="fill:#e20909;fill-opacity:1;fill-rule:evenodd;stroke:#404040;stroke-width:3;stroke-linecap:butt;stroke-linejoin:miter;stroke-miterlimit:4;stroke-dasharray:none;stroke-opacity:1;display:inline"
       d="M 88.947378,382.01644 C 83.943281,385.78893 76.453476,386.44056 73.491376,382.71898 C 73.491376,382.71898 78.522484,383.89675 80.797849,381.17339 C 83.885729,377.47754 83.997732,375.73136 84.45109,376.53659 L 88.947378,382.01644 z" />
    <path
       id="path3400"
       style="fill:#e20909;fill-opacity:1;fill-rule:evenodd;stroke:#404040;stroke-width:3;stroke-linecap:butt;stroke-linejoin:miter;stroke-miterlimit:4;stroke-dasharray:none;stroke-opacity:1;display:inline"
       d="M 79.392759,366.13893 C 75.010904,362.71617 69.726565,363.10767 67.590001,368.66809 C 67.024065,368.45585 67.829064,361.70357 70.259672,359.25398 C 72.758969,356.73516 73.421122,355.84664 77.144617,355.74126 C 80.868102,355.63588 85.575156,357.84889 85.575156,357.84889 L 79.392759,366.13893 z" />
    <path
       id="path3402"
       style="fill:#e20909;fill-opacity:1;fill-rule:evenodd;stroke:#404040;stroke-width:6;stroke-linecap:butt;stroke-linejoin:miter;stroke-miterlimit:4;stroke-dasharray:none;stroke-opacity:1;display:inline;filter:url(#filter3392)"
       d="M 59.480358,68.298399 C 54.884559,55.724951 51.711497,42.560106 31.940584,44.692876 C 31.940584,44.692876 41.808563,38.464479 53.297951,40.196592 C 67.495111,42.336917 77.937255,59.578487 77.184488,59.86786 L 59.480358,68.298399 z"
       transform="matrix(0.5,0,0,0.5,57.240072,316.53373)" />
    <path
       id="path3404"
       style="fill:#e20909;fill-opacity:1;fill-rule:evenodd;stroke:#404040;stroke-width:3;stroke-linecap:butt;stroke-linejoin:miter;stroke-miterlimit:4;stroke-dasharray:none;stroke-opacity:1;display:inline"
       d="M 103.2793,346.88919 C 106.27359,344.02894 105.95455,337.85535 106.93253,332.97879 C 106.93253,332.97879 110.76141,336.31588 111.70984,340.9878 C 112.65828,345.65974 110.72627,351.66649 110.72627,351.66649 L 103.2793,346.88919 z" />
    <path
       id="path3406"
       style="fill:#000000;fill-opacity:1;fill-rule:evenodd;stroke:#404040;stroke-width:3.00000024;stroke-linecap:butt;stroke-linejoin:miter;stroke-miterlimit:4;stroke-dasharray:none;stroke-opacity:1;display:inline"
       d="M 125.62023,402.39026 L 120.70241,399.96648 C 122.48583,398.06689 120.45007,396.54924 118.59478,395.01353 C 117.49341,393.18858 115.47701,393.17085 113.25544,393.95971 C 112.93523,390.47396 110.40655,389.82767 107.49457,389.67419 C 106.84578,384.35761 104.18937,384.66238 101.7337,384.4051 C 100.74409,381.69009 98.952269,381.17755 97.307659,381.59492 C 96.766089,380.61357 95.286901,380.33543 91.757554,381.59492 C 91.757554,381.59492 89.509412,385.45891 86.980251,384.4051 C 84.45109,383.35128 81.992178,380.33034 81.078868,378.22271 C 80.165558,376.11507 84.521339,376.53659 84.451086,374.00743 C 84.380832,371.47827 82.694718,369.65165 80.797849,368.10605 C 78.90098,366.56045 76.161048,368.24656 76.652833,364.59333 C 77.144617,360.94009 77.372939,357.603 79.814285,355.67101 C 82.255627,353.73901 86.418213,356.86533 86.418213,356.86533 C 86.418213,356.86533 89.140574,356.37355 88.640008,354.77526 C 88.139444,353.17697 84.415959,350.47217 85.856175,348.5753 C 88.736609,344.78155 90.914497,342.99006 94.427226,342.95494 C 97.939951,342.91981 96.640246,348.39966 98.853262,348.85631 C 101.06628,349.31297 101.47024,343.83311 104.96541,345.20308 C 108.46057,346.57304 113.01599,349.31184 111.85034,353.07158 C 110.86001,356.26591 109.68778,355.15611 110.0728,356.29537 C 110.61073,357.88712 109.11368,356.4803 114.80103,361.71289 C 117.21748,363.93611 120.55093,367.09834 124.36526,370.09267 C 128.17958,373.08698 132.55677,377.18974 136.32307,380.2052 C 140.08937,383.22065 143.66631,384.44626 146.16117,386.46362 C 148.65603,388.48096 150.20931,389.74444 150.20931,389.74444 L 125.62023,402.39026 z" />
    <path
       id="path3408"
       style="fill:#e20909;fill-opacity:1;fill-rule:evenodd;stroke:#404040;stroke-width:3;stroke-linecap:butt;stroke-linejoin:miter;stroke-miterlimit:4;stroke-dasharray:none;stroke-opacity:1;display:inline"
       d="M 98.084475,505.53491 C 98.628713,498.12383 91.04189,493.87197 83.678014,493.91037 C 83.678014,493.91037 92.470923,490.50749 97.488349,492.3207 C 102.50577,494.13391 104.34384,496.99038 104.34384,496.99038 L 98.084475,505.53491 z" />
    <path
       style="fill:#000000;fill-opacity:1;fill-rule:evenodd;stroke:#404040;stroke-width:3.00000024;stroke-linecap:butt;stroke-linejoin:miter;stroke-miterlimit:4;stroke-dasharray:none;stroke-opacity:1;display:inline"
       d="M 153.8125 464.75 C 150.88862 464.75067 148.05214 464.93539 145.5625 465.34375 C 132.2844 467.52166 128.15625 476.59375 128.15625 476.59375 C 128.15625 476.59374 137.2228 489.85661 132.65625 495.96875 C 128.08971 502.0809 115.56355 505.22387 110.71875 501.03125 L 107.0625 497.875 C 105.28016 496.3326 106.02894 493.9387 103.21875 495.34375 C 100.40857 496.74884 97.789229 500.7115 97.21875 502.15625 C 95.632249 506.17421 101.1875 506.375 101.1875 506.375 L 99.46875 507.78125 C 99.308965 508.14074 97.548315 505.20941 95.84375 506.375 C 94.740232 507.12959 93.943766 508.3768 93.375 509.78125 C 99.256488 516.22699 105.52791 522.51649 111.84375 528.78125 C 113.14251 529.04137 114.37833 529.0784 115.71875 528.65625 C 117.94933 527.95366 116.34375 524.6875 116.34375 524.6875 C 132.59642 519.89725 150.14535 517.01135 170.875 518.75 C 164.65081 510.84452 163.06538 501.23884 163.5625 490.90625 C 171.68824 489.31846 176.38766 491.13688 180.6875 493.375 C 182.76093 491.07868 186.04401 487.41429 184.71875 484.875 C 182.15135 479.95564 178.04778 473.83136 175.96875 466.90625 C 170.52664 465.99469 161.77021 464.74817 153.8125 464.75 z "
       id="path3416" />
    <path
       id="path3418"
       style="fill:#e20909;fill-opacity:1;fill-rule:evenodd;stroke:#404040;stroke-width:3;stroke-linecap:butt;stroke-linejoin:miter;stroke-miterlimit:4;stroke-dasharray:none;stroke-opacity:1;display:inline"
       d="M 79.306404,413.73099 C 78.080372,410.51097 74.320611,407.68076 69.668974,404.98776 C 69.668974,404.98776 76.102204,405.68324 79.90253,406.97486 C 83.702857,408.26648 84.870275,410.15422 84.870275,410.15422 L 79.306404,413.73099 z" />
    <path
       id="path3420"
       style="fill:#e20909;fill-opacity:1;fill-rule:evenodd;stroke:#404040;stroke-width:3;stroke-linecap:butt;stroke-linejoin:miter;stroke-miterlimit:4;stroke-dasharray:none;stroke-opacity:1;display:inline"
       d="M 73.941235,425.55422 C 68.824687,422.01192 64.974231,426.06617 60.826394,428.33616 C 60.826394,428.33616 64.408164,421.75316 68.084295,419.41832 C 71.760421,417.08348 75.530912,418.9968 75.530912,418.9968 L 73.941235,425.55422 z" />
    <path
       id="path3422"
       style="fill:#e20909;fill-opacity:1;fill-rule:evenodd;stroke:#404040;stroke-width:3;stroke-linecap:butt;stroke-linejoin:miter;stroke-miterlimit:4;stroke-dasharray:none;stroke-opacity:1;display:inline"
       d="M 77.418661,437.57617 C 73.811936,437.61073 69.973114,438.4834 64.701232,444.53101 C 64.701232,444.53101 64.527362,439.68745 67.185106,436.38391 C 69.842849,433.08036 75.332206,431.3168 75.332206,431.3168 L 77.418661,437.57617 z" />
    <path
       id="path3424"
       style="fill:#e20909;fill-opacity:1;fill-rule:evenodd;stroke:#404040;stroke-width:3;stroke-linecap:butt;stroke-linejoin:miter;stroke-miterlimit:4;stroke-dasharray:none;stroke-opacity:1;display:inline"
       d="M 83.180211,442.35726 C 82.898753,444.31123 80.7215,446.33546 77.486846,447.55178 C 77.486846,447.55178 83.230659,447.76305 85.565763,446.61746 C 87.900863,445.47186 87.35415,443.63681 87.35415,443.63681 L 83.180211,442.35726 z" />
    <path
       id="path3426"
       style="fill:#e20909;fill-opacity:1;fill-rule:evenodd;stroke:#404040;stroke-width:3;stroke-linecap:butt;stroke-linejoin:miter;stroke-miterlimit:4;stroke-dasharray:none;stroke-opacity:1;display:inline"
       d="M 185.31807,569.81751 C 187.071,570.94189 187.82228,572.76738 184.32453,577.56721 C 184.32453,577.56721 189.24259,575.23236 190.88195,573.19561 C 192.5213,571.15882 190.88195,569.42012 190.88195,569.42012 L 185.31807,569.81751 z" />
    <path
       id="path3428"
       style="fill:#e20909;fill-opacity:1;fill-rule:evenodd;stroke:#404040;stroke-width:3;stroke-linecap:butt;stroke-linejoin:miter;stroke-miterlimit:4;stroke-dasharray:none;stroke-opacity:1;display:inline"
       d="M 173.39549,567.2343 C 173.17415,572.38946 168.31264,572.1445 162.86387,574.38785 C 162.86387,574.38785 170.26581,576.37497 173.79291,574.18915 C 177.32001,572.00333 178.95936,570.01621 178.95936,570.01621 L 173.39549,567.2343 z" />
    <path
       id="path3430"
       style="fill:#e20909;fill-opacity:1;fill-rule:evenodd;stroke:#404040;stroke-width:3;stroke-linecap:butt;stroke-linejoin:miter;stroke-miterlimit:4;stroke-dasharray:none;stroke-opacity:1;display:inline"
       d="M 171.40839,564.65109 C 166.53479,559.15677 160.15178,564.22835 154.31934,565.44593 C 154.31934,565.44593 160.03225,559.48461 164.65225,558.09363 C 169.27226,556.70266 172.79935,559.88206 172.79935,559.88206 L 171.40839,564.65109 z" />
    <path
       id="path3432"
       style="fill:#e20909;fill-opacity:1;fill-rule:evenodd;stroke:#404040;stroke-width:3;stroke-linecap:butt;stroke-linejoin:miter;stroke-miterlimit:4;stroke-dasharray:none;stroke-opacity:1;display:inline"
       d="M 174.78646,552.92721 C 172.81887,544.23977 164.93322,545.41573 158.49226,544.18394 C 158.49226,544.18394 168.03032,541.05426 172.99807,541.00459 C 177.96581,540.95492 178.36323,543.98524 178.36323,543.98524 L 174.78646,552.92721 z" />
    <path
       id="path3434"
       style="fill:#000000;fill-opacity:1;fill-rule:evenodd;stroke:#404040;stroke-width:3.00000024;stroke-linecap:butt;stroke-linejoin:miter;stroke-miterlimit:4;stroke-dasharray:none;stroke-opacity:1;display:inline"
       d="M 143.39031,401.11292 C 143.39031,401.11292 122.62514,409.7568 108.81481,412.63808 C 95.004479,415.51938 87.35415,411.64454 87.35415,411.64454 C 87.35415,411.64454 88.049633,407.37228 84.572212,407.86906 C 81.094791,408.36582 78.710274,410.75035 77.418661,413.23422 C 76.772849,414.47616 78.95866,415.22131 79.517534,416.45083 C 80.076403,417.68034 78.610917,418.9968 78.610917,418.9968 C 78.610917,418.9968 75.431563,414.92325 73.841882,417.40713 C 72.252201,419.89099 70.563166,422.971 71.65607,426.34906 C 72.202522,428.03809 74.239302,426.20003 75.742045,426.92035 C 77.244783,427.64067 77.02124,430.32326 77.02124,430.32326 C 77.02124,430.32326 73.245752,428.98197 73.841882,431.71422 C 74.438012,434.44649 74.239302,437.2781 76.425109,439.06649 C 78.610917,440.85488 79.604467,436.88068 79.604467,436.88068 L 82.982535,439.66262 C 82.982535,439.66262 80.697371,441.64972 82.585116,443.23939 C 84.472859,444.82907 86.658666,446.02133 88.546406,446.02133 C 90.43415,446.02133 89.937372,442.24584 89.937372,442.24584 C 91.529466,440.32981 93.449087,439.06883 96.097378,439.2652 C 100.253,440.81369 99.960887,443.69651 98.879315,446.81617 C 104.18131,446.95479 108.06482,444.25642 112.39158,442.44455 C 115.65856,442.94159 116.54157,444.33261 115.57094,446.41875 C 122.8114,448.73071 128.81057,445.45683 135.0445,443.23939 C 136.37914,444.32635 136.8487,445.93235 135.54127,448.60455 C 142.69482,438.0067 149.84838,433.90004 157.00193,436.28455 C 162.68994,444.75473 168.31855,450.12438 174.78646,456.25489 C 173.68001,467.55962 180.90372,477.55307 184.72195,484.86911 C 186.56523,488.40099 179.479,494.18018 179.15807,495.30136 C 176.98507,502.89275 178.55726,514.95243 179.08988,514.77492 C 180.77923,511.352 183.5271,510.0462 186.70904,509.60844 C 186.40753,512.06492 184.6768,513.44943 187.10646,517.95427 C 190.35457,521.29291 193.84158,524.03431 197.83679,525.50527 C 193.15641,531.46677 190.09199,538.50971 185.9142,544.97878 C 184.82093,546.67171 183.7284,545.87302 181.94,544.97878 C 180.15162,544.08459 180.23686,541.18336 178.76065,541.40203 C 175.18312,541.93197 170.46426,550.90008 172.24145,554.28409 C 173.55549,556.78613 174.83863,554.0883 175.67359,555.23937 C 176.50854,556.39049 176.69727,557.97621 175.58129,558.88847 C 174.46532,559.80074 172.79935,556.11653 171.20968,557.9049 C 169.62,559.69332 169.84988,562.60268 170.34665,564.63697 C 170.84343,566.67121 172.705,565.40977 172.705,565.40977 L 173.50008,566.63962 C 172.76044,567.11377 172.28043,566.90571 172.59066,568.15658 C 173.06137,570.05441 177.18,573.26192 178.89495,570.88135 C 179.55526,569.96474 179.75763,569.43374 179.78415,569.43835 L 183.26214,568.77285 C 184.07656,568.61702 183.09076,571.42877 183.62198,571.56392 C 186.00582,572.17018 191.60059,572.09427 193.0898,570.81316 C 195.12645,569.06108 192.15009,566.48163 195.52666,566.861 C 195.52666,566.861 196.40166,567.48773 197.09741,567.03746 C 209.7123,558.87305 218.4257,545.97202 219.29745,542.99171 C 220.18321,539.96348 218.80068,540.20975 220.39035,538.91817 C 221.98003,537.62653 225.65616,537.82523 225.65616,537.82523 C 225.65616,537.82523 232.46089,534.77552 226.451,530.67169 C 221.60076,527.35974 216.89521,511.57304 218.50261,509.60844 C 218.12689,504.2333 214.97386,499.36317 211.74648,494.50651 C 210.81189,489.68846 212.30546,486.48918 214.52841,483.77617 C 215.79962,483.31854 234.12288,505.861 240.36068,513.58264 C 248.2936,523.40267 259.03941,507.62138 259.03941,507.62138 C 259.03941,507.62138 266.19296,497.88457 265.69618,485.4652 C 265.19941,473.04586 257.0523,457.94392 257.0523,457.94392 C 255.27348,449.97933 260.28889,443.95596 265.79554,438.07293 C 260.53925,440.52909 255.06436,440.58065 250.29618,448.40584 C 250.29618,448.40584 249.00456,442.84197 250.09746,436.88068 C 251.19037,430.91939 257.25102,426.94519 257.25102,426.94519 C 250.13488,430.50612 244.16031,434.25732 243.34133,438.86778 C 241.12579,425.43817 247.42238,413.62991 256.25747,402.30518 C 247.05713,408.23197 238.94043,415.02567 234.99552,425.1568 C 229.96361,401.16004 248.72635,389.79373 269.37231,371.30645 C 284.86773,357.4312 272.55167,345.07676 272.55167,345.07676 C 260.71336,341.6238 250.89896,345.602 242.7452,350.04451 C 242.7452,350.04451 234.93517,341.89785 230.22648,349.64709 C 224.7656,358.63426 220.39813,363.19066 222.87422,373.49226 C 221.59724,371.7896 233.88691,363.23776 243.34133,363.15935 C 250.95258,363.09623 245.52714,354.0187 245.52714,354.0187 C 245.52714,354.0187 264.80199,345.77225 268.57747,349.44838 C 272.35296,353.12451 273.69657,357.67183 264.00715,366.73612 L 239.36714,389.78646 C 227.48356,400.90335 224.29903,412.7174 231.02132,431.71422 C 238.1835,451.95414 259.47378,467.75743 259.13876,481.19296 C 258.80375,494.6285 260.11392,495.44918 256.25747,501.46137 C 252.40102,507.47356 249.38741,513.68229 242.14907,504.74006 C 234.91074,495.79784 225.32338,480.88751 217.60841,469.96586 C 205.10466,452.265 199.60034,446.34424 194.65744,432.11165 C 189.71453,417.87906 195.84969,420.38777 195.65098,412.04195 C 195.45227,403.69615 193.86259,398.7284 193.86259,398.7284 L 143.39031,401.11292 z" />
    <path
       id="path3436"
       style="fill:#e20909;fill-opacity:1;fill-rule:evenodd;stroke:#404040;stroke-width:3.00000024;stroke-linecap:butt;stroke-linejoin:miter;stroke-miterlimit:4;stroke-dasharray:none;stroke-opacity:1;display:inline"
       d="M 177.32756,363.04772 C 167.35854,364.46986 157.83334,367.74376 146.97761,366.98197 C 132.24739,365.9483 136.53524,358.90388 138.54706,356.58431 C 140.46426,354.37383 148.02522,361.76516 154.5651,364.1718 C 162.15304,366.9641 169.74098,363.42561 177.32756,363.04772 z" />
    <path
       id="path3438"
       style="fill:#000000;fill-opacity:1;fill-rule:evenodd;stroke:#404040;stroke-width:3.00000024;stroke-linecap:butt;stroke-linejoin:miter;stroke-miterlimit:4;stroke-dasharray:none;stroke-opacity:1;display:inline"
       d="M 172.55026,356.58431 C 170.15597,354.03934 165.45249,353.91025 160.67724,354.54693 C 159.87712,353.4555 156.37653,351.41165 147.39913,351.807 C 144.16359,347.70371 143.62034,341.22717 147.53964,338.73966 C 151.12527,336.46392 157.64288,337.51661 158.35884,337.05355 C 162.55334,334.34071 160.67724,330.73064 169.88058,329.18505 C 179.08392,327.63945 195.17221,330.87115 195.17221,330.87115 C 195.17221,330.87115 200.4413,328.34199 203.74326,328.06097 C 207.04522,327.77996 206.7642,327.77996 208.38006,329.74708 C 209.99591,331.71421 211.64689,332.59239 210.20668,335.92948 C 208.76646,339.26657 202.61919,343.09544 202.61919,343.09544 C 202.61919,343.09544 199.73875,351.63137 202.61919,357.56787 C 205.49962,363.50438 215.54602,367.68452 215.54602,367.68452 C 211.00058,367.92407 207.49506,368.75786 205.56988,370.49471 C 204.49264,371.33776 203.56115,372.96175 204.02428,374.28844 C 205.11847,377.42291 211.04973,382.71898 211.04973,382.71898 C 211.04973,382.71898 208.62594,381.59492 207.39649,384.54561 C 206.16704,387.49629 206.13191,394.52175 206.13191,394.52175 C 206.13191,394.52175 198.33338,394.62196 196.43679,399.86109 C 193.81071,407.11533 200.16365,418.06223 201.49511,416.16014 C 201.49511,416.16014 197.35009,417.74087 194.18865,416.58166 C 191.02719,415.42247 188.14676,411.52334 188.14676,411.52334 C 185.11142,412.07387 182.57262,413.55555 181.40232,415.5981 C 161.52258,409.06672 156.32652,417.21902 151.4739,425.71475 C 149.96704,427.24012 148.1097,427.88928 145.85353,427.54138 C 148.85879,423.73785 149.32167,419.29874 149.36626,414.75505 C 141.01357,415.28263 133.26969,422.33452 122.38853,420.79694 C 128.02119,416.99875 130.97992,412.13099 129.13296,405.34094 C 124.50443,402.5021 117.8636,402.07801 111.42882,401.40669 C 131.14922,397.20983 143.49766,392.20775 146.41557,384.54561 L 159.3424,383.42154 C 163.99829,380.63516 164.12619,378.26043 164.82225,375.83405 C 161.66234,372.48269 156.46215,375.2756 152.03594,374.00743 C 150.17006,373.47283 150.0443,371.05756 150.93042,370.39653 C 151.37349,370.06602 151.86105,368.86372 152.62166,368.70336 C 153.38227,368.54301 154.41592,369.4246 155.38915,369.32763 C 159.01581,368.96627 170.52952,368.74859 174.23636,368.10604 C 176.50472,363.95223 175.55184,359.77481 172.55026,356.58431 z" />
    <path
       id="path3440"
       style="fill:#ffffff;fill-opacity:1;fill-rule:evenodd;stroke:#404040;stroke-width:3.00000024;stroke-linecap:butt;stroke-linejoin:miter;stroke-miterlimit:4;stroke-dasharray:none;stroke-opacity:1;display:inline"
       d="M 179.35678,338.12189 C 179.35826,339.11008 177.66748,339.91154 175.58129,339.91154 C 173.49511,339.91154 171.80432,339.11008 171.80581,338.12189 C 171.80432,337.13369 173.49511,336.33223 175.58129,336.33223 C 177.66748,336.33223 179.35826,337.13369 179.35678,338.12189 z" />
    <path
       id="path3442"
       style="fill:#000000;fill-opacity:1;fill-rule:evenodd;stroke:#404040;stroke-width:3.00000024;stroke-linecap:butt;stroke-linejoin:miter;stroke-miterlimit:4;stroke-dasharray:none;stroke-opacity:1"
       d="M 169.9326,467.44149 C 168.26237,467.41204 167.06079,468.19091 165.67624,468.64642 C 170.73976,472.66219 175.78384,476.68243 175.86335,481.96321 C 171.9052,490.23032 175.9613,491.98564 181.30899,492.698 C 183.34779,490.39897 185.92059,487.17359 184.72034,484.87381 C 182.87407,481.3362 180.24431,477.1624 178.13236,472.52722 C 177.23303,471.57881 176.20923,470.58355 175.00268,469.50708 C 172.81574,467.97701 171.23168,467.4644 169.9326,467.44149 z" />
  </g>
  <g
     inkscape:groupmode="layer"
     id="layer4"
     inkscape:label="Meubles" />
  <g
     inkscape:groupmode="layer"
     id="layer2"
     inkscape:label="Reflet final"
     sodipodi:insensitive="true">
    <path
       sodipodi:nodetypes="cccccc"
       d="M 300.00001,658.5 C 300.00001,658.5 598.50001,546.17969 598.50001,260.72817 C 598.50001,-24.723334 598.50001,2.1764865 598.50001,2.1764865 L 1.5,2.1764865 L 1.5,260.72817 C 1.5,546.17969 300.00001,658.5 300.00001,658.5 z "
       style="opacity:1;fill:url(#radialGradient3163);fill-opacity:1;fill-rule:evenodd;stroke:none;stroke-width:1px;stroke-linecap:butt;stroke-linejoin:miter;stroke-opacity:1"
       id="path2875"
       inkscape:export-xdpi="144"
       inkscape:export-ydpi="144" />
  </g>
  <g
     inkscape:groupmode="layer"
     id="layer1"
     inkscape:label="Contour final"
     sodipodi:insensitive="true">
    <path
       sodipodi:nodetypes="cccccc"
       d="M 299.99999,658.50028 C 299.99999,658.50028 1.5,546.17992 1.5,260.72828 C 1.5,-24.723336 1.5,2.1764957 1.5,2.1764957 L 598.49999,2.1764957 L 598.49999,260.72828 C 598.49999,546.17992 299.99999,658.50028 299.99999,658.50028 z "
       style="opacity:1;fill:none;fill-opacity:1;fill-rule:evenodd;stroke:#000000;stroke-width:3.00000048;stroke-linecap:butt;stroke-linejoin:miter;stroke-miterlimit:4;stroke-dasharray:none;stroke-opacity:1"
       id="path1411"
       inkscape:export-xdpi="144"
       inkscape:export-ydpi="144" />
  </g>
</svg>
