<?xml version="1.0" encoding="UTF-8" standalone="no"?>
<!-- Created with Inkscape (http://www.inkscape.org/) -->
<svg
   xmlns:svg="http://www.w3.org/2000/svg"
   xmlns="http://www.w3.org/2000/svg"
   xmlns:xlink="http://www.w3.org/1999/xlink"
   version="1.0"
   width="600"
   height="660"
   id="svg2">
  <desc
     id="desc4">Flag of Canton of Valais (Wallis)</desc>
  <defs
     id="defs6">
    <linearGradient
       id="linearGradient2893">
      <stop
         id="stop2895"
         style="stop-color:#ffffff;stop-opacity:0.3137255"
         offset="0" />
      <stop
         id="stop2897"
         style="stop-color:#ffffff;stop-opacity:0.25098041"
         offset="0.19" />
      <stop
         id="stop2901"
         style="stop-color:#6b6b6b;stop-opacity:0.1254902"
         offset="0.60000002" />
      <stop
         id="stop2899"
         style="stop-color:#000000;stop-opacity:0.1254902"
         offset="1" />
    </linearGradient>
    <linearGradient
       id="linearGradient2885">
      <stop
         id="stop2887"
         style="stop-color:#ffffff;stop-opacity:1"
         offset="0" />
      <stop
         id="stop2891"
         style="stop-color:#ffffff;stop-opacity:1"
         offset="0.22857143" />
      <stop
         id="stop2889"
         style="stop-color:#000000;stop-opacity:1"
         offset="1" />
    </linearGradient>
    <linearGradient
       id="linearGradient2955">
      <stop
         id="stop2867"
         style="stop-color:#fd0000;stop-opacity:1"
         offset="0" />
      <stop
         id="stop2873"
         style="stop-color:#e77275;stop-opacity:0.65882355"
         offset="0.5" />
      <stop
         id="stop2959"
         style="stop-color:#000000;stop-opacity:0.32291666"
         offset="1" />
    </linearGradient>
    <radialGradient
       cx="225.52438"
       cy="218.90099"
       r="300"
       fx="225.52438"
       fy="218.90099"
       id="radialGradient2961"
       xlink:href="#linearGradient2955"
       gradientUnits="userSpaceOnUse"
       gradientTransform="matrix(-4.167939e-4,2.182867,-1.884232,-3.599562e-4,615.5972,-289.1214)" />
    <polygon
       points="0,-1 0.58778525,0.80901699 -0.95105652,-0.30901699 0.95105652,-0.30901699 -0.58778525,0.80901699 0,-1 "
       transform="scale(53,53)"
       id="star" />
    <clipPath
       id="clip">
      <path
         d="M 0,-200 L 0,600 L 300,600 L 300,-200 L 0,-200 z"
         id="path10" />
    </clipPath>
    <radialGradient
       cx="225.52438"
       cy="218.90099"
       r="300"
       fx="225.52438"
       fy="218.90099"
       id="radialGradient1911"
       xlink:href="#linearGradient2955"
       gradientUnits="userSpaceOnUse"
       gradientTransform="matrix(-4.167939e-4,2.182867,-1.884232,-3.599562e-4,615.5972,-289.1214)" />
    <radialGradient
       cx="225.52438"
       cy="218.90099"
       r="300"
       fx="225.52438"
       fy="218.90099"
       id="radialGradient2865"
       xlink:href="#linearGradient2955"
       gradientUnits="userSpaceOnUse"
       gradientTransform="matrix(0,1.748721,-1.593162,-1.049767e-7,551.7876,-191.2898)" />
    <radialGradient
       cx="225.52438"
       cy="218.90099"
       r="300"
       fx="225.52438"
       fy="218.90099"
       id="radialGradient2871"
       xlink:href="#linearGradient2955"
       gradientUnits="userSpaceOnUse"
       gradientTransform="matrix(0,1.386237,-1.323286,-5.741131e-8,-158.0823,-109.5408)" />
    <radialGradient
       cx="221.44487"
       cy="226.33101"
       r="300"
       fx="221.44487"
       fy="226.33101"
       id="radialGradient3163"
       xlink:href="#linearGradient2893"
       gradientUnits="userSpaceOnUse"
       gradientTransform="matrix(1.353218,0,0,1.348928,-77.62935,-85.74693)" />
  </defs>
  <g
     id="layer3"
     style="display:inline">
    <path
       d="M 299.38462,658.54498 C 299.38462,658.54498 597.88463,546.22467 597.88463,260.77315 C 597.88463,-24.678377 597.88463,2.2214629 597.88463,2.2214629 L 0.88462171,2.2214629 L 0.88462171,260.77315 C 0.88462171,546.22467 299.38462,658.54498 299.38462,658.54498 z"
       id="path2855"
       style="fill:#ffffff;fill-opacity:1;fill-rule:evenodd;stroke:none;stroke-width:1px;stroke-linecap:butt;stroke-linejoin:miter;stroke-opacity:1" />
    <path
       d="M 1.5757851,2.0398779 C 299.87889,2.0398779 299.58338,1.4200074 299.58338,1.4200074 L 300.48994,300.2439 C 300.48994,300.2439 3.4470846,301.37728 3.4470846,301.37728 C -0.7845603,250.50576 1.2637563,104.33088 1.5757851,2.0398779 z"
       id="path3953"
       style="fill:#bababa;fill-rule:evenodd;stroke:#000000;stroke-width:2.5;stroke-linecap:butt;stroke-linejoin:miter;stroke-miterlimit:4;stroke-dasharray:none;stroke-opacity:1" />
    <path
       d="M 599.20519,2.1032359 C 447.34569,2.2699893 301.17514,1.3106234 301.17514,1.3106234 L 301.4677,299.77257 C 301.4677,299.77257 598.28391,300.90595 598.28391,300.90595 C 602.51556,250.03443 599.51722,104.39424 599.20519,2.1032359 z"
       id="path3979"
       style="fill:#f7d55d;fill-rule:evenodd;stroke:#000000;stroke-width:2.5;stroke-linecap:butt;stroke-linejoin:miter;stroke-miterlimit:4;stroke-dasharray:none;stroke-opacity:1;display:inline" />
    <path
       d="M 3.0901914,301.5378 C 299.74856,299.99271 300.52111,299.99271 300.52111,299.99271 L 300.52111,657.68236 C 217.06467,620.50388 23.863565,518.9357 3.0901914,301.5378 z"
       id="path3985"
       style="opacity:1;fill:#f7d55d;fill-rule:evenodd;stroke:#000000;stroke-width:2.5;stroke-linecap:butt;stroke-linejoin:miter;stroke-miterlimit:4;stroke-dasharray:none;stroke-opacity:1" />
    <path
       d="M 597.14537,301.97129 C 300.487,300.4262 299.71445,300.4262 299.71445,300.4262 L 299.71445,658.11585 C 383.17089,620.93737 576.372,519.36919 597.14537,301.97129 z"
       id="path3987"
       style="opacity:1;fill:#bababa;fill-rule:evenodd;stroke:#000000;stroke-width:2.5;stroke-linecap:butt;stroke-linejoin:miter;stroke-miterlimit:4;stroke-dasharray:none;stroke-opacity:1;display:inline" />
    <path
       d="M 100.46122,167.01028 C 67.207218,167.01028 35.656568,181.72228 14.281218,207.19678 L 14.281218,88.823776 C 35.656568,114.29828 67.207218,129.01028 100.46122,129.01028 L 130.31122,129.01028 L 130.31122,99.160276 C 130.31122,65.906266 115.59922,34.355626 90.124718,12.980276 L 208.49772,12.980276 C 183.02322,34.355626 168.31122,65.906266 168.31122,99.160276 L 168.31122,129.01028 L 198.11122,129.01028 C 231.36522,129.01028 262.91572,114.29828 284.29122,88.823776 L 284.29122,207.19678 C 262.91572,181.72228 231.36522,167.01028 198.11122,167.01028 L 168.31122,167.01028 L 168.31122,196.81028 C 168.31122,230.06428 183.02322,261.61478 208.49772,282.99028 L 90.124718,282.99028 C 115.59922,261.61478 130.31122,230.06428 130.31122,196.81028 L 130.31122,167.01028 L 100.46122,167.01028 z"
       id="path2809"
       style="fill:#e20909;stroke:none" />
    <path
       d="M 388.6875,317.71875 C 414.162,339.0941 428.875,370.65223 428.875,403.90625 L 428.875,433.75 L 399.03125,433.75 C 365.77725,433.75 334.2191,419.03701 312.84375,393.5625 L 312.84375,511.9375 C 334.2191,486.463 365.77726,471.75 399.03125,471.75 L 428.875,471.75 L 428.875,501.5625 C 428.875,534.8165 414.162,566.34324 388.6875,587.71875 L 422.65625,587.71875 C 443.5139,570.61869 458.81901,557.43261 474.625,542.5 C 469.57805,529.59295 466.875,515.74687 466.875,501.5625 L 466.875,471.75 L 496.6875,471.75 C 508.09523,471.75 519.30396,473.47801 529.96875,476.78125 C 544.77392,454.68059 556.8224,432.82228 568.125,408.125 C 548.15654,424.54415 522.96063,433.75 496.6875,433.75 L 466.875,433.75 L 466.875,403.90625 C 466.875,370.65224 481.58801,339.09411 507.0625,317.71875 L 388.6875,317.71875 z"
       id="path2819"
       style="fill:#e20909;stroke:none;display:inline" />
    <g
       transform="translate(2.4979253,-3.3023305)"
       id="g4104">
      <path
         d="M 384.30322,97.825703 C 380.29994,100.8437 374.30809,101.365 371.93841,98.387739 C 371.93841,98.387739 375.9633,99.329947 377.78359,97.151267 C 380.2539,94.194587 380.3435,92.797639 380.70618,93.441823 L 384.30322,97.825703 z"
         id="path1994"
         style="fill:#e20909;fill-opacity:1;fill-rule:evenodd;stroke:#404040;stroke-width:1.20000005;stroke-linecap:butt;stroke-linejoin:miter;stroke-miterlimit:4;stroke-dasharray:none;stroke-opacity:1;display:inline" />
      <path
         d="M 376.65952,85.123693 C 373.15404,82.385489 368.92656,82.698687 367.21731,87.147019 C 366.76456,86.977235 367.40856,81.575408 369.35305,79.615736 C 371.35249,77.60068 371.88221,76.88986 374.86101,76.805556 C 377.83979,76.721252 381.60544,78.491664 381.60544,78.491664 L 376.65952,85.123693 z"
         id="path1996"
         style="fill:#e20909;fill-opacity:1;fill-rule:evenodd;stroke:#404040;stroke-width:1.20000005;stroke-linecap:butt;stroke-linejoin:miter;stroke-miterlimit:4;stroke-dasharray:none;stroke-opacity:1;display:inline" />
      <path
         d="M 382.72951,72.758895 C 380.89119,67.729515 379.62197,62.463577 371.7136,63.316685 C 371.7136,63.316685 375.6608,60.825327 380.25655,61.518172 C 385.93541,62.374302 390.11227,69.27093 389.81117,69.386679 L 382.72951,72.758895 z"
         id="path1998"
         style="fill:#e20909;fill-opacity:1;fill-rule:evenodd;stroke:#404040;stroke-width:1.20000005;stroke-linecap:butt;stroke-linejoin:miter;stroke-miterlimit:4;stroke-dasharray:none;stroke-opacity:1;display:inline" />
      <path
         d="M 395.76875,69.7239 C 398.16419,67.435705 397.90895,62.496834 398.69134,58.595583 C 398.69134,58.595583 401.75444,61.265255 402.51319,65.002793 C 403.27193,68.740339 401.72633,73.545746 401.72633,73.545746 L 395.76875,69.7239 z"
         id="path2000"
         style="fill:#e20909;fill-opacity:1;fill-rule:evenodd;stroke:#404040;stroke-width:1.20000005;stroke-linecap:butt;stroke-linejoin:miter;stroke-miterlimit:4;stroke-dasharray:none;stroke-opacity:1;display:inline" />
      <path
         d="M 413.6415,114.12476 L 409.70724,112.18573 C 411.13398,110.66607 409.50537,109.45194 408.02114,108.22338 C 407.14004,106.76342 405.52692,106.74923 403.74966,107.38032 C 403.49349,104.59172 401.47055,104.07468 399.14097,103.9519 C 398.62194,99.698639 396.49681,99.942455 394.53227,99.736631 C 393.74059,97.564619 392.30713,97.154591 390.99144,97.488483 C 390.55818,96.703407 389.37483,96.480899 386.55136,97.488483 C 386.55136,97.488483 384.75284,100.57968 382.72951,99.736631 C 380.70618,98.893575 378.73905,96.476823 378.00841,94.790715 C 377.27776,93.104603 380.76238,93.441827 380.70618,91.418495 C 380.64998,89.395167 379.30109,87.933871 377.78359,86.697391 C 376.2661,85.460911 374.07415,86.809799 374.46758,83.887212 C 374.86101,80.964623 375.04366,78.294954 376.99674,76.749357 C 378.94981,75.203756 382.27988,77.704817 382.27988,77.704817 C 382.27988,77.704817 384.45777,77.311393 384.05732,76.032757 C 383.65687,74.754126 380.67808,72.590286 381.83025,71.072791 C 384.1346,68.037792 385.87691,66.604601 388.68709,66.576499 C 391.49727,66.548398 390.45751,70.93228 392.22792,71.297602 C 393.99833,71.662928 394.32151,67.279042 397.11764,68.375013 C 399.91377,69.470983 403.5581,71.66202 402.62559,74.669818 C 401.83332,77.225277 400.89554,76.337441 401.20355,77.248851 C 401.6339,78.522247 400.43626,77.396793 404.98614,81.582861 C 406.9193,83.361439 409.58606,85.891219 412.63752,88.286683 C 415.68898,90.682139 419.19073,93.964343 422.20377,96.376707 C 425.21681,98.789075 428.07836,99.769559 430.07425,101.38344 C 432.07014,102.99732 433.31276,104.0081 433.31276,104.0081 L 413.6415,114.12476 z"
         id="path2002"
         style="fill:#000000;fill-opacity:1;fill-rule:evenodd;stroke:#404040;stroke-width:1.20000005;stroke-linecap:butt;stroke-linejoin:miter;stroke-miterlimit:4;stroke-dasharray:none;stroke-opacity:1;display:inline" />
      <path
         d="M 391.61289,196.64048 C 392.04828,190.71161 385.97882,187.31013 380.08772,187.34085 C 380.08772,187.34085 387.12205,184.61854 391.13599,186.06911 C 395.14993,187.51968 396.62038,189.80486 396.62038,189.80486 L 391.61289,196.64048 z"
         id="path2004"
         style="fill:#e20909;fill-opacity:1;fill-rule:evenodd;stroke:#404040;stroke-width:1.20000005;stroke-linecap:butt;stroke-linejoin:miter;stroke-miterlimit:4;stroke-dasharray:none;stroke-opacity:1;display:inline" />
      <path
         d="M 388.5925,205.54267 C 383.36483,200.97227 379.91864,205.58485 375.39818,207.60927 C 375.39818,207.60927 378.33908,200.63457 381.91586,198.46861 C 385.49263,196.30269 389.70528,198.94552 389.70528,198.94552 L 388.5925,205.54267 z"
         id="path2006"
         style="fill:#e20909;fill-opacity:1;fill-rule:evenodd;stroke:#404040;stroke-width:1.20000005;stroke-linecap:butt;stroke-linejoin:miter;stroke-miterlimit:4;stroke-dasharray:none;stroke-opacity:1;display:inline" />
      <path
         d="M 392.5667,213.57055 C 390.45459,214.55422 388.64616,216.75258 387.79767,222.79069 C 387.79767,222.79069 386.92334,217.18708 387.47973,214.20642 C 388.03612,211.22576 390.02321,210.86811 390.02321,210.86811 L 392.5667,213.57055 z"
         id="path2008"
         style="fill:#e20909;fill-opacity:1;fill-rule:evenodd;stroke:#404040;stroke-width:1.20000005;stroke-linecap:butt;stroke-linejoin:miter;stroke-miterlimit:4;stroke-dasharray:none;stroke-opacity:1;display:inline" />
      <path
         d="M 404.64826,214.52438 C 402.84979,216.35764 402.68519,218.89114 403.85341,221.99587 C 403.85341,221.99587 400.67406,217.90242 399.87922,215.79612 C 399.08438,213.68977 400.67406,213.57055 400.67406,213.57055 L 404.64826,214.52438 z"
         id="path2010"
         style="fill:#e20909;fill-opacity:1;fill-rule:evenodd;stroke:#404040;stroke-width:1.20000005;stroke-linecap:butt;stroke-linejoin:miter;stroke-miterlimit:4;stroke-dasharray:none;stroke-opacity:1;display:inline" />
      <path
         d="M 436.1846,164.02505 C 433.84549,164.02558 431.59147,164.16155 429.59975,164.48824 C 418.97727,166.23056 415.66642,173.47668 415.66642,173.47668 C 415.66642,173.47668 422.91253,184.09766 419.25929,188.98737 C 415.60606,193.87708 405.59641,196.38501 401.72057,193.03091 L 398.80371,190.50213 C 397.37784,189.2682 397.95973,187.36257 395.71159,188.48662 C 393.46344,189.6107 391.38582,192.77645 390.92944,193.93226 C 389.66024,197.14662 394.08415,197.31231 394.08415,197.31231 L 392.73213,198.42648 C 392.6043,198.71406 391.17892,196.37984 389.81527,197.31231 C 387.64912,198.79352 386.89228,202.59459 386.94849,205.01132 C 387.00469,207.4281 390.04061,206.97676 390.04061,206.97676 L 390.71662,209.44295 C 390.71662,209.44295 388.73919,209.84106 388.964,211.47098 C 389.18882,213.1009 391.73504,214.78313 392.95747,215.17652 C 394.1799,215.56995 394.81024,213.27367 394.81024,213.27367 L 399.70506,212.37233 C 399.70506,212.37232 398.46402,213.93873 400.43115,214.61318 C 402.39827,215.28763 403.92958,215.68844 405.71404,215.12645 C 407.49851,214.5644 406.22731,211.97173 406.22731,211.97173 C 419.22945,208.13952 433.25879,205.81118 449.84251,207.2021 C 444.86317,200.87772 443.59858,193.2099 443.99628,184.94382 C 450.49687,183.67359 454.2644,185.13128 457.70427,186.92178 C 459.36302,185.08472 461.98179,182.14303 460.92158,180.1116 C 458.86766,176.17611 455.58685,171.26768 453.92362,165.72759 C 449.56993,164.99834 442.55077,164.02359 436.1846,164.02505 z"
         id="path2012"
         style="fill:#000000;fill-opacity:1;fill-rule:evenodd;stroke:#404040;stroke-width:1.20000005;stroke-linecap:butt;stroke-linejoin:miter;stroke-miterlimit:4;stroke-dasharray:none;stroke-opacity:1;display:inline" />
      <path
         d="M 376.59044,123.19734 C 375.60961,120.62133 372.6018,118.35716 368.88049,116.20276 C 368.88049,116.20276 374.02708,116.75915 377.06734,117.79244 C 380.1076,118.82573 381.04153,120.33592 381.04153,120.33592 L 376.59044,123.19734 z"
         id="path2014"
         style="fill:#e20909;fill-opacity:1;fill-rule:evenodd;stroke:#404040;stroke-width:1.20000005;stroke-linecap:butt;stroke-linejoin:miter;stroke-miterlimit:4;stroke-dasharray:none;stroke-opacity:1;display:inline" />
      <path
         d="M 372.2983,132.65593 C 368.20506,129.82209 365.1247,133.06548 361.80643,134.88148 C 361.80643,134.88148 364.67184,129.61508 367.61275,127.74721 C 370.55365,125.87934 373.57004,127.40999 373.57004,127.40999 L 372.2983,132.65593 z"
         id="path2016"
         style="fill:#e20909;fill-opacity:1;fill-rule:evenodd;stroke:#404040;stroke-width:1.20000005;stroke-linecap:butt;stroke-linejoin:miter;stroke-miterlimit:4;stroke-dasharray:none;stroke-opacity:1;display:inline" />
      <path
         d="M 375.08024,142.27348 C 372.19486,142.30113 369.1238,142.99927 364.9063,147.83736 C 364.9063,147.83736 364.7672,143.96251 366.8934,141.31968 C 369.01959,138.67684 373.41108,137.266 373.41108,137.266 L 375.08024,142.27348 z"
         id="path2018"
         style="fill:#e20909;fill-opacity:1;fill-rule:evenodd;stroke:#404040;stroke-width:1.20000005;stroke-linecap:butt;stroke-linejoin:miter;stroke-miterlimit:4;stroke-dasharray:none;stroke-opacity:1;display:inline" />
      <path
         d="M 379.68948,146.09835 C 379.46431,147.66154 377.72251,149.28092 375.13479,150.25397 C 375.13479,150.25397 379.72984,150.42299 381.59792,149.50652 C 383.466,148.59004 383.02863,147.122 383.02863,147.122 L 379.68948,146.09835 z"
         id="path2020"
         style="fill:#e20909;fill-opacity:1;fill-rule:evenodd;stroke:#000000;stroke-width:1.20000005;stroke-linecap:butt;stroke-linejoin:miter;stroke-miterlimit:4;stroke-dasharray:none;stroke-opacity:1;display:inline" />
      <path
         d="M 461.39977,248.06656 C 462.80211,248.96607 463.40313,250.42645 460.60493,254.26632 C 460.60493,254.26632 464.53939,252.39844 465.85087,250.76904 C 467.16235,249.13961 465.85087,247.74865 465.85087,247.74865 L 461.39977,248.06656 z"
         id="path2022"
         style="fill:#e20909;fill-opacity:1;fill-rule:evenodd;stroke:#404040;stroke-width:1.20000005;stroke-linecap:butt;stroke-linejoin:miter;stroke-miterlimit:4;stroke-dasharray:none;stroke-opacity:1;display:inline" />
      <path
         d="M 451.8617,246 C 451.68463,250.12412 447.79542,249.92815 443.43641,251.72283 C 443.43641,251.72283 449.35796,253.31253 452.17964,251.56387 C 455.00132,249.81522 456.3128,248.22552 456.3128,248.22552 L 451.8617,246 z"
         id="path2024"
         style="fill:#e20909;fill-opacity:1;fill-rule:evenodd;stroke:#404040;stroke-width:1.20000005;stroke-linecap:butt;stroke-linejoin:miter;stroke-miterlimit:4;stroke-dasharray:none;stroke-opacity:1;display:inline" />
      <path
         d="M 450.27202,243.93342 C 446.37315,239.53797 441.26674,243.59524 436.60079,244.5693 C 436.60079,244.5693 441.17111,239.80024 444.86711,238.68746 C 448.56312,237.57468 451.38479,240.1182 451.38479,240.1182 L 450.27202,243.93342 z"
         id="path2026"
         style="fill:#e20909;fill-opacity:1;fill-rule:evenodd;stroke:#404040;stroke-width:1.20000005;stroke-linecap:butt;stroke-linejoin:miter;stroke-miterlimit:4;stroke-dasharray:none;stroke-opacity:1;display:inline" />
      <path
         d="M 452.97448,234.55432 C 451.40041,227.60437 445.09189,228.54514 439.93912,227.5597 C 439.93912,227.5597 447.56957,225.05596 451.54377,225.01622 C 455.51796,224.97648 455.8359,227.40074 455.8359,227.40074 L 452.97448,234.55432 z"
         id="path2028"
         style="fill:#e20909;fill-opacity:1;fill-rule:evenodd;stroke:#404040;stroke-width:1.20000005;stroke-linecap:butt;stroke-linejoin:miter;stroke-miterlimit:4;stroke-dasharray:none;stroke-opacity:1;display:inline" />
      <path
         d="M 427.85756,113.10289 C 427.85756,113.10289 411.24543,120.01799 400.19716,122.32302 C 389.1489,124.62806 383.02863,121.52818 383.02863,121.52818 C 383.02863,121.52818 383.58502,118.11037 380.80308,118.5078 C 378.02115,118.90521 376.11353,120.81283 375.08024,122.79993 C 374.56359,123.79348 376.31224,124.3896 376.75934,125.37322 C 377.20643,126.35683 376.03405,127.40999 376.03405,127.40999 C 376.03405,127.40999 373.49056,124.15115 372.21882,126.13825 C 370.94707,128.12535 369.59585,130.58935 370.47017,133.2918 C 370.90733,134.64303 372.53675,133.17258 373.73895,133.74884 C 374.94114,134.32509 374.7623,136.47116 374.7623,136.47116 C 374.7623,136.47116 371.74191,135.39812 372.21882,137.58393 C 372.69572,139.76974 372.53675,142.03503 374.2854,143.46574 C 376.03405,144.89646 376.82889,141.7171 376.82889,141.7171 L 379.53134,143.94265 C 379.53134,143.94265 377.70321,145.53232 379.2134,146.80406 C 380.7236,148.07581 382.47225,149.02962 383.98244,149.02962 C 385.49263,149.02962 385.09521,146.00922 385.09521,146.00922 C 386.36889,144.4764 387.90458,143.46762 390.02321,143.62471 C 393.34771,144.86351 393.11402,147.16976 392.24876,149.66549 C 396.49036,149.77638 399.59717,147.61769 403.05857,146.16819 C 405.67216,146.56582 406.37857,147.67864 405.60206,149.34755 C 411.39443,151.19712 416.19377,148.57802 421.18091,146.80406 C 422.24862,147.67364 422.62427,148.95843 421.57833,151.09619 C 427.30117,142.61791 433.02401,139.33258 438.74685,141.24019 C 443.29727,148.01633 447.80015,152.31206 452.97448,157.21646 C 452.08932,166.26025 457.86829,174.255 460.92287,180.10784 C 462.3975,182.93334 456.72851,187.55669 456.47177,188.45364 C 454.73337,194.52676 455.99112,204.1745 456.41722,204.03249 C 457.7687,201.29416 459.96699,200.24951 462.51255,199.89931 C 462.27134,201.86449 460.88675,202.9721 462.83048,206.57597 C 465.42897,209.24688 468.21858,211.44 471.41474,212.61676 C 467.67044,217.38597 465.2189,223.02032 461.87667,228.19558 C 461.00205,229.54992 460.12803,228.91096 458.69731,228.19558 C 457.26661,227.48022 457.3348,225.15923 456.15383,225.33418 C 453.29181,225.75813 449.51672,232.93262 450.93847,235.63982 C 451.9897,237.64146 453.01621,235.48319 453.68418,236.40405 C 454.35215,237.32494 454.50313,238.59352 453.61035,239.32333 C 452.71757,240.05314 451.38479,237.10577 450.11305,238.53647 C 448.84131,239.96721 449.02521,242.2947 449.42263,243.92213 C 449.82006,245.54952 451.30931,244.54037 451.30931,244.54037 L 451.94537,245.52424 C 451.35366,245.90357 450.96965,245.73712 451.21784,246.73782 C 451.59441,248.25608 454.88931,250.82208 456.26127,248.91764 C 456.78952,248.18434 456.95141,247.75954 456.97263,247.76323 L 459.75503,247.23083 C 460.40656,247.10617 459.61792,249.35557 460.0429,249.46369 C 461.94997,249.9487 466.42578,249.88797 467.61715,248.86308 C 469.24647,247.46142 466.86538,245.39785 469.56664,245.70135 C 469.56664,245.70135 470.26664,246.20274 470.82324,245.84252 C 480.91515,239.31099 487.88587,228.99016 488.58327,226.60592 C 489.29188,224.18334 488.18585,224.38035 489.45759,223.34709 C 490.72933,222.31378 493.67024,222.47274 493.67024,222.47274 C 493.67024,222.47274 499.11403,220.03297 494.30611,216.7499 C 490.42592,214.10034 486.66148,201.47098 487.9474,199.89931 C 487.64682,195.5992 485.1244,191.70309 482.54249,187.81776 C 481.79482,183.96332 482.98968,181.4039 484.76804,179.23349 C 485.78501,178.86738 500.44361,196.90135 505.43386,203.07866 C 511.78019,210.93469 520.37684,198.30965 520.37684,198.30965 C 520.37684,198.30965 526.09968,190.52021 525.70226,180.58471 C 525.30484,170.64924 518.78715,158.56768 518.78715,158.56768 C 517.3641,152.19602 521.37642,147.37732 525.78174,142.6709 C 521.57671,144.63583 517.1968,144.67707 513.38225,150.93723 C 513.38225,150.93723 512.34896,146.48613 513.22328,141.7171 C 514.09761,136.94806 518.94613,133.7687 518.94613,133.7687 C 513.25321,136.61745 508.47356,139.61841 507.81838,143.30678 C 506.04594,132.56308 511.08322,123.11648 518.15129,114.0567 C 510.79101,118.79812 504.29765,124.23309 501.14173,132.33799 C 497.1162,113.14059 512.12639,104.04754 528.64316,89.257711 C 541.0395,78.157507 531.18665,68.273959 531.18665,68.273959 C 521.716,65.511595 513.86448,68.694152 507.34147,72.248155 C 507.34147,72.248155 501.09345,65.730829 497.3265,71.930223 C 492.95779,79.119957 489.46381,82.765078 491.44469,91.006355 C 490.4231,89.644235 500.25484,82.802762 507.81838,82.740033 C 513.90738,82.689533 509.56702,75.427514 509.56702,75.427514 C 509.56702,75.427514 524.9869,68.83035 528.00729,71.771255 C 531.02768,74.712159 532.10257,78.350011 524.35103,85.601447 L 504.63902,104.04172 C 495.13216,112.93524 492.58453,122.38647 497.96237,137.58393 C 503.69211,153.77587 520.72433,166.4185 520.45632,177.16692 C 520.18831,187.91535 521.23645,188.5719 518.15129,193.38164 C 515.06613,198.1914 512.65524,203.15838 506.86457,196.0046 C 501.07391,188.85083 493.40401,176.92256 487.23204,168.18524 C 477.22904,154.02456 472.82559,149.28794 468.87126,137.90187 C 464.91693,126.5158 469.82507,128.52276 469.6661,121.84611 C 469.50713,115.16947 468.23539,111.19527 468.23539,111.19527 L 427.85756,113.10289 z"
         id="path2030"
         style="fill:#000000;fill-opacity:1;fill-rule:evenodd;stroke:#404040;stroke-width:1.20000005;stroke-linecap:butt;stroke-linejoin:miter;stroke-miterlimit:4;stroke-dasharray:none;stroke-opacity:1;display:inline" />
      <path
         d="M 455.00736,82.650731 C 447.03215,83.788437 439.41198,86.407563 430.7274,85.798131 C 418.94323,84.97119 422.3735,79.335656 423.98296,77.479997 C 425.51672,75.711619 431.56549,81.624682 436.79739,83.549987 C 442.86775,85.783831 448.9381,82.95304 455.00736,82.650731 z"
         id="path2032"
         style="fill:#e20909;fill-opacity:1;fill-rule:evenodd;stroke:#404040;stroke-width:1.20000005;stroke-linecap:butt;stroke-linejoin:miter;stroke-miterlimit:4;stroke-dasharray:none;stroke-opacity:1;display:inline" />
      <path
         d="M 451.18552,77.480001 C 449.27009,75.444026 445.50731,75.340751 441.6871,75.850096 C 441.04701,74.976949 438.24653,73.341874 431.06462,73.658151 C 428.47618,70.375518 428.04159,65.194287 431.17703,63.20428 C 434.04553,61.38369 439.25962,62.225836 439.83238,61.855393 C 443.18798,59.685115 441.6871,56.797066 449.04978,55.560589 C 456.41245,54.324109 469.28308,56.909474 469.28308,56.909474 C 469.28308,56.909474 473.49835,54.886145 476.13992,54.661329 C 478.78149,54.436516 478.55667,54.436516 479.84936,56.010217 C 481.14204,57.583918 482.46283,58.286463 481.31065,60.956136 C 480.15848,63.625809 475.24066,66.688901 475.24066,66.688901 C 475.24066,66.688901 472.93631,73.517645 475.24066,78.266849 C 477.54501,83.016053 485.58213,86.360167 485.58213,86.360167 C 481.94577,86.551807 479.14136,87.218843 477.60121,88.608315 C 476.73942,89.282755 475.99423,90.581955 476.36473,91.643307 C 477.24009,94.150883 481.98509,98.387739 481.98509,98.387739 C 481.98509,98.387739 480.04607,97.488483 479.06251,99.849035 C 478.07894,102.20959 478.05084,107.82995 478.05084,107.82995 C 478.05084,107.82995 471.81202,107.91012 470.29474,112.10142 C 468.19388,117.90481 473.27623,126.66233 474.3414,125.14066 C 474.3414,125.14066 471.02539,126.40525 468.49623,125.47788 C 465.96707,124.55053 463.66272,121.43122 463.66272,121.43122 C 461.23445,121.87164 459.20341,123.05699 458.26717,124.69103 C 442.36338,119.46593 438.20653,125.98776 434.32443,132.78435 C 433.11894,134.00465 431.63307,134.52398 429.82814,134.24565 C 432.23234,131.20283 432.60265,127.65154 432.63832,124.01659 C 425.95617,124.43866 419.76106,130.08016 411.05613,128.8501 C 415.56227,125.81155 417.92925,121.91734 416.45168,116.4853 C 412.74886,114.21423 407.43619,113.87496 402.28837,113.3379 C 418.06469,109.98042 427.94344,105.97875 430.27777,99.849035 L 440.61923,98.949779 C 444.34394,96.720683 444.44626,94.820899 445.00311,92.879787 C 442.47518,90.198707 438.31503,92.433035 434.77406,91.418495 C 433.28136,90.990815 433.18075,89.058599 433.88965,88.529779 C 434.2441,88.265371 434.63415,87.303531 435.24264,87.175243 C 435.85113,87.046959 436.67805,87.752235 437.45663,87.674655 C 440.35796,87.385567 449.56893,87.211423 452.5344,86.697387 C 454.34909,83.374331 453.58679,80.0324 451.18552,77.480001 z"
         id="path2034"
         style="fill:#000000;fill-opacity:1;fill-rule:evenodd;stroke:#404040;stroke-width:1.20000005;stroke-linecap:butt;stroke-linejoin:miter;stroke-miterlimit:4;stroke-dasharray:none;stroke-opacity:1;display:inline" />
      <path
         d="M 456.63073,62.710059 C 456.63192,63.500614 455.2793,64.141784 453.61035,64.141784 C 451.9414,64.141784 450.58877,63.500614 450.58996,62.710059 C 450.58877,61.919505 451.9414,61.278335 453.61035,61.278335 C 455.2793,61.278335 456.63192,61.919505 456.63073,62.710059 z"
         id="path2036"
         style="fill:#bababa;fill-opacity:1;fill-rule:evenodd;stroke:#808080;stroke-width:1.20000005;stroke-linecap:butt;stroke-linejoin:miter;stroke-miterlimit:4;stroke-dasharray:none;stroke-opacity:1;display:inline" />
      <path
         d="M 449.09139,166.16574 C 447.75521,166.14218 446.79394,166.76528 445.6863,167.12969 C 449.73712,170.3423 453.77238,173.5585 453.83599,177.78312 C 450.66947,184.39681 453.91435,185.80106 458.1925,186.37095 C 459.82354,184.53173 461.88179,181.95142 460.92158,180.1116 C 459.44457,177.28151 457.34076,173.94247 455.6512,170.23433 C 454.93173,169.4756 454.11269,168.67939 453.14746,167.81822 C 451.3979,166.59416 450.13065,166.18407 449.09139,166.16574 z"
         id="path3914"
         style="fill:#000000;fill-opacity:1;fill-rule:evenodd;stroke:#404040;stroke-width:1.20000005;stroke-linecap:butt;stroke-linejoin:miter;stroke-miterlimit:4;stroke-dasharray:none;stroke-opacity:1" />
    </g>
    <g
       transform="translate(-3.3388554,0.1408496)"
       id="g4959">
      <path
         d="M 345.74197,9.3371441 C 333.22482,25.794367 333.11172,26.699147 333.11172,26.699147 L 345.74197,45.560967 L 358.97846,26.832622 L 345.74197,9.3371441 z"
         id="path4129"
         style="fill:#e20909;fill-rule:evenodd;stroke:#000000;stroke-width:2;stroke-linecap:butt;stroke-linejoin:miter;stroke-miterlimit:4;stroke-dasharray:none;stroke-opacity:1" />
      <path
         d="M 417.83835,9.3371443 C 405.3212,25.794367 405.2081,26.699147 405.2081,26.699147 L 417.83835,45.560967 L 431.07484,26.832622 L 417.83835,9.3371443 z"
         id="path4901"
         style="fill:#e20909;fill-rule:evenodd;stroke:#000000;stroke-width:2;stroke-linecap:butt;stroke-linejoin:miter;stroke-miterlimit:4;stroke-dasharray:none;stroke-opacity:1;display:inline" />
      <path
         d="M 489.93469,9.3371443 C 477.41754,25.794367 477.30444,26.699147 477.30444,26.699147 L 489.93469,45.560967 L 503.17118,26.832622 L 489.93469,9.3371443 z"
         id="path4903"
         style="fill:#e20909;fill-rule:evenodd;stroke:#000000;stroke-width:2;stroke-linecap:butt;stroke-linejoin:miter;stroke-miterlimit:4;stroke-dasharray:none;stroke-opacity:1;display:inline" />
      <path
         d="M 562.03105,9.3371445 C 549.5139,25.794367 549.4008,26.699147 549.4008,26.699147 L 562.03105,45.560967 L 575.26754,26.832622 L 562.03105,9.3371445 z"
         id="path4905"
         style="fill:#e20909;fill-rule:evenodd;stroke:#000000;stroke-width:2;stroke-linecap:butt;stroke-linejoin:miter;stroke-miterlimit:4;stroke-dasharray:none;stroke-opacity:1;display:inline" />
      <path
         d="M 345.74197,256.3739 C 333.22482,272.83113 333.11172,273.73591 333.11172,273.73591 L 345.74197,292.59773 L 358.97846,273.86938 L 345.74197,256.3739 z"
         id="path4915"
         style="fill:#e20909;fill-rule:evenodd;stroke:#000000;stroke-width:2;stroke-linecap:butt;stroke-linejoin:miter;stroke-miterlimit:4;stroke-dasharray:none;stroke-opacity:1" />
      <path
         d="M 417.83835,256.3739 C 405.3212,272.83113 405.2081,273.73591 405.2081,273.73591 L 417.83835,292.59773 L 431.07484,273.86938 L 417.83835,256.3739 z"
         id="path4917"
         style="fill:#e20909;fill-rule:evenodd;stroke:#000000;stroke-width:2;stroke-linecap:butt;stroke-linejoin:miter;stroke-miterlimit:4;stroke-dasharray:none;stroke-opacity:1;display:inline" />
      <path
         d="M 489.93469,256.3739 C 477.41754,272.83113 477.30444,273.73591 477.30444,273.73591 L 489.93469,292.59773 L 503.17118,273.86938 L 489.93469,256.3739 z"
         id="path4919"
         style="fill:#e20909;fill-rule:evenodd;stroke:#000000;stroke-width:2;stroke-linecap:butt;stroke-linejoin:miter;stroke-miterlimit:4;stroke-dasharray:none;stroke-opacity:1;display:inline" />
      <path
         d="M 562.03105,256.3739 C 549.5139,272.83113 549.4008,273.73591 549.4008,273.73591 L 562.03105,292.59773 L 575.26754,273.86938 L 562.03105,256.3739 z"
         id="path4921"
         style="fill:#e20909;fill-rule:evenodd;stroke:#000000;stroke-width:2;stroke-linecap:butt;stroke-linejoin:miter;stroke-miterlimit:4;stroke-dasharray:none;stroke-opacity:1;display:inline" />
      <path
         d="M 345.74197,174.02831 C 333.22482,190.48554 333.11172,191.39032 333.11172,191.39032 L 345.74197,210.25214 L 358.97846,191.52379 L 345.74197,174.02831 z"
         id="path4925"
         style="fill:#e20909;fill-rule:evenodd;stroke:#000000;stroke-width:2;stroke-linecap:butt;stroke-linejoin:miter;stroke-miterlimit:4;stroke-dasharray:none;stroke-opacity:1" />
      <path
         d="M 562.03105,174.02831 C 549.5139,190.48554 549.4008,191.39032 549.4008,191.39032 L 562.03105,210.25214 L 575.26754,191.52379 L 562.03105,174.02831 z"
         id="path4931"
         style="fill:#e20909;fill-rule:evenodd;stroke:#000000;stroke-width:2;stroke-linecap:butt;stroke-linejoin:miter;stroke-miterlimit:4;stroke-dasharray:none;stroke-opacity:1;display:inline" />
      <path
         d="M 345.74197,91.682719 C 333.22482,108.13994 333.11172,109.04472 333.11172,109.04472 L 345.74197,127.90654 L 358.97846,109.1782 L 345.74197,91.682719 z"
         id="path4935"
         style="fill:#e20909;fill-rule:evenodd;stroke:#000000;stroke-width:2;stroke-linecap:butt;stroke-linejoin:miter;stroke-miterlimit:4;stroke-dasharray:none;stroke-opacity:1" />
      <path
         d="M 562.03105,91.682719 C 549.5139,108.13994 549.4008,109.04472 549.4008,109.04472 L 562.03105,127.90654 L 575.26754,109.1782 L 562.03105,91.682719 z"
         id="path4941"
         style="fill:#e20909;fill-rule:evenodd;stroke:#000000;stroke-width:2;stroke-linecap:butt;stroke-linejoin:miter;stroke-miterlimit:4;stroke-dasharray:none;stroke-opacity:1;display:inline" />
    </g>
    <path
       d="M 34.655205,312.35093 C 22.138055,328.80816 22.024955,329.71294 22.024955,329.71294 L 34.655205,348.57476 L 47.891695,329.84641 L 34.655205,312.35093 z"
       id="path4975"
       style="fill:#e20909;fill-rule:evenodd;stroke:#000000;stroke-width:2;stroke-linecap:butt;stroke-linejoin:miter;stroke-miterlimit:4;stroke-dasharray:none;stroke-opacity:1" />
    <path
       d="M 111.68614,312.35092 C 99.16899,328.80815 99.05589,329.71293 99.05589,329.71293 L 111.68614,348.57475 L 124.92263,329.8464 L 111.68614,312.35092 z"
       id="path4977"
       style="fill:#e20909;fill-rule:evenodd;stroke:#000000;stroke-width:2;stroke-linecap:butt;stroke-linejoin:miter;stroke-miterlimit:4;stroke-dasharray:none;stroke-opacity:1;display:inline" />
    <path
       d="M 188.71708,312.35092 C 176.19993,328.80815 176.08683,329.71293 176.08683,329.71293 L 188.71708,348.57475 L 201.95357,329.8464 L 188.71708,312.35092 z"
       id="path4979"
       style="fill:#e20909;fill-rule:evenodd;stroke:#000000;stroke-width:2;stroke-linecap:butt;stroke-linejoin:miter;stroke-miterlimit:4;stroke-dasharray:none;stroke-opacity:1;display:inline" />
    <path
       d="M 265.74802,312.35092 C 253.23087,328.80815 253.11777,329.71293 253.11777,329.71293 L 265.74802,348.57475 L 278.98451,329.8464 L 265.74802,312.35092 z"
       id="path4981"
       style="fill:#e20909;fill-rule:evenodd;stroke:#000000;stroke-width:2;stroke-linecap:butt;stroke-linejoin:miter;stroke-miterlimit:4;stroke-dasharray:none;stroke-opacity:1;display:inline" />
    <path
       d="M 108.25767,464.24315 C 95.740517,480.70038 95.627417,481.60516 95.627417,481.60516 L 108.25767,500.46698 L 121.49416,481.73863 L 108.25767,464.24315 z"
       id="path4983"
       style="fill:#e20909;fill-rule:evenodd;stroke:#000000;stroke-width:2;stroke-linecap:butt;stroke-linejoin:miter;stroke-miterlimit:4;stroke-dasharray:none;stroke-opacity:1" />
    <path
       d="M 154.17499,510.35053 C 141.65784,526.80776 141.54474,527.71254 141.54474,527.71254 L 154.17499,546.57436 L 167.41148,527.84601 L 154.17499,510.35053 z"
       id="path4985"
       style="fill:#e20909;fill-rule:evenodd;stroke:#000000;stroke-width:2;stroke-linecap:butt;stroke-linejoin:miter;stroke-miterlimit:4;stroke-dasharray:none;stroke-opacity:1;display:inline" />
    <path
       d="M 206.26058,551.52332 C 193.74343,567.98055 193.63033,568.88533 193.63033,568.88533 L 206.26058,587.74715 L 219.49707,569.0188 L 206.26058,551.52332 z"
       id="path4987"
       style="fill:#e20909;fill-rule:evenodd;stroke:#000000;stroke-width:2;stroke-linecap:butt;stroke-linejoin:miter;stroke-miterlimit:4;stroke-dasharray:none;stroke-opacity:1;display:inline" />
    <path
       d="M 265.74802,581.5933 C 253.23087,598.05053 253.11777,598.95531 253.11777,598.95531 L 265.74802,617.81713 L 278.98451,599.08878 L 265.74802,581.5933 z"
       id="path4989"
       style="fill:#e20909;fill-rule:evenodd;stroke:#000000;stroke-width:2;stroke-linecap:butt;stroke-linejoin:miter;stroke-miterlimit:4;stroke-dasharray:none;stroke-opacity:1;display:inline" />
    <path
       d="M 73.443133,416.90212 C 60.925982,433.35935 60.812882,434.26413 60.812882,434.26413 L 73.443133,453.12595 L 86.679623,434.3976 L 73.443133,416.90212 z"
       id="path4991"
       style="fill:#e20909;fill-rule:evenodd;stroke:#000000;stroke-width:2;stroke-linecap:butt;stroke-linejoin:miter;stroke-miterlimit:4;stroke-dasharray:none;stroke-opacity:1" />
    <path
       d="M 265.74803,491.84584 C 253.23088,508.30307 253.11778,509.20785 253.11778,509.20785 L 265.74803,528.06967 L 278.98452,509.34132 L 265.74803,491.84584 z"
       id="path4993"
       style="fill:#e20909;fill-rule:evenodd;stroke:#000000;stroke-width:2;stroke-linecap:butt;stroke-linejoin:miter;stroke-miterlimit:4;stroke-dasharray:none;stroke-opacity:1;display:inline" />
    <path
       d="M 52.198702,364.62654 C 39.681552,381.08376 39.568452,381.98854 39.568452,381.98854 L 52.198702,400.85036 L 65.435192,382.12202 L 52.198702,364.62654 z"
       id="path4995"
       style="fill:#e20909;fill-rule:evenodd;stroke:#000000;stroke-width:2;stroke-linecap:butt;stroke-linejoin:miter;stroke-miterlimit:4;stroke-dasharray:none;stroke-opacity:1" />
    <path
       d="M 265.74803,402.09839 C 253.23088,418.55561 253.11778,419.46039 253.11778,419.46039 L 265.74803,438.32221 L 278.98452,419.59387 L 265.74803,402.09839 z"
       id="path4997"
       style="fill:#e20909;fill-rule:evenodd;stroke:#000000;stroke-width:2;stroke-linecap:butt;stroke-linejoin:miter;stroke-miterlimit:4;stroke-dasharray:none;stroke-opacity:1;display:inline" />
    <g
       transform="matrix(0.8,0,0,0.8,-173.63547,318.11626)"
       id="g5011"
       style="display:inline">
      <path
         d="M 384.30322,97.825703 C 380.29994,100.8437 374.30809,101.365 371.93841,98.387739 C 371.93841,98.387739 375.9633,99.329947 377.78359,97.151267 C 380.2539,94.194587 380.3435,92.797639 380.70618,93.441823 L 384.30322,97.825703 z"
         id="path5013"
         style="fill:#e20909;fill-opacity:1;fill-rule:evenodd;stroke:#404040;stroke-width:1.20000005;stroke-linecap:butt;stroke-linejoin:miter;stroke-miterlimit:4;stroke-dasharray:none;stroke-opacity:1;display:inline" />
      <path
         d="M 376.65952,85.123693 C 373.15404,82.385489 368.92656,82.698687 367.21731,87.147019 C 366.76456,86.977235 367.40856,81.575408 369.35305,79.615736 C 371.35249,77.60068 371.88221,76.88986 374.86101,76.805556 C 377.83979,76.721252 381.60544,78.491664 381.60544,78.491664 L 376.65952,85.123693 z"
         id="path5015"
         style="fill:#e20909;fill-opacity:1;fill-rule:evenodd;stroke:#404040;stroke-width:1.20000005;stroke-linecap:butt;stroke-linejoin:miter;stroke-miterlimit:4;stroke-dasharray:none;stroke-opacity:1;display:inline" />
      <path
         d="M 382.72951,72.758895 C 380.89119,67.729515 379.62197,62.463577 371.7136,63.316685 C 371.7136,63.316685 375.6608,60.825327 380.25655,61.518172 C 385.93541,62.374302 390.11227,69.27093 389.81117,69.386679 L 382.72951,72.758895 z"
         id="path5017"
         style="fill:#e20909;fill-opacity:1;fill-rule:evenodd;stroke:#404040;stroke-width:1.20000005;stroke-linecap:butt;stroke-linejoin:miter;stroke-miterlimit:4;stroke-dasharray:none;stroke-opacity:1;display:inline" />
      <path
         d="M 395.76875,69.7239 C 398.16419,67.435705 397.90895,62.496834 398.69134,58.595583 C 398.69134,58.595583 401.75444,61.265255 402.51319,65.002793 C 403.27193,68.740339 401.72633,73.545746 401.72633,73.545746 L 395.76875,69.7239 z"
         id="path5019"
         style="fill:#e20909;fill-opacity:1;fill-rule:evenodd;stroke:#404040;stroke-width:1.20000005;stroke-linecap:butt;stroke-linejoin:miter;stroke-miterlimit:4;stroke-dasharray:none;stroke-opacity:1;display:inline" />
      <path
         d="M 413.6415,114.12476 L 409.70724,112.18573 C 411.13398,110.66607 409.50537,109.45194 408.02114,108.22338 C 407.14004,106.76342 405.52692,106.74923 403.74966,107.38032 C 403.49349,104.59172 401.47055,104.07468 399.14097,103.9519 C 398.62194,99.698639 396.49681,99.942455 394.53227,99.736631 C 393.74059,97.564619 392.30713,97.154591 390.99144,97.488483 C 390.55818,96.703407 389.37483,96.480899 386.55136,97.488483 C 386.55136,97.488483 384.75284,100.57968 382.72951,99.736631 C 380.70618,98.893575 378.73905,96.476823 378.00841,94.790715 C 377.27776,93.104603 380.76238,93.441827 380.70618,91.418495 C 380.64998,89.395167 379.30109,87.933871 377.78359,86.697391 C 376.2661,85.460911 374.07415,86.809799 374.46758,83.887212 C 374.86101,80.964623 375.04366,78.294954 376.99674,76.749357 C 378.94981,75.203756 382.27988,77.704817 382.27988,77.704817 C 382.27988,77.704817 384.45777,77.311393 384.05732,76.032757 C 383.65687,74.754126 380.67808,72.590286 381.83025,71.072791 C 384.1346,68.037792 385.87691,66.604601 388.68709,66.576499 C 391.49727,66.548398 390.45751,70.93228 392.22792,71.297602 C 393.99833,71.662928 394.32151,67.279042 397.11764,68.375013 C 399.91377,69.470983 403.5581,71.66202 402.62559,74.669818 C 401.83332,77.225277 400.89554,76.337441 401.20355,77.248851 C 401.6339,78.522247 400.43626,77.396793 404.98614,81.582861 C 406.9193,83.361439 409.58606,85.891219 412.63752,88.286683 C 415.68898,90.682139 419.19073,93.964343 422.20377,96.376707 C 425.21681,98.789075 428.07836,99.769559 430.07425,101.38344 C 432.07014,102.99732 433.31276,104.0081 433.31276,104.0081 L 413.6415,114.12476 z"
         id="path5021"
         style="fill:#000000;fill-opacity:1;fill-rule:evenodd;stroke:#404040;stroke-width:1.20000005;stroke-linecap:butt;stroke-linejoin:miter;stroke-miterlimit:4;stroke-dasharray:none;stroke-opacity:1;display:inline" />
      <path
         d="M 391.61289,196.64048 C 392.04828,190.71161 385.97882,187.31013 380.08772,187.34085 C 380.08772,187.34085 387.12205,184.61854 391.13599,186.06911 C 395.14993,187.51968 396.62038,189.80486 396.62038,189.80486 L 391.61289,196.64048 z"
         id="path5023"
         style="fill:#e20909;fill-opacity:1;fill-rule:evenodd;stroke:#404040;stroke-width:1.20000005;stroke-linecap:butt;stroke-linejoin:miter;stroke-miterlimit:4;stroke-dasharray:none;stroke-opacity:1;display:inline" />
      <path
         d="M 388.5925,205.54267 C 383.36483,200.97227 379.91864,205.58485 375.39818,207.60927 C 375.39818,207.60927 378.33908,200.63457 381.91586,198.46861 C 385.49263,196.30269 389.70528,198.94552 389.70528,198.94552 L 388.5925,205.54267 z"
         id="path5025"
         style="fill:#e20909;fill-opacity:1;fill-rule:evenodd;stroke:#404040;stroke-width:1.20000005;stroke-linecap:butt;stroke-linejoin:miter;stroke-miterlimit:4;stroke-dasharray:none;stroke-opacity:1;display:inline" />
      <path
         d="M 392.5667,213.57055 C 390.45459,214.55422 388.64616,216.75258 387.79767,222.79069 C 387.79767,222.79069 386.92334,217.18708 387.47973,214.20642 C 388.03612,211.22576 390.02321,210.86811 390.02321,210.86811 L 392.5667,213.57055 z"
         id="path5027"
         style="fill:#e20909;fill-opacity:1;fill-rule:evenodd;stroke:#404040;stroke-width:1.20000005;stroke-linecap:butt;stroke-linejoin:miter;stroke-miterlimit:4;stroke-dasharray:none;stroke-opacity:1;display:inline" />
      <path
         d="M 404.64826,214.52438 C 402.84979,216.35764 402.68519,218.89114 403.85341,221.99587 C 403.85341,221.99587 400.67406,217.90242 399.87922,215.79612 C 399.08438,213.68977 400.67406,213.57055 400.67406,213.57055 L 404.64826,214.52438 z"
         id="path5029"
         style="fill:#e20909;fill-opacity:1;fill-rule:evenodd;stroke:#404040;stroke-width:1.20000005;stroke-linecap:butt;stroke-linejoin:miter;stroke-miterlimit:4;stroke-dasharray:none;stroke-opacity:1;display:inline" />
      <path
         d="M 436.1846,164.02505 C 433.84549,164.02558 431.59147,164.16155 429.59975,164.48824 C 418.97727,166.23056 415.66642,173.47668 415.66642,173.47668 C 415.66642,173.47668 422.91253,184.09766 419.25929,188.98737 C 415.60606,193.87708 405.59641,196.38501 401.72057,193.03091 L 398.80371,190.50213 C 397.37784,189.2682 397.95973,187.36257 395.71159,188.48662 C 393.46344,189.6107 391.38582,192.77645 390.92944,193.93226 C 389.66024,197.14662 394.08415,197.31231 394.08415,197.31231 L 392.73213,198.42648 C 392.6043,198.71406 391.17892,196.37984 389.81527,197.31231 C 387.64912,198.79352 386.89228,202.59459 386.94849,205.01132 C 387.00469,207.4281 390.04061,206.97676 390.04061,206.97676 L 390.71662,209.44295 C 390.71662,209.44295 388.73919,209.84106 388.964,211.47098 C 389.18882,213.1009 391.73504,214.78313 392.95747,215.17652 C 394.1799,215.56995 394.81024,213.27367 394.81024,213.27367 L 399.70506,212.37233 C 399.70506,212.37232 398.46402,213.93873 400.43115,214.61318 C 402.39827,215.28763 403.92958,215.68844 405.71404,215.12645 C 407.49851,214.5644 406.22731,211.97173 406.22731,211.97173 C 419.22945,208.13952 433.25879,205.81118 449.84251,207.2021 C 444.86317,200.87772 443.59858,193.2099 443.99628,184.94382 C 450.49687,183.67359 454.2644,185.13128 457.70427,186.92178 C 459.36302,185.08472 461.98179,182.14303 460.92158,180.1116 C 458.86766,176.17611 455.58685,171.26768 453.92362,165.72759 C 449.56993,164.99834 442.55077,164.02359 436.1846,164.02505 z"
         id="path5031"
         style="fill:#000000;fill-opacity:1;fill-rule:evenodd;stroke:#404040;stroke-width:1.20000005;stroke-linecap:butt;stroke-linejoin:miter;stroke-miterlimit:4;stroke-dasharray:none;stroke-opacity:1;display:inline" />
      <path
         d="M 376.59044,123.19734 C 375.60961,120.62133 372.6018,118.35716 368.88049,116.20276 C 368.88049,116.20276 374.02708,116.75915 377.06734,117.79244 C 380.1076,118.82573 381.04153,120.33592 381.04153,120.33592 L 376.59044,123.19734 z"
         id="path5033"
         style="fill:#e20909;fill-opacity:1;fill-rule:evenodd;stroke:#404040;stroke-width:1.20000005;stroke-linecap:butt;stroke-linejoin:miter;stroke-miterlimit:4;stroke-dasharray:none;stroke-opacity:1;display:inline" />
      <path
         d="M 372.2983,132.65593 C 368.20506,129.82209 365.1247,133.06548 361.80643,134.88148 C 361.80643,134.88148 364.67184,129.61508 367.61275,127.74721 C 370.55365,125.87934 373.57004,127.40999 373.57004,127.40999 L 372.2983,132.65593 z"
         id="path5035"
         style="fill:#e20909;fill-opacity:1;fill-rule:evenodd;stroke:#404040;stroke-width:1.20000005;stroke-linecap:butt;stroke-linejoin:miter;stroke-miterlimit:4;stroke-dasharray:none;stroke-opacity:1;display:inline" />
      <path
         d="M 375.08024,142.27348 C 372.19486,142.30113 369.1238,142.99927 364.9063,147.83736 C 364.9063,147.83736 364.7672,143.96251 366.8934,141.31968 C 369.01959,138.67684 373.41108,137.266 373.41108,137.266 L 375.08024,142.27348 z"
         id="path5037"
         style="fill:#e20909;fill-opacity:1;fill-rule:evenodd;stroke:#404040;stroke-width:1.20000005;stroke-linecap:butt;stroke-linejoin:miter;stroke-miterlimit:4;stroke-dasharray:none;stroke-opacity:1;display:inline" />
      <path
         d="M 379.68948,146.09835 C 379.46431,147.66154 377.72251,149.28092 375.13479,150.25397 C 375.13479,150.25397 379.72984,150.42299 381.59792,149.50652 C 383.466,148.59004 383.02863,147.122 383.02863,147.122 L 379.68948,146.09835 z"
         id="path5039"
         style="fill:#e20909;fill-opacity:1;fill-rule:evenodd;stroke:#000000;stroke-width:1.20000005;stroke-linecap:butt;stroke-linejoin:miter;stroke-miterlimit:4;stroke-dasharray:none;stroke-opacity:1;display:inline" />
      <path
         d="M 461.39977,248.06656 C 462.80211,248.96607 463.40313,250.42645 460.60493,254.26632 C 460.60493,254.26632 464.53939,252.39844 465.85087,250.76904 C 467.16235,249.13961 465.85087,247.74865 465.85087,247.74865 L 461.39977,248.06656 z"
         id="path5041"
         style="fill:#e20909;fill-opacity:1;fill-rule:evenodd;stroke:#404040;stroke-width:1.20000005;stroke-linecap:butt;stroke-linejoin:miter;stroke-miterlimit:4;stroke-dasharray:none;stroke-opacity:1;display:inline" />
      <path
         d="M 451.8617,246 C 451.68463,250.12412 447.79542,249.92815 443.43641,251.72283 C 443.43641,251.72283 449.35796,253.31253 452.17964,251.56387 C 455.00132,249.81522 456.3128,248.22552 456.3128,248.22552 L 451.8617,246 z"
         id="path5043"
         style="fill:#e20909;fill-opacity:1;fill-rule:evenodd;stroke:#404040;stroke-width:1.20000005;stroke-linecap:butt;stroke-linejoin:miter;stroke-miterlimit:4;stroke-dasharray:none;stroke-opacity:1;display:inline" />
      <path
         d="M 450.27202,243.93342 C 446.37315,239.53797 441.26674,243.59524 436.60079,244.5693 C 436.60079,244.5693 441.17111,239.80024 444.86711,238.68746 C 448.56312,237.57468 451.38479,240.1182 451.38479,240.1182 L 450.27202,243.93342 z"
         id="path5045"
         style="fill:#e20909;fill-opacity:1;fill-rule:evenodd;stroke:#404040;stroke-width:1.20000005;stroke-linecap:butt;stroke-linejoin:miter;stroke-miterlimit:4;stroke-dasharray:none;stroke-opacity:1;display:inline" />
      <path
         d="M 452.97448,234.55432 C 451.40041,227.60437 445.09189,228.54514 439.93912,227.5597 C 439.93912,227.5597 447.56957,225.05596 451.54377,225.01622 C 455.51796,224.97648 455.8359,227.40074 455.8359,227.40074 L 452.97448,234.55432 z"
         id="path5047"
         style="fill:#e20909;fill-opacity:1;fill-rule:evenodd;stroke:#404040;stroke-width:1.20000005;stroke-linecap:butt;stroke-linejoin:miter;stroke-miterlimit:4;stroke-dasharray:none;stroke-opacity:1;display:inline" />
      <path
         d="M 427.85756,113.10289 C 427.85756,113.10289 411.24543,120.01799 400.19716,122.32302 C 389.1489,124.62806 383.02863,121.52818 383.02863,121.52818 C 383.02863,121.52818 383.58502,118.11037 380.80308,118.5078 C 378.02115,118.90521 376.11353,120.81283 375.08024,122.79993 C 374.56359,123.79348 376.31224,124.3896 376.75934,125.37322 C 377.20643,126.35683 376.03405,127.40999 376.03405,127.40999 C 376.03405,127.40999 373.49056,124.15115 372.21882,126.13825 C 370.94707,128.12535 369.59585,130.58935 370.47017,133.2918 C 370.90733,134.64303 372.53675,133.17258 373.73895,133.74884 C 374.94114,134.32509 374.7623,136.47116 374.7623,136.47116 C 374.7623,136.47116 371.74191,135.39812 372.21882,137.58393 C 372.69572,139.76974 372.53675,142.03503 374.2854,143.46574 C 376.03405,144.89646 376.82889,141.7171 376.82889,141.7171 L 379.53134,143.94265 C 379.53134,143.94265 377.70321,145.53232 379.2134,146.80406 C 380.7236,148.07581 382.47225,149.02962 383.98244,149.02962 C 385.49263,149.02962 385.09521,146.00922 385.09521,146.00922 C 386.36889,144.4764 387.90458,143.46762 390.02321,143.62471 C 393.34771,144.86351 393.11402,147.16976 392.24876,149.66549 C 396.49036,149.77638 399.59717,147.61769 403.05857,146.16819 C 405.67216,146.56582 406.37857,147.67864 405.60206,149.34755 C 411.39443,151.19712 416.19377,148.57802 421.18091,146.80406 C 422.24862,147.67364 422.62427,148.95843 421.57833,151.09619 C 427.30117,142.61791 433.02401,139.33258 438.74685,141.24019 C 443.29727,148.01633 447.80015,152.31206 452.97448,157.21646 C 452.08932,166.26025 457.86829,174.255 460.92287,180.10784 C 462.3975,182.93334 456.72851,187.55669 456.47177,188.45364 C 454.73337,194.52676 455.99112,204.1745 456.41722,204.03249 C 457.7687,201.29416 459.96699,200.24951 462.51255,199.89931 C 462.27134,201.86449 460.88675,202.9721 462.83048,206.57597 C 465.42897,209.24688 468.21858,211.44 471.41474,212.61676 C 467.67044,217.38597 465.2189,223.02032 461.87667,228.19558 C 461.00205,229.54992 460.12803,228.91096 458.69731,228.19558 C 457.26661,227.48022 457.3348,225.15923 456.15383,225.33418 C 453.29181,225.75813 449.51672,232.93262 450.93847,235.63982 C 451.9897,237.64146 453.01621,235.48319 453.68418,236.40405 C 454.35215,237.32494 454.50313,238.59352 453.61035,239.32333 C 452.71757,240.05314 451.38479,237.10577 450.11305,238.53647 C 448.84131,239.96721 449.02521,242.2947 449.42263,243.92213 C 449.82006,245.54952 451.30931,244.54037 451.30931,244.54037 L 451.94537,245.52424 C 451.35366,245.90357 450.96965,245.73712 451.21784,246.73782 C 451.59441,248.25608 454.88931,250.82208 456.26127,248.91764 C 456.78952,248.18434 456.95141,247.75954 456.97263,247.76323 L 459.75503,247.23083 C 460.40656,247.10617 459.61792,249.35557 460.0429,249.46369 C 461.94997,249.9487 466.42578,249.88797 467.61715,248.86308 C 469.24647,247.46142 466.86538,245.39785 469.56664,245.70135 C 469.56664,245.70135 470.26664,246.20274 470.82324,245.84252 C 480.91515,239.31099 487.88587,228.99016 488.58327,226.60592 C 489.29188,224.18334 488.18585,224.38035 489.45759,223.34709 C 490.72933,222.31378 493.67024,222.47274 493.67024,222.47274 C 493.67024,222.47274 499.11403,220.03297 494.30611,216.7499 C 490.42592,214.10034 486.66148,201.47098 487.9474,199.89931 C 487.64682,195.5992 485.1244,191.70309 482.54249,187.81776 C 481.79482,183.96332 482.98968,181.4039 484.76804,179.23349 C 485.78501,178.86738 500.44361,196.90135 505.43386,203.07866 C 511.78019,210.93469 520.37684,198.30965 520.37684,198.30965 C 520.37684,198.30965 526.09968,190.52021 525.70226,180.58471 C 525.30484,170.64924 518.78715,158.56768 518.78715,158.56768 C 517.3641,152.19602 521.37642,147.37732 525.78174,142.6709 C 521.57671,144.63583 517.1968,144.67707 513.38225,150.93723 C 513.38225,150.93723 512.34896,146.48613 513.22328,141.7171 C 514.09761,136.94806 518.94613,133.7687 518.94613,133.7687 C 513.25321,136.61745 508.47356,139.61841 507.81838,143.30678 C 506.04594,132.56308 511.08322,123.11648 518.15129,114.0567 C 510.79101,118.79812 504.29765,124.23309 501.14173,132.33799 C 497.1162,113.14059 512.12639,104.04754 528.64316,89.257711 C 541.0395,78.157507 531.18665,68.273959 531.18665,68.273959 C 521.716,65.511595 513.86448,68.694152 507.34147,72.248155 C 507.34147,72.248155 501.09345,65.730829 497.3265,71.930223 C 492.95779,79.119957 489.46381,82.765078 491.44469,91.006355 C 490.4231,89.644235 500.25484,82.802762 507.81838,82.740033 C 513.90738,82.689533 509.56702,75.427514 509.56702,75.427514 C 509.56702,75.427514 524.9869,68.83035 528.00729,71.771255 C 531.02768,74.712159 532.10257,78.350011 524.35103,85.601447 L 504.63902,104.04172 C 495.13216,112.93524 492.58453,122.38647 497.96237,137.58393 C 503.69211,153.77587 520.72433,166.4185 520.45632,177.16692 C 520.18831,187.91535 521.23645,188.5719 518.15129,193.38164 C 515.06613,198.1914 512.65524,203.15838 506.86457,196.0046 C 501.07391,188.85083 493.40401,176.92256 487.23204,168.18524 C 477.22904,154.02456 472.82559,149.28794 468.87126,137.90187 C 464.91693,126.5158 469.82507,128.52276 469.6661,121.84611 C 469.50713,115.16947 468.23539,111.19527 468.23539,111.19527 L 427.85756,113.10289 z"
         id="path5049"
         style="fill:#000000;fill-opacity:1;fill-rule:evenodd;stroke:#404040;stroke-width:1.20000005;stroke-linecap:butt;stroke-linejoin:miter;stroke-miterlimit:4;stroke-dasharray:none;stroke-opacity:1;display:inline" />
      <path
         d="M 455.00736,82.650731 C 447.03215,83.788437 439.41198,86.407563 430.7274,85.798131 C 418.94323,84.97119 422.3735,79.335656 423.98296,77.479997 C 425.51672,75.711619 431.56549,81.624682 436.79739,83.549987 C 442.86775,85.783831 448.9381,82.95304 455.00736,82.650731 z"
         id="path5051"
         style="fill:#e20909;fill-opacity:1;fill-rule:evenodd;stroke:#404040;stroke-width:1.20000005;stroke-linecap:butt;stroke-linejoin:miter;stroke-miterlimit:4;stroke-dasharray:none;stroke-opacity:1;display:inline" />
      <path
         d="M 451.18552,77.480001 C 449.27009,75.444026 445.50731,75.340751 441.6871,75.850096 C 441.04701,74.976949 438.24653,73.341874 431.06462,73.658151 C 428.47618,70.375518 428.04159,65.194287 431.17703,63.20428 C 434.04553,61.38369 439.25962,62.225836 439.83238,61.855393 C 443.18798,59.685115 441.6871,56.797066 449.04978,55.560589 C 456.41245,54.324109 469.28308,56.909474 469.28308,56.909474 C 469.28308,56.909474 473.49835,54.886145 476.13992,54.661329 C 478.78149,54.436516 478.55667,54.436516 479.84936,56.010217 C 481.14204,57.583918 482.46283,58.286463 481.31065,60.956136 C 480.15848,63.625809 475.24066,66.688901 475.24066,66.688901 C 475.24066,66.688901 472.93631,73.517645 475.24066,78.266849 C 477.54501,83.016053 485.58213,86.360167 485.58213,86.360167 C 481.94577,86.551807 479.14136,87.218843 477.60121,88.608315 C 476.73942,89.282755 475.99423,90.581955 476.36473,91.643307 C 477.24009,94.150883 481.98509,98.387739 481.98509,98.387739 C 481.98509,98.387739 480.04607,97.488483 479.06251,99.849035 C 478.07894,102.20959 478.05084,107.82995 478.05084,107.82995 C 478.05084,107.82995 471.81202,107.91012 470.29474,112.10142 C 468.19388,117.90481 473.27623,126.66233 474.3414,125.14066 C 474.3414,125.14066 471.02539,126.40525 468.49623,125.47788 C 465.96707,124.55053 463.66272,121.43122 463.66272,121.43122 C 461.23445,121.87164 459.20341,123.05699 458.26717,124.69103 C 442.36338,119.46593 438.20653,125.98776 434.32443,132.78435 C 433.11894,134.00465 431.63307,134.52398 429.82814,134.24565 C 432.23234,131.20283 432.60265,127.65154 432.63832,124.01659 C 425.95617,124.43866 419.76106,130.08016 411.05613,128.8501 C 415.56227,125.81155 417.92925,121.91734 416.45168,116.4853 C 412.74886,114.21423 407.43619,113.87496 402.28837,113.3379 C 418.06469,109.98042 427.94344,105.97875 430.27777,99.849035 L 440.61923,98.949779 C 444.34394,96.720683 444.44626,94.820899 445.00311,92.879787 C 442.47518,90.198707 438.31503,92.433035 434.77406,91.418495 C 433.28136,90.990815 433.18075,89.058599 433.88965,88.529779 C 434.2441,88.265371 434.63415,87.303531 435.24264,87.175243 C 435.85113,87.046959 436.67805,87.752235 437.45663,87.674655 C 440.35796,87.385567 449.56893,87.211423 452.5344,86.697387 C 454.34909,83.374331 453.58679,80.0324 451.18552,77.480001 z"
         id="path5053"
         style="fill:#000000;fill-opacity:1;fill-rule:evenodd;stroke:#404040;stroke-width:1.20000005;stroke-linecap:butt;stroke-linejoin:miter;stroke-miterlimit:4;stroke-dasharray:none;stroke-opacity:1;display:inline" />
      <path
         d="M 456.63073,62.710059 C 456.63192,63.500614 455.2793,64.141784 453.61035,64.141784 C 451.9414,64.141784 450.58877,63.500614 450.58996,62.710059 C 450.58877,61.919505 451.9414,61.278335 453.61035,61.278335 C 455.2793,61.278335 456.63192,61.919505 456.63073,62.710059 z"
         id="path5055"
         style="fill:#bababa;fill-opacity:1;fill-rule:evenodd;stroke:#808080;stroke-width:1.20000005;stroke-linecap:butt;stroke-linejoin:miter;stroke-miterlimit:4;stroke-dasharray:none;stroke-opacity:1;display:inline" />
      <path
         d="M 449.09139,166.16574 C 447.75521,166.14218 446.79394,166.76528 445.6863,167.12969 C 449.73712,170.3423 453.77238,173.5585 453.83599,177.78312 C 450.66947,184.39681 453.91435,185.80106 458.1925,186.37095 C 459.82354,184.53173 461.88179,181.95142 460.92158,180.1116 C 459.44457,177.28151 457.34076,173.94247 455.6512,170.23433 C 454.93173,169.4756 454.11269,168.67939 453.14746,167.81822 C 451.3979,166.59416 450.13065,166.18407 449.09139,166.16574 z"
         id="path5057"
         style="fill:#000000;fill-opacity:1;fill-rule:evenodd;stroke:#404040;stroke-width:1.20000005;stroke-linecap:butt;stroke-linejoin:miter;stroke-miterlimit:4;stroke-dasharray:none;stroke-opacity:1" />
    </g>
  </g>
  <g
     id="layer4" />
  <g
     id="layer2">
    <path
       d="M 300.00001,658.5 C 300.00001,658.5 598.50001,546.17969 598.50001,260.72817 C 598.50001,-24.723334 598.50001,2.1764865 598.50001,2.1764865 L 1.5,2.1764865 L 1.5,260.72817 C 1.5,546.17969 300.00001,658.5 300.00001,658.5 z"
       id="path2875"
       style="opacity:1;fill:url(#radialGradient3163);fill-opacity:1;fill-rule:evenodd;stroke:none;stroke-width:1px;stroke-linecap:butt;stroke-linejoin:miter;stroke-opacity:1" />
  </g>
  <g
     id="layer1">
    <path
       d="M 299.99999,658.50028 C 299.99999,658.50028 1.5,546.17992 1.5,260.72828 C 1.5,-24.723336 1.5,2.1764957 1.5,2.1764957 L 598.49999,2.1764957 L 598.49999,260.72828 C 598.49999,546.17992 299.99999,658.50028 299.99999,658.50028 z"
       id="path1411"
       style="opacity:1;fill:none;fill-opacity:1;fill-rule:evenodd;stroke:#000000;stroke-width:3.00000048;stroke-linecap:butt;stroke-linejoin:miter;stroke-miterlimit:4;stroke-dasharray:none;stroke-opacity:1" />
  </g>
</svg>
