<?xml version="1.0" encoding="UTF-8" standalone="no"?>
<!-- Created with Inkscape (http://www.inkscape.org/) -->

<svg
   xmlns:dc="http://purl.org/dc/elements/1.1/"
   xmlns:cc="http://creativecommons.org/ns#"
   xmlns:rdf="http://www.w3.org/1999/02/22-rdf-syntax-ns#"
   xmlns:svg="http://www.w3.org/2000/svg"
   xmlns="http://www.w3.org/2000/svg"
   xmlns:xlink="http://www.w3.org/1999/xlink"
   xmlns:sodipodi="http://sodipodi.sourceforge.net/DTD/sodipodi-0.dtd"
   xmlns:inkscape="http://www.inkscape.org/namespaces/inkscape"
   version="1.0"
   width="600"
   height="660"
   id="svg2"
   inkscape:version="0.48.0 r9654"
   sodipodi:docname="Hughes_de_Payns.svg">
  <metadata
     id="metadata38">
    <rdf:RDF>
      <cc:Work
         rdf:about="">
        <dc:format>image/svg+xml</dc:format>
        <dc:type
           rdf:resource="http://purl.org/dc/dcmitype/StillImage" />
      </cc:Work>
    </rdf:RDF>
  </metadata>
  <sodipodi:namedview
     pagecolor="#ffffff"
     bordercolor="#666666"
     borderopacity="1"
     objecttolerance="10"
     gridtolerance="10"
     guidetolerance="10"
     inkscape:pageopacity="0"
     inkscape:pageshadow="2"
     inkscape:window-width="1680"
     inkscape:window-height="1024"
     id="namedview36"
     showgrid="false"
     inkscape:zoom="0.56354268"
     inkscape:cx="300"
     inkscape:cy="394.89046"
     inkscape:window-x="-4"
     inkscape:window-y="-4"
     inkscape:window-maximized="1"
     inkscape:current-layer="svg2" />
  <desc
     id="desc4">Flag of Canton of Valais (Wallis)</desc>
  <defs
     id="defs6">
    <linearGradient
       id="linearGradient2893">
      <stop
         style="stop-color:white;stop-opacity:0.3137255"
         offset="0"
         id="stop2895" />
      <stop
         style="stop-color:white;stop-opacity:0.25098041"
         offset="0.19"
         id="stop2897" />
      <stop
         style="stop-color:#6b6b6b;stop-opacity:0.1254902"
         offset="0.60000002"
         id="stop2901" />
      <stop
         style="stop-color:black;stop-opacity:0.1254902"
         offset="1"
         id="stop2899" />
    </linearGradient>
    <linearGradient
       id="linearGradient2885">
      <stop
         style="stop-color:white;stop-opacity:1"
         offset="0"
         id="stop2887" />
      <stop
         style="stop-color:white;stop-opacity:1"
         offset="0.22857143"
         id="stop2891" />
      <stop
         style="stop-color:black;stop-opacity:1"
         offset="1"
         id="stop2889" />
    </linearGradient>
    <linearGradient
       id="linearGradient2955">
      <stop
         style="stop-color:#fd0000;stop-opacity:1"
         offset="0"
         id="stop2867" />
      <stop
         style="stop-color:#e77275;stop-opacity:0.65882355"
         offset="0.5"
         id="stop2873" />
      <stop
         style="stop-color:black;stop-opacity:0.32291666"
         offset="1"
         id="stop2959" />
    </linearGradient>
    <radialGradient
       cx="225.52438"
       cy="218.90099"
       r="300"
       fx="225.52438"
       fy="218.90099"
       id="radialGradient2961"
       xlink:href="#linearGradient2955"
       gradientUnits="userSpaceOnUse"
       gradientTransform="matrix(-4.167939e-4,2.182867,-1.884232,-3.599562e-4,615.5972,-289.1214)" />
    <polygon
       points="0,-1 0.58778525,0.80901699 -0.95105652,-0.30901699 0.95105652,-0.30901699 -0.58778525,0.80901699 0,-1 "
       transform="scale(53,53)"
       id="star" />
    <clipPath
       id="clip">
      <path
         d="M 0,-200 L 0,600 L 300,600 L 300,-200 L 0,-200 z "
         id="path10" />
    </clipPath>
    <radialGradient
       cx="225.52438"
       cy="218.90099"
       r="300"
       fx="225.52438"
       fy="218.90099"
       id="radialGradient1911"
       xlink:href="#linearGradient2955"
       gradientUnits="userSpaceOnUse"
       gradientTransform="matrix(-4.167939e-4,2.182867,-1.884232,-3.599562e-4,615.5972,-289.1214)" />
    <radialGradient
       cx="225.52438"
       cy="218.90099"
       r="300"
       fx="225.52438"
       fy="218.90099"
       id="radialGradient2865"
       xlink:href="#linearGradient2955"
       gradientUnits="userSpaceOnUse"
       gradientTransform="matrix(0,1.748721,-1.593162,-1.049767e-7,551.7876,-191.2898)" />
    <radialGradient
       cx="225.52438"
       cy="218.90099"
       r="300"
       fx="225.52438"
       fy="218.90099"
       id="radialGradient2871"
       xlink:href="#linearGradient2955"
       gradientUnits="userSpaceOnUse"
       gradientTransform="matrix(0,1.386237,-1.323286,-5.741131e-8,-158.0823,-109.5408)" />
    <radialGradient
       cx="221.44487"
       cy="226.33101"
       r="300"
       fx="221.44487"
       fy="226.33101"
       id="radialGradient3163"
       xlink:href="#linearGradient2893"
       gradientUnits="userSpaceOnUse"
       gradientTransform="matrix(1.353218,0,0,1.348928,-77.62936,-109.7003)" />
  </defs>
  <g
     style="display:inline"
     id="layer3"
     transform="translate(0,24)">
    <path
       d="m 299.99999,634.54666 c 0,0 298.50001,-112.32031 298.50001,-397.77183 0,-285.451524 0,-258.551693 0,-258.551693 l -597.00001,0 0,258.551693 c 0,285.45152 298.5,397.77183 298.5,397.77183 z"
       style="fill:#ffffff;fill-opacity:1;fill-rule:evenodd;stroke:none"
       id="path2855"
       inkscape:connector-curvature="0" />
  </g>
  <g
     id="layer4"
     transform="translate(0,24)">
    <g
       transform="matrix(0.08629073,0,0,0.0821364,41.12802,11.37481)"
       style="fill:#ff0000;stroke:none"
       id="g1921">
      <path
         d="M 298.255,2122.59 C 1154.81,2477.39 2072.87,2660 3000,2660 c 927.13,0 1845.19,-182.61 2701.74,-537.41 l 0,1754.82 C 4845.19,3522.61 3927.13,3340 3000,3340 c -927.13,0 -1845.19,182.61 -2701.745,537.41 l 0,-1754.82 z"
         style="fill:#ff0000"
         id="path1923"
         inkscape:connector-curvature="0" />
      <path
         d="M 3877.41,298.255 C 3522.61,1154.81 3340,2072.87 3340,3000 c 0,927.13 182.61,1845.19 537.41,2701.74 l -1754.82,0 C 2477.39,4845.19 2660,3927.13 2660,3000 2660,2072.87 2477.39,1154.81 2122.59,298.255 l 1754.82,0 z"
         style="fill:#ff0000"
         id="path1925"
         inkscape:connector-curvature="0" />
    </g>
  </g>
  <g
     style="display:inline"
     id="layer2"
     transform="translate(0,24)">
    <path
       d="m 300,634.54666 c 0,0 298.5,-112.32031 298.5,-397.77183 0,-285.451509 0,-258.551688 0,-258.551688 l -597.00001,0 0,258.551688 C 1.49999,522.22635 300,634.54666 300,634.54666 z"
       style="fill:url(#radialGradient3163);fill-opacity:1;fill-rule:evenodd;stroke:none"
       id="path2875"
       inkscape:connector-curvature="0" />
  </g>
  <g
     style="display:inline"
     id="layer1"
     transform="translate(0,24)">
    <path
       d="m 299.99999,634.54679 c 0,0 -298.49999,-112.32036 -298.49999,-397.772 0,-285.451615 0,-258.551784 0,-258.551784 l 596.99999,0 0,258.551784 c 0,285.45164 -298.5,397.772 -298.5,397.772 z"
       style="fill:none;stroke:#000000;stroke-width:3.00000048;stroke-linecap:butt;stroke-linejoin:miter;stroke-miterlimit:4;stroke-opacity:1;stroke-dasharray:none"
       id="path1411"
       inkscape:connector-curvature="0" />
  </g>
</svg>
