<?xml version="1.0" encoding="UTF-8" standalone="no"?>
<!-- Created with Inkscape (http://www.inkscape.org/) -->
<svg
   xmlns:svg="http://www.w3.org/2000/svg"
   xmlns="http://www.w3.org/2000/svg"
   xmlns:xlink="http://www.w3.org/1999/xlink"
   version="1.0"
   width="600"
   height="660"
   id="svg2">
  <desc
     id="desc4">Flag of Canton of Valais (Wallis)</desc>
  <defs
     id="defs6">
    <linearGradient
       id="linearGradient2893">
      <stop
         id="stop2895"
         style="stop-color:#ffffff;stop-opacity:0.3137255"
         offset="0" />
      <stop
         id="stop2897"
         style="stop-color:#ffffff;stop-opacity:0.25098041"
         offset="0.19" />
      <stop
         id="stop2901"
         style="stop-color:#6b6b6b;stop-opacity:0.1254902"
         offset="0.60000002" />
      <stop
         id="stop2899"
         style="stop-color:#000000;stop-opacity:0.1254902"
         offset="1" />
    </linearGradient>
    <linearGradient
       id="linearGradient2885">
      <stop
         id="stop2887"
         style="stop-color:#ffffff;stop-opacity:1"
         offset="0" />
      <stop
         id="stop2891"
         style="stop-color:#ffffff;stop-opacity:1"
         offset="0.22857143" />
      <stop
         id="stop2889"
         style="stop-color:#000000;stop-opacity:1"
         offset="1" />
    </linearGradient>
    <linearGradient
       id="linearGradient2955">
      <stop
         id="stop2867"
         style="stop-color:#fd0000;stop-opacity:1"
         offset="0" />
      <stop
         id="stop2873"
         style="stop-color:#e77275;stop-opacity:0.65882355"
         offset="0.5" />
      <stop
         id="stop2959"
         style="stop-color:#000000;stop-opacity:0.32291666"
         offset="1" />
    </linearGradient>
    <radialGradient
       cx="225.52438"
       cy="218.90099"
       r="300"
       fx="225.52438"
       fy="218.90099"
       id="radialGradient2961"
       xlink:href="#linearGradient2955"
       gradientUnits="userSpaceOnUse"
       gradientTransform="matrix(-4.167939e-4,2.182867,-1.884232,-3.599562e-4,615.5972,-289.1214)" />
    <polygon
       points="0,-1 0.58778525,0.80901699 -0.95105652,-0.30901699 0.95105652,-0.30901699 -0.58778525,0.80901699 0,-1 "
       transform="scale(53,53)"
       id="star" />
    <clipPath
       id="clip">
      <path
         d="M 0,-200 L 0,600 L 300,600 L 300,-200 L 0,-200 z"
         id="path10" />
    </clipPath>
    <radialGradient
       cx="225.52438"
       cy="218.90099"
       r="300"
       fx="225.52438"
       fy="218.90099"
       id="radialGradient1911"
       xlink:href="#linearGradient2955"
       gradientUnits="userSpaceOnUse"
       gradientTransform="matrix(-4.167939e-4,2.182867,-1.884232,-3.599562e-4,615.5972,-289.1214)" />
    <radialGradient
       cx="225.52438"
       cy="218.90099"
       r="300"
       fx="225.52438"
       fy="218.90099"
       id="radialGradient2865"
       xlink:href="#linearGradient2955"
       gradientUnits="userSpaceOnUse"
       gradientTransform="matrix(0,1.748721,-1.593162,-1.049767e-7,551.7876,-191.2898)" />
    <radialGradient
       cx="225.52438"
       cy="218.90099"
       r="300"
       fx="225.52438"
       fy="218.90099"
       id="radialGradient2871"
       xlink:href="#linearGradient2955"
       gradientUnits="userSpaceOnUse"
       gradientTransform="matrix(0,1.386237,-1.323286,-5.741131e-8,-158.0823,-109.5408)" />
    <radialGradient
       cx="221.44487"
       cy="226.33101"
       r="300"
       fx="221.44487"
       fy="226.33101"
       id="radialGradient3163"
       xlink:href="#linearGradient2893"
       gradientUnits="userSpaceOnUse"
       gradientTransform="matrix(1.353218,0,0,1.348928,-77.62935,-85.74693)" />
  </defs>
  <g
     id="layer3"
     style="display:inline">
    <path
       d="M 299.38462,658.54498 C 299.38462,658.54498 597.88463,546.22467 597.88463,260.77315 C 597.88463,-24.678377 597.88463,2.2214629 597.88463,2.2214629 L 0.88462171,2.2214629 L 0.88462171,260.77315 C 0.88462171,546.22467 299.38462,658.54498 299.38462,658.54498 z"
       id="path2855"
       style="fill:#ffffff;fill-opacity:1;fill-rule:evenodd;stroke:none;stroke-width:1px;stroke-linecap:butt;stroke-linejoin:miter;stroke-opacity:1" />
    <path
       d="M 1.5757851,2.0398779 C 299.87889,2.0398779 299.58338,1.4200074 299.58338,1.4200074 L 300.48994,300.2439 C 300.48994,300.2439 3.4470846,301.37728 3.4470846,301.37728 C -0.7845603,250.50576 1.2637563,104.33088 1.5757851,2.0398779 z"
       id="path3953"
       style="fill:#bababa;fill-rule:evenodd;stroke:#000000;stroke-width:2.5;stroke-linecap:butt;stroke-linejoin:miter;stroke-miterlimit:4;stroke-dasharray:none;stroke-opacity:1" />
    <path
       d="M 598.07421,2.1032359 C 446.21471,2.2699893 300.04416,1.3106234 300.04416,1.3106234 L 300.33672,299.77257 C 300.33672,299.77257 597.15293,300.90595 597.15293,300.90595 C 601.38458,250.03443 598.38624,104.39424 598.07421,2.1032359 z"
       id="path3979"
       style="fill:#bababa;fill-rule:evenodd;stroke:#000000;stroke-width:2.5;stroke-linecap:butt;stroke-linejoin:miter;stroke-miterlimit:4;stroke-dasharray:none;stroke-opacity:1;display:inline" />
    <path
       d="M 3.0901914,301.5378 C 299.74856,299.99271 300.52111,299.99271 300.52111,299.99271 L 300.52111,657.68236 C 217.06467,620.50388 23.863565,518.9357 3.0901914,301.5378 z"
       id="path3985"
       style="opacity:1;fill:#bababa;fill-rule:evenodd;stroke:#000000;stroke-width:2.5;stroke-linecap:butt;stroke-linejoin:miter;stroke-miterlimit:4;stroke-dasharray:none;stroke-opacity:1" />
    <path
       d="M 597.14537,301.97129 C 300.487,300.4262 299.71445,300.4262 299.71445,300.4262 L 299.71445,658.11585 C 383.17089,620.93737 576.372,519.36919 597.14537,301.97129 z"
       id="path3987"
       style="opacity:1;fill:#bababa;fill-rule:evenodd;stroke:#000000;stroke-width:2.5;stroke-linecap:butt;stroke-linejoin:miter;stroke-miterlimit:4;stroke-dasharray:none;stroke-opacity:1;display:inline" />
    <path
       d="M 100.46122,167.01028 C 67.207218,167.01028 35.656568,181.72228 14.281218,207.19678 L 14.281218,88.823776 C 35.656568,114.29828 67.207218,129.01028 100.46122,129.01028 L 130.31122,129.01028 L 130.31122,99.160276 C 130.31122,65.906266 115.59922,34.355626 90.124718,12.980276 L 208.49772,12.980276 C 183.02322,34.355626 168.31122,65.906266 168.31122,99.160276 L 168.31122,129.01028 L 198.11122,129.01028 C 231.36522,129.01028 262.91572,114.29828 284.29122,88.823776 L 284.29122,207.19678 C 262.91572,181.72228 231.36522,167.01028 198.11122,167.01028 L 168.31122,167.01028 L 168.31122,196.81028 C 168.31122,230.06428 183.02322,261.61478 208.49772,282.99028 L 90.124718,282.99028 C 115.59922,261.61478 130.31122,230.06428 130.31122,196.81028 L 130.31122,167.01028 L 100.46122,167.01028 z"
       id="path2809"
       style="fill:#e20909;stroke:none" />
    <path
       d="M 388.6875,317.71875 C 414.162,339.0941 428.875,370.65223 428.875,403.90625 L 428.875,433.75 L 399.03125,433.75 C 365.77725,433.75 334.2191,419.03701 312.84375,393.5625 L 312.84375,511.9375 C 334.2191,486.463 365.77726,471.75 399.03125,471.75 L 428.875,471.75 L 428.875,501.5625 C 428.875,534.8165 414.162,566.34324 388.6875,587.71875 L 422.65625,587.71875 C 443.5139,570.61869 458.81901,557.43261 474.625,542.5 C 469.57805,529.59295 466.875,515.74687 466.875,501.5625 L 466.875,471.75 L 496.6875,471.75 C 508.09523,471.75 519.30396,473.47801 529.96875,476.78125 C 544.77392,454.68059 556.8224,432.82228 568.125,408.125 C 548.15654,424.54415 522.96063,433.75 496.6875,433.75 L 466.875,433.75 L 466.875,403.90625 C 466.875,370.65224 481.58801,339.09411 507.0625,317.71875 L 388.6875,317.71875 z"
       id="path2819"
       style="fill:#e20909;stroke:none;display:inline" />
    <path
       d="M 336.96875,4.15625 L 319.1875,22.375 L 319.1875,52.46875 L 301.1875,70.90625 L 301.1875,71.5625 L 375.15625,71.5625 L 356.5,52.46875 L 356.5,22.375 L 338.78125,4.15625 L 336.96875,4.15625 z M 375.15625,71.5625 L 449.78125,71.5625 L 431.15625,52.46875 L 431.15625,22.375 L 413.375,4.15625 L 411.59375,4.15625 L 393.84375,22.375 L 393.84375,52.46875 L 375.15625,71.5625 z M 375.15625,71.5625 L 356.5,90.65625 L 356.5,120.75 L 337.875,139.84375 L 412.46875,139.84375 L 393.84375,120.75 L 393.84375,90.65625 L 375.15625,71.5625 z M 412.46875,139.84375 L 487.09375,139.84375 L 468.46875,120.75 L 468.46875,90.65625 L 449.78125,71.5625 L 431.15625,90.65625 L 431.15625,120.75 L 412.46875,139.84375 z M 412.46875,139.84375 L 393.84375,158.9375 L 393.84375,189.0625 L 375.15625,208.125 L 449.78125,208.125 L 431.15625,189.0625 L 431.15625,158.9375 L 412.46875,139.84375 z M 449.78125,208.125 L 524.4375,208.125 L 505.75,189.0625 L 505.75,158.9375 L 487.09375,139.84375 L 468.46875,158.9375 L 468.46875,189.0625 L 449.78125,208.125 z M 449.78125,208.125 L 431.15625,227.21875 L 431.15625,257.3125 L 412.46875,276.375 L 487.09375,276.375 L 468.46875,257.3125 L 468.46875,227.21875 L 449.78125,208.125 z M 487.09375,276.375 L 535.75,276.375 C 535.75008,276.37498 549.38321,276.46704 562.375,276.5625 L 543.0625,257.3125 L 543.0625,227.21875 L 524.4375,208.125 L 505.75,227.21875 L 505.75,257.3125 L 487.09375,276.375 z M 487.09375,276.375 L 468.46875,295.5 L 468.46875,300.65625 C 486.73083,300.72598 489.87151,300.75211 505.6875,300.8125 L 505.75,295.5 L 487.09375,276.375 z M 524.4375,208.125 C 550.56763,208.04964 574.47757,207.37089 598.84375,208.125 C 598.84397,207.96094 598.84355,207.78927 598.84375,207.625 L 580.34375,189.0625 L 580.34375,158.9375 L 561.71875,139.84375 L 543.0625,158.9375 L 543.0625,189.0625 L 524.4375,208.125 z M 561.71875,139.84375 L 543.0625,120.75 L 543.0625,90.65625 L 524.4375,71.5625 L 505.75,90.65625 L 505.75,120.75 L 487.09375,139.84375 L 561.71875,139.84375 z M 561.71875,139.84375 L 598.53125,139.84375 C 598.36518,117.4955 598.1963,94.943473 598,72.625 L 580.34375,90.65625 L 580.34375,120.75 L 561.71875,139.84375 z M 524.4375,71.5625 L 505.75,52.46875 L 505.75,22.375 L 488,4.15625 L 486.21875,4.15625 L 468.46875,22.375 L 468.46875,52.46875 L 449.78125,71.5625 L 524.4375,71.5625 z M 524.4375,71.5625 L 598,71.5625 C 597.99687,71.205403 597.97187,70.856815 597.96875,70.5 L 580.34375,52.46875 L 580.34375,22.375 L 562.625,4.15625 L 560.84375,4.15625 L 543.0625,22.375 L 543.0625,52.46875 L 524.4375,71.5625 z M 562.375,276.5625 C 562.10095,276.8552 543.92684,295.20855 543.78125,295.09375 C 543.76315,295.07948 543.72574,297.54972 543.6875,300.9375 C 554.45362,300.97861 576.65443,301.0793 580.4375,301.09375 C 580.41961,299.31833 580.3756,295.2252 580.375,295.28125 C 580.37321,295.44977 563.68276,277.4099 562.5625,276.5625 C 578.27963,276.67817 593.55575,276.80385 597.90625,276.90625 C 598.5395,258.59855 598.80122,235.47813 598.84375,209.6875 C 595.07497,213.16729 580.91192,227.29153 580.90625,227.4375 C 580.87314,228.28885 580.21953,257.76761 580.375,257.78125 C 580.55296,257.79686 562.81045,276.33981 562.5625,276.53125 C 562.53807,276.51401 562.47301,276.4637 562.46875,276.46875 C 562.46836,276.46921 562.40727,276.5614 562.40625,276.5625 C 562.46726,276.56295 562.47016,276.56205 562.53125,276.5625 C 562.53061,276.56294 562.46898,276.62499 562.46875,276.625 L 562.40625,276.5625 L 562.375,276.5625 z M 412.46875,276.375 L 393.84375,295.5 L 393.84375,300.375 C 410.01209,300.43674 412.76044,300.42964 431.1875,300.5 L 431.15625,295.5 L 412.46875,276.375 z M 412.46875,276.375 L 393.84375,257.3125 L 393.84375,227.21875 L 375.15625,208.125 L 356.5,227.21875 L 356.5,257.3125 L 338.1875,276.78125 C 338.20447,276.8012 338.23404,276.85598 338.25,276.875 L 412.46875,276.375 z M 338.1875,276.78125 C 335.42829,273.53811 319.49203,258.21234 319.625,258.34375 C 319.72105,258.4387 319.34494,227.08858 319.375,226.9375 C 319.43119,226.65493 300.89628,209.03707 300.875,209.34375 C 300.86841,209.43873 301.74278,277.06204 301.6875,276.96875 C 301.51001,276.66918 338.47164,277.26925 338.15625,276.8125 L 338.1875,276.78125 z M 375.15625,208.125 L 356.5,189.0625 L 356.5,158.9375 L 337.875,139.84375 L 319.1875,158.9375 L 319.1875,189.0625 L 302.0625,208.25 L 375.15625,208.125 z M 337.875,139.84375 L 319.1875,120.75 L 319.1875,90.65625 L 301.1875,72.1875 L 301.1875,139.84375 L 337.875,139.84375 z M 338.15625,276.90625 C 338.58863,276.78232 319.36762,296.26539 319.3125,296.1875 C 319.30467,296.17643 319.29064,299.22716 319.28125,300.0625 C 323.77368,300.07966 344.65732,300.17591 355.875,300.21875 C 355.86915,297.84414 355.89388,295.91641 355.90625,295.9375 C 356.10215,296.27135 337.96358,276.96148 338.15625,276.90625 z"
       id="path3004"
       style="fill:#2b5df2;fill-opacity:1;fill-rule:evenodd;stroke:#000000;stroke-width:1.5;stroke-linecap:butt;stroke-linejoin:miter;stroke-miterlimit:4;stroke-dasharray:none;stroke-opacity:1;display:inline" />
    <path
       d="M 35.96875,302.3125 L 18.1875,320.5 L 18.1875,350.625 L 11.9375,357 C 13.010646,361.27611 14.166151,365.51563 15.375,369.6875 L 74.15625,369.6875 L 55.5,350.625 L 55.5,320.5 L 37.78125,302.3125 L 35.96875,302.3125 z M 74.15625,369.6875 L 148.78125,369.6875 L 130.15625,350.625 L 130.15625,320.5 L 112.375,302.3125 L 110.59375,302.3125 L 92.84375,320.5 L 92.84375,350.625 L 74.15625,369.6875 z M 74.15625,369.6875 L 55.5,388.8125 L 55.5,418.90625 L 40.875,433.875 C 41.57467,435.24172 42.254806,436.61598 42.96875,437.96875 L 111.46875,437.96875 L 92.84375,418.90625 L 92.84375,388.8125 L 74.15625,369.6875 z M 111.46875,437.96875 L 186.09375,437.96875 L 167.46875,418.90625 L 167.46875,388.8125 L 148.78125,369.6875 L 130.15625,388.8125 L 130.15625,418.90625 L 111.46875,437.96875 z M 111.46875,437.96875 L 92.84375,457.0625 L 92.84375,487.21875 L 82.28125,497.96875 C 84.496361,500.7621 86.732111,503.53488 89,506.25 L 148.78125,506.25 L 130.15625,487.21875 L 130.15625,457.0625 L 111.46875,437.96875 z M 148.78125,506.25 L 223.4375,506.25 L 204.75,487.21875 L 204.75,457.0625 L 186.09375,437.96875 L 167.46875,457.0625 L 167.46875,487.21875 L 148.78125,506.25 z M 148.78125,506.25 L 130.15625,525.375 L 130.15625,549.25 C 139.917,558.22621 149.85404,566.62713 159.84375,574.5 L 186.09375,574.5 L 167.46875,555.4375 L 167.46875,525.375 L 148.78125,506.25 z M 186.09375,574.5 L 234.75,574.5 C 234.75007,574.49998 248.38321,574.59204 261.375,574.6875 L 242.0625,555.4375 L 242.0625,525.375 L 223.4375,506.25 L 204.75,525.375 L 204.75,555.4375 L 186.09375,574.5 z M 186.09375,574.5 L 174.9375,585.96875 C 184.90027,593.28046 194.82303,600.0823 204.59375,606.375 L 204.75,593.625 L 186.09375,574.5 z M 223.4375,506.25 C 249.74648,506.17411 273.8044,505.50223 298.34375,506.28125 L 279.34375,487.21875 L 279.34375,457.0625 L 260.71875,437.96875 L 242.0625,457.0625 L 242.0625,487.21875 L 223.4375,506.25 z M 260.71875,437.96875 L 242.0625,418.90625 L 242.0625,388.8125 L 223.4375,369.6875 L 204.75,388.8125 L 204.75,418.90625 L 186.09375,437.96875 L 260.71875,437.96875 z M 260.71875,437.96875 L 298.375,437.96875 C 298.44605,435.79097 298.5,433.59452 298.5,431.375 C 298.49999,363.78167 298.5,385.71097 298.5,370.15625 L 298.03125,369.6875 L 279.34375,388.8125 L 279.34375,418.90625 L 260.71875,437.96875 z M 298.03125,369.6875 L 279.34375,350.625 L 279.34375,320.5 L 261.625,302.3125 L 259.84375,302.3125 L 242.0625,320.5 L 242.0625,350.625 L 223.4375,369.6875 L 298.03125,369.6875 z M 298.03125,369.6875 L 298.5,369.6875 C 298.49999,369.57037 298.5,369.33389 298.5,369.21875 L 298.03125,369.6875 z M 223.4375,369.6875 L 204.75,350.625 L 204.75,320.5 L 187,302.3125 L 185.21875,302.3125 L 167.46875,320.5 L 167.46875,350.625 L 148.78125,369.6875 L 223.4375,369.6875 z M 51.15625,452.59375 C 52.586053,455.03097 54.025749,457.4544 55.5,459.84375 L 55.5,457.0625 L 51.15625,452.59375 z M 298.78125,507.03125 C 298.67681,506.70663 279.91277,525.3946 279.90625,525.5625 C 279.87316,526.41386 279.21953,555.89261 279.375,555.90625 C 279.55295,555.92185 261.81013,574.49639 261.5625,574.6875 C 279.37671,574.81861 298.11152,574.9939 298.5,575.09375 C 298.34297,574.19216 298.78857,510.76599 298.78125,507.03125 z M 261.5625,574.6875 C 261.54722,574.68739 261.54652,574.68761 261.53125,574.6875 C 261.53032,574.68818 261.46904,574.78124 261.46875,574.78125 L 261.40625,574.71875 C 261.16203,574.98137 242.92696,593.3649 242.78125,593.25 C 242.71503,593.19777 242.45371,624.46595 242.4375,624.46875 C 242.38126,624.47846 241.25623,625.66021 239.625,627.375 C 250.71427,633.56495 261.27257,639.03812 271.125,643.90625 C 281.18338,643.90734 299.26997,644.08172 299.12921,644.12971 C 299.08571,644.14454 290.53181,652.51042 290.42857,652.59193 C 290.32203,652.67606 298.90162,656.83642 298.8961,656.84563 C 298.89125,656.85372 298.9484,643.90766 299.0839,643.93767 C 299.15459,643.95333 279.80212,624.19715 279.71875,624.34375 C 279.67406,624.42234 279.37818,593.14098 279.375,593.4375 C 279.37319,593.60681 262.54477,575.38059 261.5625,574.6875 z M 261.53125,574.6875 C 261.51531,574.67757 261.47211,574.62102 261.46875,574.625 C 261.46844,574.62537 261.40697,574.68672 261.40625,574.6875 C 261.46726,574.68795 261.47016,574.68705 261.53125,574.6875 z"
       id="path3007"
       style="fill:#2b5df2;fill-opacity:1;fill-rule:evenodd;stroke:#000000;stroke-width:1.5;stroke-linecap:butt;stroke-linejoin:miter;stroke-miterlimit:4;stroke-dasharray:none;stroke-opacity:1;display:inline" />
  </g>
  <g
     id="layer4" />
  <g
     id="layer2">
    <path
       d="M 300.00001,658.5 C 300.00001,658.5 598.50001,546.17969 598.50001,260.72817 C 598.50001,-24.723334 598.50001,2.1764865 598.50001,2.1764865 L 1.5,2.1764865 L 1.5,260.72817 C 1.5,546.17969 300.00001,658.5 300.00001,658.5 z"
       id="path2875"
       style="opacity:1;fill:url(#radialGradient3163);fill-opacity:1;fill-rule:evenodd;stroke:none;stroke-width:1px;stroke-linecap:butt;stroke-linejoin:miter;stroke-opacity:1" />
  </g>
  <g
     id="layer1">
    <path
       d="M 299.99999,658.50028 C 299.99999,658.50028 1.5,546.17992 1.5,260.72828 C 1.5,-24.723336 1.5,2.1764957 1.5,2.1764957 L 598.49999,2.1764957 L 598.49999,260.72828 C 598.49999,546.17992 299.99999,658.50028 299.99999,658.50028 z"
       id="path1411"
       style="opacity:1;fill:none;fill-opacity:1;fill-rule:evenodd;stroke:#000000;stroke-width:3.00000048;stroke-linecap:butt;stroke-linejoin:miter;stroke-miterlimit:4;stroke-dasharray:none;stroke-opacity:1" />
  </g>
</svg>
